{"accessors":[{"bufferView":0,"componentType":5126,"count":2,"min":[0.0],"max":[1.0833333333333333],"type":"SCALAR"},{"bufferView":1,"componentType":5126,"count":2,"type":"VEC3"},{"bufferView":2,"componentType":5126,"count":27,"min":[0.0],"max":[1.0833333333333333],"type":"SCALAR"},{"bufferView":3,"componentType":5126,"count":27,"type":"VEC4"},{"bufferView":4,"componentType":5126,"count":2,"type":"VEC3"},{"bufferView":5,"componentType":5126,"count":2,"type":"VEC3"},{"bufferView":6,"componentType":5126,"count":27,"type":"VEC4"},{"bufferView":7,"componentType":5126,"count":2,"type":"VEC3"},{"bufferView":8,"componentType":5126,"count":27,"type":"VEC3"},{"bufferView":9,"componentType":5126,"count":27,"type":"VEC4"},{"bufferView":10,"componentType":5126,"count":2,"type":"VEC3"},{"bufferView":11,"componentType":5126,"count":2,"type":"VEC3"},{"bufferView":12,"componentType":5126,"count":27,"type":"VEC4"},{"bufferView":13,"componentType":5126,"count":2,"type":"VEC3"},{"bufferView":14,"componentType":5126,"count":2,"type":"VEC3"},{"bufferView":15,"componentType":5126,"count":27,"type":"VEC4"},{"bufferView":16,"componentType":5126,"count":2,"type":"VEC3"},{"bufferView":17,"componentType":5126,"count":27,"type":"VEC3"},{"bufferView":18,"componentType":5126,"count":27,"type":"VEC4"},{"bufferView":19,"componentType":5126,"count":2,"type":"VEC3"},{"bufferView":20,"componentType":5126,"count":2,"type":"VEC3"},{"bufferView":21,"componentType":5126,"count":27,"type":"VEC4"},{"bufferView":22,"componentType":5126,"count":2,"type":"VEC3"},{"bufferView":23,"componentType":5126,"count":27,"type":"VEC3"},{"bufferView":24,"componentType":5126,"count":27,"type":"VEC4"},{"bufferView":25,"componentType":5126,"count":2,"type":"VEC3"},{"bufferView":26,"componentType":5126,"count":27,"type":"VEC3"},{"bufferView":27,"componentType":5126,"count":27,"type":"VEC4"},{"bufferView":28,"componentType":5126,"count":2,"type":"VEC3"},{"bufferView":29,"componentType":5126,"count":27,"type":"VEC3"},{"bufferView":30,"componentType":5126,"count":27,"type":"VEC4"},{"bufferView":31,"componentType":5126,"count":2,"type":"VEC3"},{"bufferView":32,"componentType":5126,"count":2,"type":"VEC3"},{"bufferView":33,"componentType":5126,"count":2,"type":"VEC4"},{"bufferView":34,"componentType":5126,"count":2,"type":"VEC3"},{"bufferView":35,"componentType":5126,"count":2,"min":[0.0],"max":[1.6666666666666667],"type":"SCALAR"},{"bufferView":36,"componentType":5126,"count":2,"type":"VEC3"},{"bufferView":37,"componentType":5126,"count":41,"min":[0.0],"max":[1.6666666666666667],"type":"SCALAR"},{"bufferView":38,"componentType":5126,"count":41,"type":"VEC4"},{"bufferView":39,"componentType":5126,"count":2,"type":"VEC3"},{"bufferView":40,"componentType":5126,"count":2,"type":"VEC3"},{"bufferView":41,"componentType":5126,"count":41,"type":"VEC4"},{"bufferView":42,"componentType":5126,"count":2,"type":"VEC3"},{"bufferView":43,"componentType":5126,"count":2,"type":"VEC3"},{"bufferView":44,"componentType":5126,"count":41,"type":"VEC4"},{"bufferView":45,"componentType":5126,"count":2,"type":"VEC3"},{"bufferView":46,"componentType":5126,"count":41,"type":"VEC3"},{"bufferView":47,"componentType":5126,"count":41,"type":"VEC4"},{"bufferView":48,"componentType":5126,"count":2,"type":"VEC3"},{"bufferView":49,"componentType":5126,"count":41,"type":"VEC3"},{"bufferView":50,"componentType":5126,"count":41,"type":"VEC4"},{"bufferView":51,"componentType":5126,"count":2,"type":"VEC3"},{"bufferView":52,"componentType":5126,"count":2,"type":"VEC3"},{"bufferView":53,"componentType":5126,"count":2,"type":"VEC4"},{"bufferView":54,"componentType":5126,"count":2,"type":"VEC3"},{"bufferView":55,"componentType":5126,"count":2,"min":[0.0],"max":[0.375],"type":"SCALAR"},{"bufferView":56,"componentType":5126,"count":2,"type":"VEC3"},{"bufferView":57,"componentType":5126,"count":10,"min":[0.0],"max":[0.375],"type":"SCALAR"},{"bufferView":58,"componentType":5126,"count":10,"type":"VEC4"},{"bufferView":59,"componentType":5126,"count":2,"type":"VEC3"},{"bufferView":60,"componentType":5126,"count":2,"type":"VEC3"},{"bufferView":61,"componentType":5126,"count":10,"type":"VEC4"},{"bufferView":62,"componentType":5126,"count":2,"type":"VEC3"},{"bufferView":63,"componentType":5126,"count":10,"type":"VEC3"},{"bufferView":64,"componentType":5126,"count":2,"type":"VEC4"},{"bufferView":65,"componentType":5126,"count":10,"type":"VEC3"},{"bufferView":66,"componentType":5126,"count":2,"type":"VEC4"},{"bufferView":67,"componentType":5126,"count":2,"type":"VEC3"},{"bufferView":68,"componentType":5126,"count":2,"type":"VEC3"},{"bufferView":69,"componentType":5126,"count":2,"type":"VEC4"},{"bufferView":70,"componentType":5126,"count":2,"type":"VEC3"},{"bufferView":71,"componentType":5126,"count":2,"min":[0.0],"max":[8.333333333333334],"type":"SCALAR"},{"bufferView":72,"componentType":5126,"count":2,"type":"VEC3"},{"bufferView":73,"componentType":5126,"count":201,"min":[0.0],"max":[8.333333333333334],"type":"SCALAR"},{"bufferView":74,"componentType":5126,"count":201,"type":"VEC4"},{"bufferView":75,"componentType":5126,"count":2,"type":"VEC3"},{"bufferView":76,"componentType":5126,"count":2,"type":"VEC3"},{"bufferView":77,"componentType":5126,"count":2,"type":"VEC4"},{"bufferView":78,"componentType":5126,"count":2,"type":"VEC3"},{"bufferView":79,"componentType":5126,"count":2,"type":"VEC3"},{"bufferView":80,"componentType":5126,"count":10,"type":"MAT4"},{"bufferView":81,"componentType":5126,"count":5,"type":"MAT4"},{"bufferView":82,"componentType":5126,"count":4,"type":"MAT4"},{"bufferView":83,"componentType":5126,"count":1,"type":"MAT4"},{"bufferView":84,"componentType":5126,"count":1,"type":"MAT4"},{"bufferView":85,"componentType":5126,"count":952,"min":[-0.27716684341430664,-0.9104653596878052,-0.4757489562034607],"max":[-0.16400682926177979,0.1647348552942276,0.13607379794120789],"type":"VEC3","name":"Circle.714_vertices#0_POSITION"},{"bufferView":85,"byteOffset":12,"componentType":5120,"count":952,"type":"VEC4","name":"Circle.714_vertices#0_TANGENT"},{"bufferView":85,"byteOffset":16,"componentType":5120,"count":952,"type":"VEC4","name":"Circle.714_vertices#0_NORMAL"},{"bufferView":85,"byteOffset":20,"componentType":5122,"count":952,"type":"VEC2","name":"Circle.714_vertices#0_TEXCOORD_0"},{"bufferView":85,"byteOffset":24,"componentType":5122,"count":952,"type":"VEC2","name":"Circle.714_vertices#0_TEXCOORD_1"},{"bufferView":85,"byteOffset":28,"componentType":5123,"count":952,"type":"VEC4","name":"Circle.714_vertices#0_COLOR_0"},{"bufferView":86,"componentType":5123,"count":2964,"type":"SCALAR","name":"Circle.714_indices#0"},{"bufferView":85,"byteOffset":34272,"componentType":5126,"count":3402,"min":[-0.12052181363105774,-0.7084367275238037,-0.7570242881774902],"max":[1.6378552913665771,0.7084367275238037,0.11997931450605392],"type":"VEC3","name":"Circle.700_vertices#0_POSITION"},{"bufferView":85,"byteOffset":34284,"componentType":5120,"count":3402,"type":"VEC4","name":"Circle.700_vertices#0_TANGENT"},{"bufferView":85,"byteOffset":34288,"componentType":5120,"count":3402,"type":"VEC4","name":"Circle.700_vertices#0_NORMAL"},{"bufferView":85,"byteOffset":34292,"componentType":5122,"count":3402,"type":"VEC2","name":"Circle.700_vertices#0_TEXCOORD_0"},{"bufferView":85,"byteOffset":34296,"componentType":5122,"count":3402,"type":"VEC2","name":"Circle.700_vertices#0_TEXCOORD_1"},{"bufferView":85,"byteOffset":34300,"componentType":5123,"count":3402,"type":"VEC4","name":"Circle.700_vertices#0_COLOR_0"},{"bufferView":86,"byteOffset":5928,"componentType":5123,"count":10284,"type":"SCALAR","name":"Circle.700_indices#0"},{"bufferView":85,"byteOffset":156744,"componentType":5126,"count":1338,"min":[1.4368014335632324,-0.2875376343727112,-0.7106767296791077],"max":[1.5917956829071045,0.20636796951293945,-0.5557410717010498],"type":"VEC3","name":"Circle.051_vertices#0_POSITION"},{"bufferView":85,"byteOffset":156756,"componentType":5120,"count":1338,"type":"VEC4","name":"Circle.051_vertices#0_TANGENT"},{"bufferView":85,"byteOffset":156760,"componentType":5120,"count":1338,"type":"VEC4","name":"Circle.051_vertices#0_NORMAL"},{"bufferView":85,"byteOffset":156764,"componentType":5122,"count":1338,"type":"VEC2","name":"Circle.051_vertices#0_TEXCOORD_0"},{"bufferView":85,"byteOffset":156768,"componentType":5122,"count":1338,"type":"VEC2","name":"Circle.051_vertices#0_TEXCOORD_1"},{"bufferView":85,"byteOffset":156772,"componentType":5123,"count":1338,"type":"VEC4","name":"Circle.051_vertices#0_COLOR_0"},{"bufferView":86,"byteOffset":26496,"componentType":5123,"count":3702,"type":"SCALAR","name":"Circle.051_indices#0"},{"bufferView":85,"byteOffset":204912,"componentType":5126,"count":10659,"min":[-0.2676939368247986,0.16319768130779266,-0.6048387885093689],"max":[0.2717209458351135,0.5907267928123474,0.4225468635559082],"type":"VEC3","name":"Circle.710_vertices#0_POSITION"},{"bufferView":85,"byteOffset":204924,"componentType":5120,"count":10659,"type":"VEC4","name":"Circle.710_vertices#0_TANGENT"},{"bufferView":85,"byteOffset":204928,"componentType":5120,"count":10659,"type":"VEC4","name":"Circle.710_vertices#0_NORMAL"},{"bufferView":85,"byteOffset":204932,"componentType":5122,"count":10659,"type":"VEC2","name":"Circle.710_vertices#0_TEXCOORD_0"},{"bufferView":85,"byteOffset":204936,"componentType":5122,"count":10659,"type":"VEC2","name":"Circle.710_vertices#0_TEXCOORD_1"},{"bufferView":85,"byteOffset":204940,"componentType":5123,"count":10659,"type":"VEC4","name":"Circle.710_vertices#0_COLOR_0"},{"bufferView":86,"byteOffset":33900,"componentType":5123,"count":29547,"type":"SCALAR","name":"Circle.710_indices#0"},{"bufferView":85,"byteOffset":588636,"componentType":5126,"count":170,"min":[-0.06613679230213165,-0.0660036951303482,-0.0020141464192420244],"max":[0.06613680720329285,0.06590151786804199,1.4206162632035557e-05],"type":"VEC3","name":"Circle.044_vertices#0_POSITION"},{"bufferView":85,"byteOffset":588648,"componentType":5120,"count":170,"type":"VEC4","name":"Circle.044_vertices#0_TANGENT"},{"bufferView":85,"byteOffset":588652,"componentType":5120,"count":170,"type":"VEC4","name":"Circle.044_vertices#0_NORMAL"},{"bufferView":85,"byteOffset":588656,"componentType":5122,"count":170,"type":"VEC2","name":"Circle.044_vertices#0_TEXCOORD_0"},{"bufferView":85,"byteOffset":588660,"componentType":5122,"count":170,"type":"VEC2","name":"Circle.044_vertices#0_TEXCOORD_1"},{"bufferView":85,"byteOffset":588664,"componentType":5123,"count":170,"type":"VEC4","name":"Circle.044_vertices#0_COLOR_0"},{"bufferView":86,"byteOffset":92994,"componentType":5123,"count":624,"type":"SCALAR","name":"Circle.044_indices#0"},{"bufferView":85,"byteOffset":594756,"componentType":5126,"count":170,"min":[-0.06613679230213165,-0.0660036951303482,-0.0020141464192420244],"max":[0.06613680720329285,0.06590151786804199,1.4206162632035557e-05],"type":"VEC3","name":"Circle.046_vertices#0_POSITION"},{"bufferView":85,"byteOffset":594768,"componentType":5120,"count":170,"type":"VEC4","name":"Circle.046_vertices#0_TANGENT"},{"bufferView":85,"byteOffset":594772,"componentType":5120,"count":170,"type":"VEC4","name":"Circle.046_vertices#0_NORMAL"},{"bufferView":85,"byteOffset":594776,"componentType":5122,"count":170,"type":"VEC2","name":"Circle.046_vertices#0_TEXCOORD_0"},{"bufferView":85,"byteOffset":594780,"componentType":5122,"count":170,"type":"VEC2","name":"Circle.046_vertices#0_TEXCOORD_1"},{"bufferView":85,"byteOffset":594784,"componentType":5123,"count":170,"type":"VEC4","name":"Circle.046_vertices#0_COLOR_0"},{"bufferView":86,"byteOffset":94242,"componentType":5123,"count":624,"type":"SCALAR","name":"Circle.046_indices#0"},{"bufferView":85,"byteOffset":600876,"componentType":5126,"count":170,"min":[-0.06613679230213165,-0.0660036951303482,-0.0020141464192420244],"max":[0.06613680720329285,0.06590151786804199,1.4206162632035557e-05],"type":"VEC3","name":"Circle.047_vertices#0_POSITION"},{"bufferView":85,"byteOffset":600888,"componentType":5120,"count":170,"type":"VEC4","name":"Circle.047_vertices#0_TANGENT"},{"bufferView":85,"byteOffset":600892,"componentType":5120,"count":170,"type":"VEC4","name":"Circle.047_vertices#0_NORMAL"},{"bufferView":85,"byteOffset":600896,"componentType":5122,"count":170,"type":"VEC2","name":"Circle.047_vertices#0_TEXCOORD_0"},{"bufferView":85,"byteOffset":600900,"componentType":5122,"count":170,"type":"VEC2","name":"Circle.047_vertices#0_TEXCOORD_1"},{"bufferView":85,"byteOffset":600904,"componentType":5123,"count":170,"type":"VEC4","name":"Circle.047_vertices#0_COLOR_0"},{"bufferView":86,"byteOffset":95490,"componentType":5123,"count":624,"type":"SCALAR","name":"Circle.047_indices#0"},{"bufferView":85,"byteOffset":606996,"componentType":5126,"count":170,"min":[-0.06613679230213165,-0.0660036951303482,-0.0020141464192420244],"max":[0.06613680720329285,0.06590151786804199,1.4206162632035557e-05],"type":"VEC3","name":"Circle.048_vertices#0_POSITION"},{"bufferView":85,"byteOffset":607008,"componentType":5120,"count":170,"type":"VEC4","name":"Circle.048_vertices#0_TANGENT"},{"bufferView":85,"byteOffset":607012,"componentType":5120,"count":170,"type":"VEC4","name":"Circle.048_vertices#0_NORMAL"},{"bufferView":85,"byteOffset":607016,"componentType":5122,"count":170,"type":"VEC2","name":"Circle.048_vertices#0_TEXCOORD_0"},{"bufferView":85,"byteOffset":607020,"componentType":5122,"count":170,"type":"VEC2","name":"Circle.048_vertices#0_TEXCOORD_1"},{"bufferView":85,"byteOffset":607024,"componentType":5123,"count":170,"type":"VEC4","name":"Circle.048_vertices#0_COLOR_0"},{"bufferView":86,"byteOffset":96738,"componentType":5123,"count":624,"type":"SCALAR","name":"Circle.048_indices#0"},{"bufferView":85,"byteOffset":613116,"componentType":5126,"count":170,"min":[-0.06613679230213165,-0.0660036951303482,-0.0020141464192420244],"max":[0.06613680720329285,0.06590151786804199,1.4206162632035557e-05],"type":"VEC3","name":"Circle.049_vertices#0_POSITION"},{"bufferView":85,"byteOffset":613128,"componentType":5120,"count":170,"type":"VEC4","name":"Circle.049_vertices#0_TANGENT"},{"bufferView":85,"byteOffset":613132,"componentType":5120,"count":170,"type":"VEC4","name":"Circle.049_vertices#0_NORMAL"},{"bufferView":85,"byteOffset":613136,"componentType":5122,"count":170,"type":"VEC2","name":"Circle.049_vertices#0_TEXCOORD_0"},{"bufferView":85,"byteOffset":613140,"componentType":5122,"count":170,"type":"VEC2","name":"Circle.049_vertices#0_TEXCOORD_1"},{"bufferView":85,"byteOffset":613144,"componentType":5123,"count":170,"type":"VEC4","name":"Circle.049_vertices#0_COLOR_0"},{"bufferView":86,"byteOffset":97986,"componentType":5123,"count":624,"type":"SCALAR","name":"Circle.049_indices#0"},{"bufferView":85,"byteOffset":619236,"componentType":5126,"count":3922,"min":[-0.2645284831523895,-0.1458968222141266,-0.28838974237442017],"max":[0.2645284831523895,0.03712787106633186,0.16907988488674164],"type":"VEC3","name":"Circle.682_vertices#0_POSITION"},{"bufferView":85,"byteOffset":619248,"componentType":5120,"count":3922,"type":"VEC4","name":"Circle.682_vertices#0_TANGENT"},{"bufferView":85,"byteOffset":619252,"componentType":5120,"count":3922,"type":"VEC4","name":"Circle.682_vertices#0_NORMAL"},{"bufferView":85,"byteOffset":619256,"componentType":5122,"count":3922,"type":"VEC2","name":"Circle.682_vertices#0_TEXCOORD_0"},{"bufferView":85,"byteOffset":619260,"componentType":5122,"count":3922,"type":"VEC2","name":"Circle.682_vertices#0_TEXCOORD_1"},{"bufferView":85,"byteOffset":619264,"componentType":5123,"count":3922,"type":"VEC4","name":"Circle.682_vertices#0_COLOR_0"},{"bufferView":86,"byteOffset":99234,"componentType":5123,"count":11274,"type":"SCALAR","name":"Circle.682_indices#0"},{"bufferView":85,"byteOffset":760428,"componentType":5126,"count":2822,"min":[-0.2332535982131958,-0.3248346447944641,-0.45193248987197876],"max":[0.2332535982131958,0.48420804738998413,0.2991611361503601],"type":"VEC3","name":"Circle.705_vertices#0_POSITION"},{"bufferView":85,"byteOffset":760440,"componentType":5120,"count":2822,"type":"VEC4","name":"Circle.705_vertices#0_TANGENT"},{"bufferView":85,"byteOffset":760444,"componentType":5120,"count":2822,"type":"VEC4","name":"Circle.705_vertices#0_NORMAL"},{"bufferView":85,"byteOffset":760448,"componentType":5122,"count":2822,"type":"VEC2","name":"Circle.705_vertices#0_TEXCOORD_0"},{"bufferView":85,"byteOffset":760452,"componentType":5122,"count":2822,"type":"VEC2","name":"Circle.705_vertices#0_TEXCOORD_1"},{"bufferView":85,"byteOffset":760456,"componentType":5123,"count":2822,"type":"VEC4","name":"Circle.705_vertices#0_COLOR_0"},{"bufferView":86,"byteOffset":121782,"componentType":5123,"count":9732,"type":"SCALAR","name":"Circle.705_indices#0"},{"bufferView":85,"byteOffset":862020,"componentType":5126,"count":1618,"min":[-0.21157988905906677,-0.23471181094646454,-0.3319653570652008],"max":[0.21157988905906677,0.16391730308532715,0.2134779393672943],"type":"VEC3","name":"Circle.704_vertices#0_POSITION"},{"bufferView":85,"byteOffset":862032,"componentType":5120,"count":1618,"type":"VEC4","name":"Circle.704_vertices#0_TANGENT"},{"bufferView":85,"byteOffset":862036,"componentType":5120,"count":1618,"type":"VEC4","name":"Circle.704_vertices#0_NORMAL"},{"bufferView":85,"byteOffset":862040,"componentType":5122,"count":1618,"type":"VEC2","name":"Circle.704_vertices#0_TEXCOORD_0"},{"bufferView":85,"byteOffset":862044,"componentType":5122,"count":1618,"type":"VEC2","name":"Circle.704_vertices#0_TEXCOORD_1"},{"bufferView":85,"byteOffset":862048,"componentType":5123,"count":1618,"type":"VEC4","name":"Circle.704_vertices#0_COLOR_0"},{"bufferView":86,"byteOffset":141246,"componentType":5123,"count":5472,"type":"SCALAR","name":"Circle.704_indices#0"},{"bufferView":85,"byteOffset":920268,"componentType":5126,"count":2072,"min":[-0.18863444030284882,-1.150517463684082,-0.25606873631477356],"max":[0.18863444030284882,3.829598426818848e-06,0.3785872161388397],"type":"VEC3","name":"Circle.672_vertices#0_POSITION"},{"bufferView":85,"byteOffset":920280,"componentType":5120,"count":2072,"type":"VEC4","name":"Circle.672_vertices#0_TANGENT"},{"bufferView":85,"byteOffset":920284,"componentType":5120,"count":2072,"type":"VEC4","name":"Circle.672_vertices#0_NORMAL"},{"bufferView":85,"byteOffset":920288,"componentType":5122,"count":2072,"type":"VEC2","name":"Circle.672_vertices#0_TEXCOORD_0"},{"bufferView":85,"byteOffset":920292,"componentType":5122,"count":2072,"type":"VEC2","name":"Circle.672_vertices#0_TEXCOORD_1"},{"bufferView":85,"byteOffset":920296,"componentType":5123,"count":2072,"type":"VEC4","name":"Circle.672_vertices#0_COLOR_0"},{"bufferView":86,"byteOffset":152190,"componentType":5123,"count":6990,"type":"SCALAR","name":"Circle.672_indices#0"},{"bufferView":85,"byteOffset":994860,"componentType":5126,"count":32311,"min":[-0.2432747781276703,-0.6796566247940063,-0.6796570420265198],"max":[0.2830861210823059,0.6796566247940063,0.6796570420265198],"type":"VEC3","name":"Cylinder.062_vertices#0_POSITION"},{"bufferView":85,"byteOffset":994872,"componentType":5120,"count":32311,"type":"VEC4","name":"Cylinder.062_vertices#0_TANGENT"},{"bufferView":85,"byteOffset":994876,"componentType":5120,"count":32311,"type":"VEC4","name":"Cylinder.062_vertices#0_NORMAL"},{"bufferView":85,"byteOffset":994880,"componentType":5122,"count":32311,"type":"VEC2","name":"Cylinder.062_vertices#0_TEXCOORD_0"},{"bufferView":85,"byteOffset":994884,"componentType":5122,"count":32311,"type":"VEC2","name":"Cylinder.062_vertices#0_TEXCOORD_1"},{"bufferView":85,"byteOffset":994888,"componentType":5123,"count":32311,"type":"VEC4","name":"Cylinder.062_vertices#0_COLOR_0"},{"bufferView":86,"byteOffset":166170,"componentType":5123,"count":96840,"type":"SCALAR","name":"Cylinder.062_indices#0"},{"bufferView":85,"byteOffset":2158056,"componentType":5126,"count":3889,"min":[-0.7623803615570068,-1.2464858293533325,-0.1896148920059204],"max":[0.7623803615570068,-0.9518547654151917,0.16082538664340973],"type":"VEC3","name":"Circle.215_vertices#0_POSITION"},{"bufferView":85,"byteOffset":2158068,"componentType":5120,"count":3889,"type":"VEC4","name":"Circle.215_vertices#0_TANGENT"},{"bufferView":85,"byteOffset":2158072,"componentType":5120,"count":3889,"type":"VEC4","name":"Circle.215_vertices#0_NORMAL"},{"bufferView":85,"byteOffset":2158076,"componentType":5122,"count":3889,"type":"VEC2","name":"Circle.215_vertices#0_TEXCOORD_0"},{"bufferView":85,"byteOffset":2158080,"componentType":5122,"count":3889,"type":"VEC2","name":"Circle.215_vertices#0_TEXCOORD_1"},{"bufferView":85,"byteOffset":2158084,"componentType":5123,"count":3889,"type":"VEC4","name":"Circle.215_vertices#0_COLOR_0"},{"bufferView":86,"byteOffset":359850,"componentType":5123,"count":15144,"type":"SCALAR","name":"Circle.215_indices#0"},{"bufferView":85,"byteOffset":2298060,"componentType":5126,"count":248,"min":[-0.148609921336174,-1.0083799362182617,0.09227197617292404],"max":[0.148609921336174,-0.9910553693771362,0.15553215146064758],"type":"VEC3","name":"Circle.217_vertices#0_POSITION"},{"bufferView":85,"byteOffset":2298072,"componentType":5120,"count":248,"type":"VEC4","name":"Circle.217_vertices#0_TANGENT"},{"bufferView":85,"byteOffset":2298076,"componentType":5120,"count":248,"type":"VEC4","name":"Circle.217_vertices#0_NORMAL"},{"bufferView":85,"byteOffset":2298080,"componentType":5122,"count":248,"type":"VEC2","name":"Circle.217_vertices#0_TEXCOORD_0"},{"bufferView":85,"byteOffset":2298084,"componentType":5122,"count":248,"type":"VEC2","name":"Circle.217_vertices#0_TEXCOORD_1"},{"bufferView":85,"byteOffset":2298088,"componentType":5123,"count":248,"type":"VEC4","name":"Circle.217_vertices#0_COLOR_0"},{"bufferView":86,"byteOffset":390138,"componentType":5123,"count":660,"type":"SCALAR","name":"Circle.217_indices#0"},{"bufferView":85,"byteOffset":2306988,"componentType":5126,"count":5059,"min":[-0.32261478900909424,-0.0800187885761261,-0.06793621182441711],"max":[0.06128185987472534,0.07331111282110214,0.48374632000923157],"type":"VEC3","name":"Circle.035_vertices#0_POSITION"},{"bufferView":85,"byteOffset":2307000,"componentType":5120,"count":5059,"type":"VEC4","name":"Circle.035_vertices#0_TANGENT"},{"bufferView":85,"byteOffset":2307004,"componentType":5120,"count":5059,"type":"VEC4","name":"Circle.035_vertices#0_NORMAL"},{"bufferView":85,"byteOffset":2307008,"componentType":5122,"count":5059,"type":"VEC2","name":"Circle.035_vertices#0_TEXCOORD_0"},{"bufferView":85,"byteOffset":2307012,"componentType":5122,"count":5059,"type":"VEC2","name":"Circle.035_vertices#0_TEXCOORD_1"},{"bufferView":85,"byteOffset":2307016,"componentType":5123,"count":5059,"type":"VEC4","name":"Circle.035_vertices#0_COLOR_0"},{"bufferView":86,"byteOffset":391458,"componentType":5123,"count":16116,"type":"SCALAR","name":"Circle.035_indices#0"},{"bufferView":85,"byteOffset":2489112,"componentType":5126,"count":374,"min":[-0.11802922934293747,-0.020163118839263916,0.056640155613422394],"max":[0.06951407343149185,0.006376658100634813,0.471719354391098],"type":"VEC3","name":"Circle.220_vertices#0_POSITION"},{"bufferView":85,"byteOffset":2489124,"componentType":5120,"count":374,"type":"VEC4","name":"Circle.220_vertices#0_TANGENT"},{"bufferView":85,"byteOffset":2489128,"componentType":5120,"count":374,"type":"VEC4","name":"Circle.220_vertices#0_NORMAL"},{"bufferView":85,"byteOffset":2489132,"componentType":5122,"count":374,"type":"VEC2","name":"Circle.220_vertices#0_TEXCOORD_0"},{"bufferView":85,"byteOffset":2489136,"componentType":5122,"count":374,"type":"VEC2","name":"Circle.220_vertices#0_TEXCOORD_1"},{"bufferView":85,"byteOffset":2489140,"componentType":5123,"count":374,"type":"VEC4","name":"Circle.220_vertices#0_COLOR_0"},{"bufferView":86,"byteOffset":423690,"componentType":5123,"count":1536,"type":"SCALAR","name":"Circle.220_indices#0"},{"bufferView":85,"byteOffset":2502576,"componentType":5126,"count":5270,"min":[-0.380266010761261,-0.1897120624780655,-0.36641910672187805],"max":[0.1017448902130127,0.19531765580177307,0.1030988097190857],"type":"VEC3","name":"Circle.036_vertices#0_POSITION"},{"bufferView":85,"byteOffset":2502588,"componentType":5120,"count":5270,"type":"VEC4","name":"Circle.036_vertices#0_TANGENT"},{"bufferView":85,"byteOffset":2502592,"componentType":5120,"count":5270,"type":"VEC4","name":"Circle.036_vertices#0_NORMAL"},{"bufferView":85,"byteOffset":2502596,"componentType":5122,"count":5270,"type":"VEC2","name":"Circle.036_vertices#0_TEXCOORD_0"},{"bufferView":85,"byteOffset":2502600,"componentType":5122,"count":5270,"type":"VEC2","name":"Circle.036_vertices#0_TEXCOORD_1"},{"bufferView":85,"byteOffset":2502604,"componentType":5123,"count":5270,"type":"VEC4","name":"Circle.036_vertices#0_COLOR_0"},{"bufferView":86,"byteOffset":426762,"componentType":5123,"count":16068,"type":"SCALAR","name":"Circle.036_indices#0"},{"bufferView":85,"byteOffset":2692296,"componentType":5126,"count":374,"min":[-0.33478453755378723,-0.2021419256925583,-0.31420058012008667],"max":[-0.009207505732774734,-0.07183351367712021,-0.011099575087428093],"type":"VEC3","name":"Circle.221_vertices#0_POSITION"},{"bufferView":85,"byteOffset":2692308,"componentType":5120,"count":374,"type":"VEC4","name":"Circle.221_vertices#0_TANGENT"},{"bufferView":85,"byteOffset":2692312,"componentType":5120,"count":374,"type":"VEC4","name":"Circle.221_vertices#0_NORMAL"},{"bufferView":85,"byteOffset":2692316,"componentType":5122,"count":374,"type":"VEC2","name":"Circle.221_vertices#0_TEXCOORD_0"},{"bufferView":85,"byteOffset":2692320,"componentType":5122,"count":374,"type":"VEC2","name":"Circle.221_vertices#0_TEXCOORD_1"},{"bufferView":85,"byteOffset":2692324,"componentType":5123,"count":374,"type":"VEC4","name":"Circle.221_vertices#0_COLOR_0"},{"bufferView":86,"byteOffset":458898,"componentType":5123,"count":1536,"type":"SCALAR","name":"Circle.221_indices#0"},{"bufferView":85,"byteOffset":2705760,"componentType":5126,"count":1055,"min":[-0.18165254592895508,-0.030924629420042038,-0.03598936274647713],"max":[0.035997748374938965,0.030900994315743446,0.44910159707069397],"type":"VEC3","name":"Circle.037_vertices#0_POSITION"},{"bufferView":85,"byteOffset":2705772,"componentType":5120,"count":1055,"type":"VEC4","name":"Circle.037_vertices#0_TANGENT"},{"bufferView":85,"byteOffset":2705776,"componentType":5120,"count":1055,"type":"VEC4","name":"Circle.037_vertices#0_NORMAL"},{"bufferView":85,"byteOffset":2705780,"componentType":5122,"count":1055,"type":"VEC2","name":"Circle.037_vertices#0_TEXCOORD_0"},{"bufferView":85,"byteOffset":2705784,"componentType":5122,"count":1055,"type":"VEC2","name":"Circle.037_vertices#0_TEXCOORD_1"},{"bufferView":85,"byteOffset":2705788,"componentType":5123,"count":1055,"type":"VEC4","name":"Circle.037_vertices#0_COLOR_0"},{"bufferView":86,"byteOffset":461970,"componentType":5123,"count":3066,"type":"SCALAR","name":"Circle.037_indices#0"},{"bufferView":85,"byteOffset":2743740,"componentType":5126,"count":1048,"min":[-0.03619740530848503,-0.04027559980750084,-0.036836519837379456],"max":[0.15561002492904663,0.03422151133418083,0.4560146927833557],"type":"VEC3","name":"Circle.034_vertices#0_POSITION"},{"bufferView":85,"byteOffset":2743752,"componentType":5120,"count":1048,"type":"VEC4","name":"Circle.034_vertices#0_TANGENT"},{"bufferView":85,"byteOffset":2743756,"componentType":5120,"count":1048,"type":"VEC4","name":"Circle.034_vertices#0_NORMAL"},{"bufferView":85,"byteOffset":2743760,"componentType":5122,"count":1048,"type":"VEC2","name":"Circle.034_vertices#0_TEXCOORD_0"},{"bufferView":85,"byteOffset":2743764,"componentType":5122,"count":1048,"type":"VEC2","name":"Circle.034_vertices#0_TEXCOORD_1"},{"bufferView":85,"byteOffset":2743768,"componentType":5123,"count":1048,"type":"VEC4","name":"Circle.034_vertices#0_COLOR_0"},{"bufferView":86,"byteOffset":468102,"componentType":5123,"count":3066,"type":"SCALAR","name":"Circle.034_indices#0"},{"bufferView":85,"byteOffset":2781468,"componentType":5126,"count":330,"min":[-0.14330315589904785,-0.508499026298523,-0.16769415140151978],"max":[0.14341068267822266,0.5787372589111328,0.16485090553760529],"type":"VEC3","name":"Circle.211_vertices#0_POSITION"},{"bufferView":85,"byteOffset":2781480,"componentType":5120,"count":330,"type":"VEC4","name":"Circle.211_vertices#0_TANGENT"},{"bufferView":85,"byteOffset":2781484,"componentType":5120,"count":330,"type":"VEC4","name":"Circle.211_vertices#0_NORMAL"},{"bufferView":85,"byteOffset":2781488,"componentType":5122,"count":330,"type":"VEC2","name":"Circle.211_vertices#0_TEXCOORD_0"},{"bufferView":85,"byteOffset":2781492,"componentType":5122,"count":330,"type":"VEC2","name":"Circle.211_vertices#0_TEXCOORD_1"},{"bufferView":85,"byteOffset":2781496,"componentType":5123,"count":330,"type":"VEC4","name":"Circle.211_vertices#0_COLOR_0"},{"bufferView":86,"byteOffset":474234,"componentType":5123,"count":1152,"type":"SCALAR","name":"Circle.211_indices#0"},{"bufferView":85,"byteOffset":2793348,"componentType":5126,"count":5680,"min":[-0.7190861105918884,0.291095107793808,-0.2440582811832428],"max":[0.7126258611679077,1.8009421825408936,0.40226826071739197],"type":"VEC3","name":"Circle.219_vertices#0_POSITION"},{"bufferView":85,"byteOffset":2793360,"componentType":5120,"count":5680,"type":"VEC4","name":"Circle.219_vertices#0_TANGENT"},{"bufferView":85,"byteOffset":2793364,"componentType":5120,"count":5680,"type":"VEC4","name":"Circle.219_vertices#0_NORMAL"},{"bufferView":85,"byteOffset":2793368,"componentType":5122,"count":5680,"type":"VEC2","name":"Circle.219_vertices#0_TEXCOORD_0"},{"bufferView":85,"byteOffset":2793372,"componentType":5122,"count":5680,"type":"VEC2","name":"Circle.219_vertices#0_TEXCOORD_1"},{"bufferView":85,"byteOffset":2793376,"componentType":5123,"count":5680,"type":"VEC4","name":"Circle.219_vertices#0_COLOR_0"},{"bufferView":86,"byteOffset":476538,"componentType":5123,"count":18636,"type":"SCALAR","name":"Circle.219_indices#0"},{"bufferView":85,"byteOffset":2997828,"componentType":5126,"count":4692,"min":[-0.3668701648712158,-0.04617917165160179,-0.07215099781751633],"max":[0.3659324645996094,1.129620909690857,0.4592861235141754],"type":"VEC3","name":"Circle.225_vertices#0_POSITION"},{"bufferView":85,"byteOffset":2997840,"componentType":5120,"count":4692,"type":"VEC4","name":"Circle.225_vertices#0_TANGENT"},{"bufferView":85,"byteOffset":2997844,"componentType":5120,"count":4692,"type":"VEC4","name":"Circle.225_vertices#0_NORMAL"},{"bufferView":85,"byteOffset":2997848,"componentType":5122,"count":4692,"type":"VEC2","name":"Circle.225_vertices#0_TEXCOORD_0"},{"bufferView":85,"byteOffset":2997852,"componentType":5122,"count":4692,"type":"VEC2","name":"Circle.225_vertices#0_TEXCOORD_1"},{"bufferView":85,"byteOffset":2997856,"componentType":5123,"count":4692,"type":"VEC4","name":"Circle.225_vertices#0_COLOR_0"},{"bufferView":86,"byteOffset":513810,"componentType":5123,"count":14646,"type":"SCALAR","name":"Circle.225_indices#0"},{"bufferView":85,"byteOffset":3166740,"componentType":5126,"count":858,"min":[-0.3574998378753662,-0.03957207500934601,-0.03661635145545006],"max":[0.35656213760375977,1.1115785837173462,0.4561295807361603],"type":"VEC3","name":"Circle.271_vertices#0_POSITION"},{"bufferView":85,"byteOffset":3166752,"componentType":5120,"count":858,"type":"VEC4","name":"Circle.271_vertices#0_TANGENT"},{"bufferView":85,"byteOffset":3166756,"componentType":5120,"count":858,"type":"VEC4","name":"Circle.271_vertices#0_NORMAL"},{"bufferView":85,"byteOffset":3166760,"componentType":5122,"count":858,"type":"VEC2","name":"Circle.271_vertices#0_TEXCOORD_0"},{"bufferView":85,"byteOffset":3166764,"componentType":5122,"count":858,"type":"VEC2","name":"Circle.271_vertices#0_TEXCOORD_1"},{"bufferView":85,"byteOffset":3166768,"componentType":5123,"count":858,"type":"VEC4","name":"Circle.271_vertices#0_COLOR_0"},{"bufferView":86,"byteOffset":543102,"componentType":5123,"count":3120,"type":"SCALAR","name":"Circle.271_indices#0"},{"bufferView":85,"byteOffset":3197628,"componentType":5126,"count":232,"min":[-0.004117254167795181,-0.00027539225993677974,-0.02990366518497467],"max":[0.004225379787385464,0.00021445972379297018,0.014761662110686302],"type":"VEC3","name":"LIGHT_ASOBO_WingLeft2.001_vertices#0_POSITION"},{"bufferView":85,"byteOffset":3197640,"componentType":5120,"count":232,"type":"VEC4","name":"LIGHT_ASOBO_WingLeft2.001_vertices#0_TANGENT"},{"bufferView":85,"byteOffset":3197644,"componentType":5120,"count":232,"type":"VEC4","name":"LIGHT_ASOBO_WingLeft2.001_vertices#0_NORMAL"},{"bufferView":85,"byteOffset":3197648,"componentType":5122,"count":232,"type":"VEC2","name":"LIGHT_ASOBO_WingLeft2.001_vertices#0_TEXCOORD_0"},{"bufferView":85,"byteOffset":3197652,"componentType":5122,"count":232,"type":"VEC2","name":"LIGHT_ASOBO_WingLeft2.001_vertices#0_TEXCOORD_1"},{"bufferView":85,"byteOffset":3197656,"componentType":5123,"count":232,"type":"VEC4","name":"LIGHT_ASOBO_WingLeft2.001_vertices#0_COLOR_0"},{"bufferView":86,"byteOffset":549342,"componentType":5123,"count":936,"type":"SCALAR","name":"LIGHT_ASOBO_WingLeft2.001_indices#0"},{"bufferView":85,"byteOffset":3205980,"componentType":5126,"count":232,"min":[-0.004117254167795181,-0.00027539225993677974,-0.02990366518497467],"max":[0.004225379787385464,0.00021445972379297018,0.014761662110686302],"type":"VEC3","name":"LIGHT_ASOBO_WingLeft2.002_vertices#0_POSITION"},{"bufferView":85,"byteOffset":3205992,"componentType":5120,"count":232,"type":"VEC4","name":"LIGHT_ASOBO_WingLeft2.002_vertices#0_TANGENT"},{"bufferView":85,"byteOffset":3205996,"componentType":5120,"count":232,"type":"VEC4","name":"LIGHT_ASOBO_WingLeft2.002_vertices#0_NORMAL"},{"bufferView":85,"byteOffset":3206000,"componentType":5122,"count":232,"type":"VEC2","name":"LIGHT_ASOBO_WingLeft2.002_vertices#0_TEXCOORD_0"},{"bufferView":85,"byteOffset":3206004,"componentType":5122,"count":232,"type":"VEC2","name":"LIGHT_ASOBO_WingLeft2.002_vertices#0_TEXCOORD_1"},{"bufferView":85,"byteOffset":3206008,"componentType":5123,"count":232,"type":"VEC4","name":"LIGHT_ASOBO_WingLeft2.002_vertices#0_COLOR_0"},{"bufferView":86,"byteOffset":551214,"componentType":5123,"count":936,"type":"SCALAR","name":"LIGHT_ASOBO_WingLeft2.002_indices#0"},{"bufferView":85,"byteOffset":3214332,"componentType":5126,"count":232,"min":[-0.004117254167795181,-0.00027539225993677974,-0.02990366518497467],"max":[0.004225379787385464,0.00021445972379297018,0.014761662110686302],"type":"VEC3","name":"LIGHT_ASOBO_WingLeft2.003_vertices#0_POSITION"},{"bufferView":85,"byteOffset":3214344,"componentType":5120,"count":232,"type":"VEC4","name":"LIGHT_ASOBO_WingLeft2.003_vertices#0_TANGENT"},{"bufferView":85,"byteOffset":3214348,"componentType":5120,"count":232,"type":"VEC4","name":"LIGHT_ASOBO_WingLeft2.003_vertices#0_NORMAL"},{"bufferView":85,"byteOffset":3214352,"componentType":5122,"count":232,"type":"VEC2","name":"LIGHT_ASOBO_WingLeft2.003_vertices#0_TEXCOORD_0"},{"bufferView":85,"byteOffset":3214356,"componentType":5122,"count":232,"type":"VEC2","name":"LIGHT_ASOBO_WingLeft2.003_vertices#0_TEXCOORD_1"},{"bufferView":85,"byteOffset":3214360,"componentType":5123,"count":232,"type":"VEC4","name":"LIGHT_ASOBO_WingLeft2.003_vertices#0_COLOR_0"},{"bufferView":86,"byteOffset":553086,"componentType":5123,"count":936,"type":"SCALAR","name":"LIGHT_ASOBO_WingLeft2.003_indices#0"},{"bufferView":85,"byteOffset":3222684,"componentType":5126,"count":232,"min":[-0.01925192028284073,-0.00024455785751342773,-0.020174624398350716],"max":[0.016718734055757523,0.0002452731132507324,0.017550455406308174],"type":"VEC3","name":"LIGHT_ASOBO_WingLeft2.004_vertices#0_POSITION"},{"bufferView":85,"byteOffset":3222696,"componentType":5120,"count":232,"type":"VEC4","name":"LIGHT_ASOBO_WingLeft2.004_vertices#0_TANGENT"},{"bufferView":85,"byteOffset":3222700,"componentType":5120,"count":232,"type":"VEC4","name":"LIGHT_ASOBO_WingLeft2.004_vertices#0_NORMAL"},{"bufferView":85,"byteOffset":3222704,"componentType":5122,"count":232,"type":"VEC2","name":"LIGHT_ASOBO_WingLeft2.004_vertices#0_TEXCOORD_0"},{"bufferView":85,"byteOffset":3222708,"componentType":5122,"count":232,"type":"VEC2","name":"LIGHT_ASOBO_WingLeft2.004_vertices#0_TEXCOORD_1"},{"bufferView":85,"byteOffset":3222712,"componentType":5123,"count":232,"type":"VEC4","name":"LIGHT_ASOBO_WingLeft2.004_vertices#0_COLOR_0"},{"bufferView":86,"byteOffset":554958,"componentType":5123,"count":936,"type":"SCALAR","name":"LIGHT_ASOBO_WingLeft2.004_indices#0"},{"bufferView":85,"byteOffset":3231036,"componentType":5126,"count":232,"min":[-0.016304947435855865,-0.0002449183084536344,-0.02063855715095997],"max":[0.01872071623802185,0.0002449126332066953,0.017910074442625046],"type":"VEC3","name":"LIGHT_ASOBO_WingLeft2.005_vertices#0_POSITION"},{"bufferView":85,"byteOffset":3231048,"componentType":5120,"count":232,"type":"VEC4","name":"LIGHT_ASOBO_WingLeft2.005_vertices#0_TANGENT"},{"bufferView":85,"byteOffset":3231052,"componentType":5120,"count":232,"type":"VEC4","name":"LIGHT_ASOBO_WingLeft2.005_vertices#0_NORMAL"},{"bufferView":85,"byteOffset":3231056,"componentType":5122,"count":232,"type":"VEC2","name":"LIGHT_ASOBO_WingLeft2.005_vertices#0_TEXCOORD_0"},{"bufferView":85,"byteOffset":3231060,"componentType":5122,"count":232,"type":"VEC2","name":"LIGHT_ASOBO_WingLeft2.005_vertices#0_TEXCOORD_1"},{"bufferView":85,"byteOffset":3231064,"componentType":5123,"count":232,"type":"VEC4","name":"LIGHT_ASOBO_WingLeft2.005_vertices#0_COLOR_0"},{"bufferView":86,"byteOffset":556830,"componentType":5123,"count":936,"type":"SCALAR","name":"LIGHT_ASOBO_WingLeft2.005_indices#0"},{"bufferView":85,"byteOffset":3239388,"componentType":5126,"count":1871,"min":[-0.35572171211242676,-0.06328105181455612,0.0265954602509737],"max":[0.35477808117866516,1.1416335105895996,0.45749717950820923],"type":"VEC3","name":"Circle.272_vertices#0_POSITION"},{"bufferView":85,"byteOffset":3239400,"componentType":5120,"count":1871,"type":"VEC4","name":"Circle.272_vertices#0_TANGENT"},{"bufferView":85,"byteOffset":3239404,"componentType":5120,"count":1871,"type":"VEC4","name":"Circle.272_vertices#0_NORMAL"},{"bufferView":85,"byteOffset":3239408,"componentType":5122,"count":1871,"type":"VEC2","name":"Circle.272_vertices#0_TEXCOORD_0"},{"bufferView":85,"byteOffset":3239412,"componentType":5122,"count":1871,"type":"VEC2","name":"Circle.272_vertices#0_TEXCOORD_1"},{"bufferView":85,"byteOffset":3239416,"componentType":5123,"count":1871,"type":"VEC4","name":"Circle.272_vertices#0_COLOR_0"},{"bufferView":86,"byteOffset":558702,"componentType":5123,"count":4776,"type":"SCALAR","name":"Circle.272_indices#0"},{"bufferView":85,"byteOffset":3306744,"componentType":5126,"count":401,"min":[-0.027336955070495605,-0.2017853707075119,-0.1560739278793335],"max":[0.030280616134405136,0.5333673357963562,0.3355875313282013],"type":"VEC3","name":"Circle.125_vertices#0_POSITION"},{"bufferView":85,"byteOffset":3306756,"componentType":5120,"count":401,"type":"VEC4","name":"Circle.125_vertices#0_TANGENT"},{"bufferView":85,"byteOffset":3306760,"componentType":5120,"count":401,"type":"VEC4","name":"Circle.125_vertices#0_NORMAL"},{"bufferView":85,"byteOffset":3306764,"componentType":5122,"count":401,"type":"VEC2","name":"Circle.125_vertices#0_TEXCOORD_0"},{"bufferView":85,"byteOffset":3306768,"componentType":5122,"count":401,"type":"VEC2","name":"Circle.125_vertices#0_TEXCOORD_1"},{"bufferView":85,"byteOffset":3306772,"componentType":5123,"count":401,"type":"VEC4","name":"Circle.125_vertices#0_COLOR_0"},{"bufferView":86,"byteOffset":568254,"componentType":5123,"count":1278,"type":"SCALAR","name":"Circle.125_indices#0"},{"bufferView":85,"byteOffset":3321180,"componentType":5126,"count":510,"min":[-0.1940898299217224,0.5290797352790833,0.16261127591133118],"max":[0.1940898299217224,1.026277780532837,0.4027886986732483],"type":"VEC3","name":"Circle.127_vertices#0_POSITION"},{"bufferView":85,"byteOffset":3321192,"componentType":5120,"count":510,"type":"VEC4","name":"Circle.127_vertices#0_TANGENT"},{"bufferView":85,"byteOffset":3321196,"componentType":5120,"count":510,"type":"VEC4","name":"Circle.127_vertices#0_NORMAL"},{"bufferView":85,"byteOffset":3321200,"componentType":5122,"count":510,"type":"VEC2","name":"Circle.127_vertices#0_TEXCOORD_0"},{"bufferView":85,"byteOffset":3321204,"componentType":5122,"count":510,"type":"VEC2","name":"Circle.127_vertices#0_TEXCOORD_1"},{"bufferView":85,"byteOffset":3321208,"componentType":5123,"count":510,"type":"VEC4","name":"Circle.127_vertices#0_COLOR_0"},{"bufferView":86,"byteOffset":570810,"componentType":5123,"count":1140,"type":"SCALAR","name":"Circle.127_indices#0"},{"bufferView":85,"byteOffset":3339540,"componentType":5126,"count":755,"min":[-0.1824193298816681,0.7878420948982239,0.27836844325065613],"max":[0.1824193298816681,1.3238178491592407,0.5251586437225342],"type":"VEC3","name":"Circle.126_vertices#0_POSITION"},{"bufferView":85,"byteOffset":3339552,"componentType":5120,"count":755,"type":"VEC4","name":"Circle.126_vertices#0_TANGENT"},{"bufferView":85,"byteOffset":3339556,"componentType":5120,"count":755,"type":"VEC4","name":"Circle.126_vertices#0_NORMAL"},{"bufferView":85,"byteOffset":3339560,"componentType":5122,"count":755,"type":"VEC2","name":"Circle.126_vertices#0_TEXCOORD_0"},{"bufferView":85,"byteOffset":3339564,"componentType":5122,"count":755,"type":"VEC2","name":"Circle.126_vertices#0_TEXCOORD_1"},{"bufferView":85,"byteOffset":3339568,"componentType":5123,"count":755,"type":"VEC4","name":"Circle.126_vertices#0_COLOR_0"},{"bufferView":86,"byteOffset":573090,"componentType":5123,"count":1908,"type":"SCALAR","name":"Circle.126_indices#0"},{"bufferView":85,"byteOffset":3366720,"componentType":5126,"count":24,"min":[-143.17308044433594,-1.4988740682601929,-143.17308044433594],"max":[143.17308044433594,1.4988740682601929,143.17308044433594],"type":"VEC3","name":"Cube.009_vertices#0_POSITION"},{"bufferView":85,"byteOffset":3366732,"componentType":5120,"count":24,"type":"VEC4","name":"Cube.009_vertices#0_TANGENT"},{"bufferView":85,"byteOffset":3366736,"componentType":5120,"count":24,"type":"VEC4","name":"Cube.009_vertices#0_NORMAL"},{"bufferView":85,"byteOffset":3366740,"componentType":5122,"count":24,"type":"VEC2","name":"Cube.009_vertices#0_TEXCOORD_0"},{"bufferView":85,"byteOffset":3366744,"componentType":5122,"count":24,"type":"VEC2","name":"Cube.009_vertices#0_TEXCOORD_1"},{"bufferView":85,"byteOffset":3366748,"componentType":5123,"count":24,"type":"VEC4","name":"Cube.009_vertices#0_COLOR_0"},{"bufferView":86,"byteOffset":576906,"componentType":5123,"count":36,"type":"SCALAR","name":"Cube.009_indices#0"},{"bufferView":85,"byteOffset":3367584,"componentType":5126,"count":1768,"min":[-2.190873861312866,-1.9344444274902344,-2.166019916534424],"max":[2.190873861312866,2.6726181507110596,0.36038485169410706],"type":"VEC3","name":"Plane.081_vertices#0_POSITION"},{"bufferView":85,"byteOffset":3367596,"componentType":5120,"count":1768,"type":"VEC4","name":"Plane.081_vertices#0_TANGENT"},{"bufferView":85,"byteOffset":3367600,"componentType":5120,"count":1768,"type":"VEC4","name":"Plane.081_vertices#0_NORMAL"},{"bufferView":85,"byteOffset":3367604,"componentType":5122,"count":1768,"type":"VEC2","name":"Plane.081_vertices#0_TEXCOORD_0"},{"bufferView":85,"byteOffset":3367608,"componentType":5122,"count":1768,"type":"VEC2","name":"Plane.081_vertices#0_TEXCOORD_1"},{"bufferView":85,"byteOffset":3367612,"componentType":5123,"count":1768,"type":"VEC4","name":"Plane.081_vertices#0_COLOR_0"},{"bufferView":86,"byteOffset":576978,"componentType":5123,"count":3486,"type":"SCALAR","name":"Plane.081_indices#0"}],"animations":[{"name":"c_gear","channels":[{"sampler":0,"target":{"node":4,"path":"translation"}},{"sampler":1,"target":{"node":4,"path":"rotation"}},{"sampler":2,"target":{"node":4,"path":"scale"}},{"sampler":3,"target":{"node":1,"path":"translation"}},{"sampler":4,"target":{"node":1,"path":"rotation"}},{"sampler":5,"target":{"node":1,"path":"scale"}},{"sampler":6,"target":{"node":6,"path":"translation"}},{"sampler":7,"target":{"node":6,"path":"rotation"}},{"sampler":8,"target":{"node":6,"path":"scale"}},{"sampler":9,"target":{"node":5,"path":"translation"}},{"sampler":10,"target":{"node":5,"path":"rotation"}},{"sampler":11,"target":{"node":5,"path":"scale"}},{"sampler":12,"target":{"node":52,"path":"translation"}},{"sampler":13,"target":{"node":52,"path":"rotation"}},{"sampler":14,"target":{"node":52,"path":"scale"}},{"sampler":15,"target":{"node":53,"path":"translation"}},{"sampler":16,"target":{"node":53,"path":"rotation"}},{"sampler":17,"target":{"node":53,"path":"scale"}},{"sampler":18,"target":{"node":54,"path":"translation"}},{"sampler":19,"target":{"node":54,"path":"rotation"}},{"sampler":20,"target":{"node":54,"path":"scale"}},{"sampler":21,"target":{"node":56,"path":"translation"}},{"sampler":22,"target":{"node":56,"path":"rotation"}},{"sampler":23,"target":{"node":56,"path":"scale"}},{"sampler":24,"target":{"node":58,"path":"translation"}},{"sampler":25,"target":{"node":58,"path":"rotation"}},{"sampler":26,"target":{"node":58,"path":"scale"}},{"sampler":27,"target":{"node":60,"path":"translation"}},{"sampler":28,"target":{"node":60,"path":"rotation"}},{"sampler":29,"target":{"node":60,"path":"scale"}},{"sampler":30,"target":{"node":61,"path":"translation"}},{"sampler":31,"target":{"node":61,"path":"rotation"}},{"sampler":32,"target":{"node":61,"path":"scale"}}],"samplers":[{"input":0,"output":1,"interpolation":"STEP"},{"input":2,"output":3,"interpolation":"LINEAR"},{"input":0,"output":4,"interpolation":"STEP"},{"input":0,"output":5,"interpolation":"STEP"},{"input":2,"output":6,"interpolation":"LINEAR"},{"input":0,"output":7,"interpolation":"STEP"},{"input":2,"output":8,"interpolation":"LINEAR"},{"input":2,"output":9,"interpolation":"LINEAR"},{"input":0,"output":10,"interpolation":"STEP"},{"input":0,"output":11,"interpolation":"STEP"},{"input":2,"output":12,"interpolation":"LINEAR"},{"input":0,"output":13,"interpolation":"STEP"},{"input":0,"output":14,"interpolation":"STEP"},{"input":2,"output":15,"interpolation":"LINEAR"},{"input":0,"output":16,"interpolation":"STEP"},{"input":2,"output":17,"interpolation":"LINEAR"},{"input":2,"output":18,"interpolation":"LINEAR"},{"input":0,"output":19,"interpolation":"STEP"},{"input":0,"output":20,"interpolation":"STEP"},{"input":2,"output":21,"interpolation":"LINEAR"},{"input":0,"output":22,"interpolation":"STEP"},{"input":2,"output":23,"interpolation":"LINEAR"},{"input":2,"output":24,"interpolation":"LINEAR"},{"input":0,"output":25,"interpolation":"STEP"},{"input":2,"output":26,"interpolation":"LINEAR"},{"input":2,"output":27,"interpolation":"LINEAR"},{"input":0,"output":28,"interpolation":"STEP"},{"input":2,"output":29,"interpolation":"LINEAR"},{"input":2,"output":30,"interpolation":"LINEAR"},{"input":0,"output":31,"interpolation":"STEP"},{"input":0,"output":32,"interpolation":"STEP"},{"input":0,"output":33,"interpolation":"STEP"},{"input":0,"output":34,"interpolation":"STEP"}]},{"name":"c_wheel","channels":[{"sampler":0,"target":{"node":29,"path":"translation"}},{"sampler":1,"target":{"node":29,"path":"rotation"}},{"sampler":2,"target":{"node":29,"path":"scale"}},{"sampler":3,"target":{"node":32,"path":"translation"}},{"sampler":4,"target":{"node":32,"path":"rotation"}},{"sampler":5,"target":{"node":32,"path":"scale"}},{"sampler":6,"target":{"node":35,"path":"translation"}},{"sampler":7,"target":{"node":35,"path":"rotation"}},{"sampler":8,"target":{"node":35,"path":"scale"}},{"sampler":9,"target":{"node":37,"path":"translation"}},{"sampler":10,"target":{"node":37,"path":"rotation"}},{"sampler":11,"target":{"node":37,"path":"scale"}},{"sampler":12,"target":{"node":39,"path":"translation"}},{"sampler":13,"target":{"node":39,"path":"rotation"}},{"sampler":14,"target":{"node":39,"path":"scale"}},{"sampler":15,"target":{"node":40,"path":"translation"}},{"sampler":16,"target":{"node":40,"path":"rotation"}},{"sampler":17,"target":{"node":40,"path":"scale"}}],"samplers":[{"input":35,"output":36,"interpolation":"STEP"},{"input":37,"output":38,"interpolation":"LINEAR"},{"input":35,"output":39,"interpolation":"STEP"},{"input":35,"output":40,"interpolation":"STEP"},{"input":37,"output":41,"interpolation":"LINEAR"},{"input":35,"output":42,"interpolation":"STEP"},{"input":35,"output":43,"interpolation":"STEP"},{"input":37,"output":44,"interpolation":"LINEAR"},{"input":35,"output":45,"interpolation":"STEP"},{"input":37,"output":46,"interpolation":"LINEAR"},{"input":37,"output":47,"interpolation":"LINEAR"},{"input":35,"output":48,"interpolation":"STEP"},{"input":37,"output":49,"interpolation":"LINEAR"},{"input":37,"output":50,"interpolation":"LINEAR"},{"input":35,"output":51,"interpolation":"STEP"},{"input":35,"output":52,"interpolation":"STEP"},{"input":35,"output":53,"interpolation":"STEP"},{"input":35,"output":54,"interpolation":"STEP"}]},{"name":"c_gear_comp","channels":[{"sampler":0,"target":{"node":15,"path":"translation"}},{"sampler":1,"target":{"node":15,"path":"rotation"}},{"sampler":2,"target":{"node":15,"path":"scale"}},{"sampler":3,"target":{"node":13,"path":"translation"}},{"sampler":4,"target":{"node":13,"path":"rotation"}},{"sampler":5,"target":{"node":13,"path":"scale"}},{"sampler":6,"target":{"node":25,"path":"translation"}},{"sampler":7,"target":{"node":25,"path":"rotation"}},{"sampler":8,"target":{"node":25,"path":"scale"}},{"sampler":9,"target":{"node":26,"path":"translation"}},{"sampler":10,"target":{"node":26,"path":"rotation"}},{"sampler":11,"target":{"node":26,"path":"scale"}},{"sampler":12,"target":{"node":27,"path":"translation"}},{"sampler":13,"target":{"node":27,"path":"rotation"}},{"sampler":14,"target":{"node":27,"path":"scale"}}],"samplers":[{"input":55,"output":56,"interpolation":"STEP"},{"input":57,"output":58,"interpolation":"LINEAR"},{"input":55,"output":59,"interpolation":"STEP"},{"input":55,"output":60,"interpolation":"STEP"},{"input":57,"output":61,"interpolation":"LINEAR"},{"input":55,"output":62,"interpolation":"STEP"},{"input":57,"output":63,"interpolation":"LINEAR"},{"input":55,"output":64,"interpolation":"STEP"},{"input":55,"output":34,"interpolation":"STEP"},{"input":57,"output":65,"interpolation":"LINEAR"},{"input":55,"output":66,"interpolation":"STEP"},{"input":55,"output":67,"interpolation":"STEP"},{"input":55,"output":68,"interpolation":"STEP"},{"input":55,"output":69,"interpolation":"STEP"},{"input":55,"output":70,"interpolation":"STEP"}]},{"name":"c_tire_anim_LH","channels":[{"sampler":0,"target":{"node":17,"path":"translation"}},{"sampler":1,"target":{"node":17,"path":"rotation"}},{"sampler":2,"target":{"node":17,"path":"scale"}},{"sampler":3,"target":{"node":18,"path":"translation"}},{"sampler":4,"target":{"node":18,"path":"rotation"}},{"sampler":5,"target":{"node":18,"path":"scale"}}],"samplers":[{"input":71,"output":72,"interpolation":"STEP"},{"input":73,"output":74,"interpolation":"LINEAR"},{"input":71,"output":75,"interpolation":"STEP"},{"input":71,"output":76,"interpolation":"STEP"},{"input":71,"output":77,"interpolation":"STEP"},{"input":71,"output":78,"interpolation":"STEP"}]},{"name":"c_tire_anim_RH","channels":[{"sampler":0,"target":{"node":20,"path":"translation"}},{"sampler":1,"target":{"node":20,"path":"rotation"}},{"sampler":2,"target":{"node":20,"path":"scale"}},{"sampler":3,"target":{"node":21,"path":"translation"}},{"sampler":4,"target":{"node":21,"path":"rotation"}},{"sampler":5,"target":{"node":21,"path":"scale"}}],"samplers":[{"input":71,"output":79,"interpolation":"STEP"},{"input":73,"output":74,"interpolation":"LINEAR"},{"input":71,"output":75,"interpolation":"STEP"},{"input":71,"output":76,"interpolation":"STEP"},{"input":71,"output":77,"interpolation":"STEP"},{"input":71,"output":78,"interpolation":"STEP"}]}],"asset":{"generator":"Khronos glTF Blender I/O v4.5.51 and Asobo Studio MSFS2024 Blender I/O v6.4.9 with Blender v4.5.10","version":"2.0","extensions":{"ASOBO_asset_optimized":{"BoundingBoxMax":[143.33175659179688,1.069473147392273,173.45193481445312],"BoundingBoxMin":[-143.014404296875,-4.22598934173584,-112.89423370361328],"MajorVersion":4,"MinorVersion":7,"UseCheckerboardMaterialForMissingTextures":true,"UseOnlyFilenameForImageURI":true},"ASOBO_normal_map_convention":{"tangent_space_convention":"DirectX"}}},"bufferViews":[{"buffer":0,"byteLength":8},{"buffer":0,"byteLength":24,"byteOffset":8},{"buffer":0,"byteLength":108,"byteOffset":32},{"buffer":0,"byteLength":432,"byteOffset":140},{"buffer":0,"byteLength":24,"byteOffset":572},{"buffer":0,"byteLength":24,"byteOffset":596},{"buffer":0,"byteLength":432,"byteOffset":620},{"buffer":0,"byteLength":24,"byteOffset":1052},{"buffer":0,"byteLength":324,"byteOffset":1076},{"buffer":0,"byteLength":432,"byteOffset":1400},{"buffer":0,"byteLength":24,"byteOffset":1832},{"buffer":0,"byteLength":24,"byteOffset":1856},{"buffer":0,"byteLength":432,"byteOffset":1880},{"buffer":0,"byteLength":24,"byteOffset":2312},{"buffer":0,"byteLength":24,"byteOffset":2336},{"buffer":0,"byteLength":432,"byteOffset":2360},{"buffer":0,"byteLength":24,"byteOffset":2792},{"buffer":0,"byteLength":324,"byteOffset":2816},{"buffer":0,"byteLength":432,"byteOffset":3140},{"buffer":0,"byteLength":24,"byteOffset":3572},{"buffer":0,"byteLength":24,"byteOffset":3596},{"buffer":0,"byteLength":432,"byteOffset":3620},{"buffer":0,"byteLength":24,"byteOffset":4052},{"buffer":0,"byteLength":324,"byteOffset":4076},{"buffer":0,"byteLength":432,"byteOffset":4400},{"buffer":0,"byteLength":24,"byteOffset":4832},{"buffer":0,"byteLength":324,"byteOffset":4856},{"buffer":0,"byteLength":432,"byteOffset":5180},{"buffer":0,"byteLength":24,"byteOffset":5612},{"buffer":0,"byteLength":324,"byteOffset":5636},{"buffer":0,"byteLength":432,"byteOffset":5960},{"buffer":0,"byteLength":24,"byteOffset":6392},{"buffer":0,"byteLength":24,"byteOffset":6416},{"buffer":0,"byteLength":32,"byteOffset":6440},{"buffer":0,"byteLength":24,"byteOffset":6472},{"buffer":0,"byteLength":8,"byteOffset":6496},{"buffer":0,"byteLength":24,"byteOffset":6504},{"buffer":0,"byteLength":164,"byteOffset":6528},{"buffer":0,"byteLength":656,"byteOffset":6692},{"buffer":0,"byteLength":24,"byteOffset":7348},{"buffer":0,"byteLength":24,"byteOffset":7372},{"buffer":0,"byteLength":656,"byteOffset":7396},{"buffer":0,"byteLength":24,"byteOffset":8052},{"buffer":0,"byteLength":24,"byteOffset":8076},{"buffer":0,"byteLength":656,"byteOffset":8100},{"buffer":0,"byteLength":24,"byteOffset":8756},{"buffer":0,"byteLength":492,"byteOffset":8780},{"buffer":0,"byteLength":656,"byteOffset":9272},{"buffer":0,"byteLength":24,"byteOffset":9928},{"buffer":0,"byteLength":492,"byteOffset":9952},{"buffer":0,"byteLength":656,"byteOffset":10444},{"buffer":0,"byteLength":24,"byteOffset":11100},{"buffer":0,"byteLength":24,"byteOffset":11124},{"buffer":0,"byteLength":32,"byteOffset":11148},{"buffer":0,"byteLength":24,"byteOffset":11180},{"buffer":0,"byteLength":8,"byteOffset":11204},{"buffer":0,"byteLength":24,"byteOffset":11212},{"buffer":0,"byteLength":40,"byteOffset":11236},{"buffer":0,"byteLength":160,"byteOffset":11276},{"buffer":0,"byteLength":24,"byteOffset":11436},{"buffer":0,"byteLength":24,"byteOffset":11460},{"buffer":0,"byteLength":160,"byteOffset":11484},{"buffer":0,"byteLength":24,"byteOffset":11644},{"buffer":0,"byteLength":120,"byteOffset":11668},{"buffer":0,"byteLength":32,"byteOffset":11788},{"buffer":0,"byteLength":120,"byteOffset":11820},{"buffer":0,"byteLength":32,"byteOffset":11940},{"buffer":0,"byteLength":24,"byteOffset":11972},{"buffer":0,"byteLength":24,"byteOffset":11996},{"buffer":0,"byteLength":32,"byteOffset":12020},{"buffer":0,"byteLength":24,"byteOffset":12052},{"buffer":0,"byteLength":8,"byteOffset":12076},{"buffer":0,"byteLength":24,"byteOffset":12084},{"buffer":0,"byteLength":804,"byteOffset":12108},{"buffer":0,"byteLength":3216,"byteOffset":12912},{"buffer":0,"byteLength":24,"byteOffset":16128},{"buffer":0,"byteLength":24,"byteOffset":16152},{"buffer":0,"byteLength":32,"byteOffset":16176},{"buffer":0,"byteLength":24,"byteOffset":16208},{"buffer":0,"byteLength":24,"byteOffset":16232},{"buffer":0,"byteLength":640,"byteOffset":16256},{"buffer":0,"byteLength":320,"byteOffset":16896},{"buffer":0,"byteLength":256,"byteOffset":17216},{"buffer":0,"byteLength":64,"byteOffset":17472},{"buffer":0,"byteLength":64,"byteOffset":17536},{"buffer":0,"byteLength":3431232,"byteStride":36,"byteOffset":17600,"target":34962,"name":"BufferViewVertexND"},{"buffer":0,"byteLength":583950,"byteOffset":3448832,"target":34963,"name":"BufferViewIndexU16"}],"extensionsRequired":["MSFT_texture_dds"],"materials":[{"name":"A380_EXTERIOR_NLG","normalTexture":{"index":0},"pbrMetallicRoughness":{"baseColorTexture":{"index":2},"metallicRoughnessTexture":{"index":1}}},{"name":"A380X_LIGHT_GLASS","alphaMode":"BLEND","normalTexture":{"index":3},"pbrMetallicRoughness":{"baseColorTexture":{"index":5},"metallicRoughnessTexture":{"index":4}},"extensions":{"ASOBO_material_draw_order":{"drawOrderOffset":5}}},{"name":"A380_EXTERIOR_TYRES","normalTexture":{"index":6},"pbrMetallicRoughness":{"baseColorTexture":{"index":8},"metallicRoughnessTexture":{"index":7}}},{"name":"A380X_ACCESSORIES","normalTexture":{"index":10},"emissiveTexture":{"index":9},"pbrMetallicRoughness":{"baseColorTexture":{"index":12},"metallicRoughnessTexture":{"index":11}}},{"name":"Material.001","extensions":{"ASOBO_material_invisible":{}}},{"name":"A380X_LG_BAY"}],"meshes":[{"primitives":[{"attributes":{"COLOR_0":90,"NORMAL":87,"POSITION":85,"TANGENT":86,"TEXCOORD_0":88,"TEXCOORD_1":89},"indices":91,"material":0,"mode":4,"extras":{"ASOBO_primitive":{"PrimitiveCount":988,"UV2Length":0.7027649879455566,"UVLength":0.7027649879455566,"VertexCount":952,"VertexType":"VTX","VertexVersion":2}}}],"name":"Circle.714"},{"primitives":[{"attributes":{"COLOR_0":104,"NORMAL":101,"POSITION":99,"TANGENT":100,"TEXCOORD_0":102,"TEXCOORD_1":103},"indices":105,"material":0,"mode":4,"extras":{"ASOBO_primitive":{"PrimitiveCount":1234,"UV2Length":0.6864098310470581,"UVLength":0.6864098310470581,"VertexCount":1338,"VertexType":"VTX","VertexVersion":2}}}],"name":"Circle.051"},{"primitives":[{"attributes":{"COLOR_0":97,"NORMAL":94,"POSITION":92,"TANGENT":93,"TEXCOORD_0":95,"TEXCOORD_1":96},"indices":98,"material":0,"mode":4,"extras":{"ASOBO_primitive":{"PrimitiveCount":3428,"UV2Length":0.7059021592140198,"UVLength":0.7059021592140198,"VertexCount":3402,"VertexType":"VTX","VertexVersion":2}}}],"name":"Circle.700"},{"primitives":[{"attributes":{"COLOR_0":118,"NORMAL":115,"POSITION":113,"TANGENT":114,"TEXCOORD_0":116,"TEXCOORD_1":117},"indices":119,"material":1,"mode":4,"extras":{"ASOBO_primitive":{"PrimitiveCount":208,"UV2Length":0.05239775404334068,"UVLength":0.05239775404334068,"VertexCount":170,"VertexType":"VTX","VertexVersion":2}}}],"name":"Circle.044"},{"primitives":[{"attributes":{"COLOR_0":125,"NORMAL":122,"POSITION":120,"TANGENT":121,"TEXCOORD_0":123,"TEXCOORD_1":124},"indices":126,"material":1,"mode":4,"extras":{"ASOBO_primitive":{"PrimitiveCount":208,"UV2Length":0.0523979626595974,"UVLength":0.0523979626595974,"VertexCount":170,"VertexType":"VTX","VertexVersion":2}}}],"name":"Circle.046"},{"primitives":[{"attributes":{"COLOR_0":132,"NORMAL":129,"POSITION":127,"TANGENT":128,"TEXCOORD_0":130,"TEXCOORD_1":131},"indices":133,"material":1,"mode":4,"extras":{"ASOBO_primitive":{"PrimitiveCount":208,"UV2Length":0.05239804834127426,"UVLength":0.05239804834127426,"VertexCount":170,"VertexType":"VTX","VertexVersion":2}}}],"name":"Circle.047"},{"primitives":[{"attributes":{"COLOR_0":139,"NORMAL":136,"POSITION":134,"TANGENT":135,"TEXCOORD_0":137,"TEXCOORD_1":138},"indices":140,"material":1,"mode":4,"extras":{"ASOBO_primitive":{"PrimitiveCount":208,"UV2Length":0.052397459745407104,"UVLength":0.052397459745407104,"VertexCount":170,"VertexType":"VTX","VertexVersion":2}}}],"name":"Circle.048"},{"primitives":[{"attributes":{"COLOR_0":146,"NORMAL":143,"POSITION":141,"TANGENT":142,"TEXCOORD_0":144,"TEXCOORD_1":145},"indices":147,"material":1,"mode":4,"extras":{"ASOBO_primitive":{"PrimitiveCount":208,"UV2Length":0.05239724740386009,"UVLength":0.05239724740386009,"VertexCount":170,"VertexType":"VTX","VertexVersion":2}}}],"name":"Circle.049"},{"primitives":[{"attributes":{"COLOR_0":160,"NORMAL":157,"POSITION":155,"TANGENT":156,"TEXCOORD_0":158,"TEXCOORD_1":159},"indices":161,"material":0,"mode":4,"extras":{"ASOBO_primitive":{"PrimitiveCount":3244,"UV2Length":0.7047005891799927,"UVLength":0.7047005891799927,"VertexCount":2822,"VertexType":"VTX","VertexVersion":2}}}],"name":"Circle.705"},{"primitives":[{"attributes":{"COLOR_0":167,"NORMAL":164,"POSITION":162,"TANGENT":163,"TEXCOORD_0":165,"TEXCOORD_1":166},"indices":168,"material":0,"mode":4,"extras":{"ASOBO_primitive":{"PrimitiveCount":1824,"UV2Length":0.6899183988571167,"UVLength":0.6899183988571167,"VertexCount":1618,"VertexType":"VTX","VertexVersion":2}}}],"name":"Circle.704"},{"primitives":[{"attributes":{"COLOR_0":181,"NORMAL":178,"POSITION":176,"TANGENT":177,"TEXCOORD_0":179,"TEXCOORD_1":180},"indices":182,"material":2,"mode":4,"extras":{"ASOBO_primitive":{"PrimitiveCount":32280,"UV2Length":0.6779252290725708,"UVLength":0.6779252290725708,"VertexCount":32311,"VertexType":"VTX","VertexVersion":2}}}],"name":"Cylinder.062"},{"primitives":[{"attributes":{"COLOR_0":174,"NORMAL":171,"POSITION":169,"TANGENT":170,"TEXCOORD_0":172,"TEXCOORD_1":173},"indices":175,"material":0,"mode":4,"extras":{"ASOBO_primitive":{"PrimitiveCount":2330,"UV2Length":0.6982861757278442,"UVLength":0.6982861757278442,"VertexCount":2072,"VertexType":"VTX","VertexVersion":2}}}],"name":"Circle.672"},{"primitives":[{"attributes":{"COLOR_0":188,"NORMAL":185,"POSITION":183,"TANGENT":184,"TEXCOORD_0":186,"TEXCOORD_1":187},"indices":189,"material":0,"mode":4,"extras":{"ASOBO_primitive":{"PrimitiveCount":5048,"UV2Length":0.68514484167099,"UVLength":0.68514484167099,"VertexCount":3889,"VertexType":"VTX","VertexVersion":2}}}],"name":"Circle.215"},{"primitives":[{"attributes":{"COLOR_0":195,"NORMAL":192,"POSITION":190,"TANGENT":191,"TEXCOORD_0":193,"TEXCOORD_1":194},"indices":196,"material":0,"mode":4,"extras":{"ASOBO_primitive":{"PrimitiveCount":220,"UV2Length":0.5406543612480164,"UVLength":0.5406543612480164,"VertexCount":248,"VertexType":"VTX","VertexVersion":2}}}],"name":"Circle.217"},{"primitives":[{"attributes":{"COLOR_0":153,"NORMAL":150,"POSITION":148,"TANGENT":149,"TEXCOORD_0":151,"TEXCOORD_1":152},"indices":154,"material":0,"mode":4,"extras":{"ASOBO_primitive":{"PrimitiveCount":3758,"UV2Length":0.7053776979446411,"UVLength":0.7053776979446411,"VertexCount":3922,"VertexType":"VTX","VertexVersion":2}}}],"name":"Circle.682"},{"primitives":[{"attributes":{"COLOR_0":202,"NORMAL":199,"POSITION":197,"TANGENT":198,"TEXCOORD_0":200,"TEXCOORD_1":201},"indices":203,"material":0,"mode":4,"extras":{"ASOBO_primitive":{"PrimitiveCount":5372,"UV2Length":0.6949927806854248,"UVLength":0.6949927806854248,"VertexCount":5059,"VertexType":"VTX","VertexVersion":2}}}],"name":"Circle.035"},{"primitives":[{"attributes":{"COLOR_0":209,"NORMAL":206,"POSITION":204,"TANGENT":205,"TEXCOORD_0":207,"TEXCOORD_1":208},"indices":210,"material":0,"mode":4,"extras":{"ASOBO_primitive":{"PrimitiveCount":512,"UV2Length":0.5643523335456848,"UVLength":0.5643523335456848,"VertexCount":374,"VertexType":"VTX","VertexVersion":2}}}],"name":"Circle.220"},{"primitives":[{"attributes":{"COLOR_0":216,"NORMAL":213,"POSITION":211,"TANGENT":212,"TEXCOORD_0":214,"TEXCOORD_1":215},"indices":217,"material":0,"mode":4,"extras":{"ASOBO_primitive":{"PrimitiveCount":5356,"UV2Length":0.7034752368927002,"UVLength":0.7034752368927002,"VertexCount":5270,"VertexType":"VTX","VertexVersion":2}}}],"name":"Circle.036"},{"primitives":[{"attributes":{"COLOR_0":223,"NORMAL":220,"POSITION":218,"TANGENT":219,"TEXCOORD_0":221,"TEXCOORD_1":222},"indices":224,"material":0,"mode":4,"extras":{"ASOBO_primitive":{"PrimitiveCount":512,"UV2Length":0.5659404993057251,"UVLength":0.5659404993057251,"VertexCount":374,"VertexType":"VTX","VertexVersion":2}}}],"name":"Circle.221"},{"primitives":[{"attributes":{"COLOR_0":230,"NORMAL":227,"POSITION":225,"TANGENT":226,"TEXCOORD_0":228,"TEXCOORD_1":229},"indices":231,"material":0,"mode":4,"extras":{"ASOBO_primitive":{"PrimitiveCount":1022,"UV2Length":0.6630628705024719,"UVLength":0.6630628705024719,"VertexCount":1055,"VertexType":"VTX","VertexVersion":2}}}],"name":"Circle.037"},{"primitives":[{"attributes":{"COLOR_0":237,"NORMAL":234,"POSITION":232,"TANGENT":233,"TEXCOORD_0":235,"TEXCOORD_1":236},"indices":238,"material":0,"mode":4,"extras":{"ASOBO_primitive":{"PrimitiveCount":1022,"UV2Length":0.6698610782623291,"UVLength":0.6698610782623291,"VertexCount":1048,"VertexType":"VTX","VertexVersion":2}}}],"name":"Circle.034"},{"primitives":[{"attributes":{"COLOR_0":111,"NORMAL":108,"POSITION":106,"TANGENT":107,"TEXCOORD_0":109,"TEXCOORD_1":110},"indices":112,"material":0,"mode":4,"extras":{"ASOBO_primitive":{"PrimitiveCount":9849,"UV2Length":0.7052769064903259,"UVLength":0.7052769064903259,"VertexCount":10659,"VertexType":"VTX","VertexVersion":2}}}],"name":"Circle.710"},{"primitives":[{"attributes":{"COLOR_0":244,"NORMAL":241,"POSITION":239,"TANGENT":240,"TEXCOORD_0":242,"TEXCOORD_1":243},"indices":245,"material":0,"mode":4,"extras":{"ASOBO_primitive":{"PrimitiveCount":384,"UV2Length":0.41566482186317444,"UVLength":0.41566482186317444,"VertexCount":330,"VertexType":"VTX","VertexVersion":2}}}],"name":"Circle.211"},{"primitives":[{"attributes":{"COLOR_0":251,"NORMAL":248,"POSITION":246,"TANGENT":247,"TEXCOORD_0":249,"TEXCOORD_1":250},"indices":252,"material":0,"mode":4,"extras":{"ASOBO_primitive":{"PrimitiveCount":6212,"UV2Length":0.6960132122039795,"UVLength":0.6960132122039795,"VertexCount":5680,"VertexType":"VTX","VertexVersion":2}}}],"name":"Circle.219"},{"primitives":[{"attributes":{"COLOR_0":258,"NORMAL":255,"POSITION":253,"TANGENT":254,"TEXCOORD_0":256,"TEXCOORD_1":257},"indices":259,"material":0,"mode":4,"extras":{"ASOBO_primitive":{"PrimitiveCount":4882,"UV2Length":0.7048624753952026,"UVLength":0.7048624753952026,"VertexCount":4692,"VertexType":"VTX","VertexVersion":2}}}],"name":"Circle.225"},{"primitives":[{"attributes":{"COLOR_0":272,"NORMAL":269,"POSITION":267,"TANGENT":268,"TEXCOORD_0":270,"TEXCOORD_1":271},"indices":273,"material":3,"mode":4,"extras":{"ASOBO_primitive":{"PrimitiveCount":312,"UV2Length":0.08916163444519043,"UVLength":0.08916163444519043,"VertexCount":232,"VertexType":"VTX","VertexVersion":2}}}],"name":"LIGHT_ASOBO_WingLeft2.001"},{"primitives":[{"attributes":{"COLOR_0":279,"NORMAL":276,"POSITION":274,"TANGENT":275,"TEXCOORD_0":277,"TEXCOORD_1":278},"indices":280,"material":3,"mode":4,"extras":{"ASOBO_primitive":{"PrimitiveCount":312,"UV2Length":0.08916163444519043,"UVLength":0.08916163444519043,"VertexCount":232,"VertexType":"VTX","VertexVersion":2}}}],"name":"LIGHT_ASOBO_WingLeft2.002"},{"primitives":[{"attributes":{"COLOR_0":286,"NORMAL":283,"POSITION":281,"TANGENT":282,"TEXCOORD_0":284,"TEXCOORD_1":285},"indices":287,"material":3,"mode":4,"extras":{"ASOBO_primitive":{"PrimitiveCount":312,"UV2Length":0.08916163444519043,"UVLength":0.08916163444519043,"VertexCount":232,"VertexType":"VTX","VertexVersion":2}}}],"name":"LIGHT_ASOBO_WingLeft2.003"},{"primitives":[{"attributes":{"COLOR_0":293,"NORMAL":290,"POSITION":288,"TANGENT":289,"TEXCOORD_0":291,"TEXCOORD_1":292},"indices":294,"material":3,"mode":4,"extras":{"ASOBO_primitive":{"PrimitiveCount":312,"UV2Length":0.08916163444519043,"UVLength":0.08916163444519043,"VertexCount":232,"VertexType":"VTX","VertexVersion":2}}}],"name":"LIGHT_ASOBO_WingLeft2.004"},{"primitives":[{"attributes":{"COLOR_0":300,"NORMAL":297,"POSITION":295,"TANGENT":296,"TEXCOORD_0":298,"TEXCOORD_1":299},"indices":301,"material":3,"mode":4,"extras":{"ASOBO_primitive":{"PrimitiveCount":312,"UV2Length":0.08916163444519043,"UVLength":0.08916163444519043,"VertexCount":232,"VertexType":"VTX","VertexVersion":2}}}],"name":"LIGHT_ASOBO_WingLeft2.005"},{"primitives":[{"attributes":{"COLOR_0":265,"NORMAL":262,"POSITION":260,"TANGENT":261,"TEXCOORD_0":263,"TEXCOORD_1":264},"indices":266,"material":3,"mode":4,"extras":{"ASOBO_primitive":{"PrimitiveCount":1040,"UV2Length":0.6775899529457092,"UVLength":0.6775899529457092,"VertexCount":858,"VertexType":"VTX","VertexVersion":2}}}],"name":"Circle.271"},{"primitives":[{"attributes":{"COLOR_0":307,"NORMAL":304,"POSITION":302,"TANGENT":303,"TEXCOORD_0":305,"TEXCOORD_1":306},"indices":308,"material":0,"mode":4,"extras":{"ASOBO_primitive":{"PrimitiveCount":1592,"UV2Length":0.7013090252876282,"UVLength":0.7013090252876282,"VertexCount":1871,"VertexType":"VTX","VertexVersion":2}}}],"name":"Circle.272"},{"primitives":[{"attributes":{"COLOR_0":314,"NORMAL":311,"POSITION":309,"TANGENT":310,"TEXCOORD_0":312,"TEXCOORD_1":313},"indices":315,"material":0,"mode":4,"extras":{"ASOBO_primitive":{"PrimitiveCount":426,"UV2Length":0.5142493844032288,"UVLength":0.5142493844032288,"VertexCount":401,"VertexType":"VTX","VertexVersion":2}}}],"name":"Circle.125"},{"primitives":[{"attributes":{"COLOR_0":321,"NORMAL":318,"POSITION":316,"TANGENT":317,"TEXCOORD_0":319,"TEXCOORD_1":320},"indices":322,"material":0,"mode":4,"extras":{"ASOBO_primitive":{"PrimitiveCount":380,"UV2Length":0.6730624437332153,"UVLength":0.6730624437332153,"VertexCount":510,"VertexType":"VTX","VertexVersion":2}}}],"name":"Circle.127"},{"primitives":[{"attributes":{"COLOR_0":328,"NORMAL":325,"POSITION":323,"TANGENT":324,"TEXCOORD_0":326,"TEXCOORD_1":327},"indices":329,"material":0,"mode":4,"extras":{"ASOBO_primitive":{"PrimitiveCount":636,"UV2Length":0.701722264289856,"UVLength":0.701722264289856,"VertexCount":755,"VertexType":"VTX","VertexVersion":2}}}],"name":"Circle.126"},{"primitives":[{"attributes":{"COLOR_0":335,"NORMAL":332,"POSITION":330,"TANGENT":331,"TEXCOORD_0":333,"TEXCOORD_1":334},"indices":336,"material":4,"mode":4,"extras":{"ASOBO_primitive":{"PrimitiveCount":12,"UV2Length":0.625,"UVLength":0.625,"VertexCount":24,"VertexType":"VTX","VertexVersion":2}}}],"name":"Cube.009"},{"primitives":[{"attributes":{"COLOR_0":342,"NORMAL":339,"POSITION":337,"TANGENT":338,"TEXCOORD_0":340,"TEXCOORD_1":341},"indices":343,"material":5,"mode":4,"extras":{"ASOBO_primitive":{"PrimitiveCount":1162,"UV2Length":0.6341906189918518,"UVLength":0.6341906189918518,"VertexCount":1768,"VertexType":"VTX","VertexVersion":2}}}],"name":"Plane.081"}],"nodes":[{"translation":[0.22222673892974856,0.04177524149417877,-0.00556536577641964],"rotation":[0.9787616729736328,3.074888468290738e-07,2.5633852374085112e-08,0.20500151813030243],"scale":[1.0,1.0000001192092896,0.999999701976776],"mesh":0,"extensions":{"ASOBO_unique_id":{"id":"NLG_LOWER_DRAG"}},"name":"NLG_LOWER_DRAG"},{"translation":[1.8665957668417832e-10,1.64522123336792,-1.9362585135240806e-06],"rotation":[0.011035213246941566,-1.278673664728558e-07,-3.4546749816399824e-07,0.9999390840530396],"extensions":{"ASOBO_unique_id":{"id":"NLG_UPPER_LINK2"}},"name":"NLG_UPPER_LINK2","children":[0]},{"translation":[0.0,0.0,4.881739641859895e-06],"mesh":1,"extensions":{"ASOBO_unique_id":{"id":"NLG_UPPER_DRAG.001"}},"name":"NLG_UPPER_DRAG.001"},{"translation":[-1.4087220279179746e-10,0.0035633142106235027,9.545668717692024e-07],"rotation":[0.6932347416877747,0.6933227777481079,-0.139516219496727,0.1387963593006134],"scale":[0.9999998807907104,1.0,0.9999997615814208],"mesh":2,"extensions":{"ASOBO_unique_id":{"id":"NLG_UPPER_DRAG"}},"name":"NLG_UPPER_DRAG","children":[2]},{"translation":[0.0,0.030362427234649655,0.018217086791992188],"rotation":[-0.9810157418251038,6.605458935382559e-08,-7.4009633976857e-08,0.19392818212509155],"extensions":{"ASOBO_unique_id":{"id":"NLG_UPPER_LINK1"}},"name":"NLG_UPPER_LINK1","children":[1,3]},{"translation":[1.5069963410496714e-07,0.3571507930755615,-6.845220923423767e-08],"rotation":[0.001291021006181836,0.9960891008377076,-0.0033368889708071947,0.08828207105398178],"scale":[1.0,1.0,0.9999999403953552],"extensions":{"ASOBO_unique_id":{"id":"NLG_UPPER_LOCK2"}},"name":"NLG_UPPER_LOCK2"},{"translation":[-0.00771339051425457,-1.508985996246338,-1.4050369262695312],"rotation":[0.30803167819976807,-0.6401587724685669,-0.626214325428009,0.3211992084980011],"scale":[0.9999999403953552,1.0,1.0],"extensions":{"ASOBO_unique_id":{"id":"NLG_UPPER_LOCK1"}},"name":"NLG_UPPER_LOCK1","children":[5]},{"translation":[0.0024726884439587593,0.026431215927004818,0.45927050709724426],"mesh":3,"extensions":{"ASOBO_unique_id":{"id":"NLG_MAIN_ACTUATOR.001"}},"name":"NLG_MAIN_ACTUATOR.001"},{"translation":[0.2567807734012604,1.043651461601257,0.05616571009159088],"mesh":4,"extensions":{"ASOBO_unique_id":{"id":"NLG_MAIN_ACTUATOR.003"}},"name":"NLG_MAIN_ACTUATOR.003"},{"translation":[-0.25324171781539917,1.044754147529602,0.05616571009159088],"mesh":5,"extensions":{"ASOBO_unique_id":{"id":"NLG_MAIN_ACTUATOR.004"}},"name":"NLG_MAIN_ACTUATOR.004"},{"translation":[0.31076687574386597,0.5247774720191956,0.15457536280155182],"rotation":[0.0,0.3524545729160309,0.0,0.9358290433883668],"mesh":6,"extensions":{"ASOBO_unique_id":{"id":"NLG_MAIN_ACTUATOR.005"}},"name":"NLG_MAIN_ACTUATOR.005"},{"translation":[-0.3093823790550232,0.5258799195289612,0.15512849390506744],"rotation":[0.0,-0.34902721643447876,0.0,0.9371126294136048],"mesh":7,"extensions":{"ASOBO_unique_id":{"id":"NLG_MAIN_ACTUATOR.006"}},"name":"NLG_MAIN_ACTUATOR.006"},{"translation":[-0.0003416443651076406,0.5870473384857178,0.0004652738571166992],"rotation":[-0.9347161054611206,-2.457410719358677e-09,-4.343087223190878e-09,0.35539525747299194],"scale":[1.0,0.9999996423721312,0.999999701976776],"mesh":8,"extensions":{"ASOBO_unique_id":{"id":"NLG_LOWER_SWIVEL"}},"name":"NLG_LOWER_SWIVEL"},{"translation":[-3.18579052027701e-11,0.5207839012145996,3.0994410735729616e-06],"rotation":[-0.5058622360229492,-7.842928198044803e-17,-1.6088057417948e-17,0.8626142740249634],"scale":[1.0,0.9999999403953552,1.0],"extensions":{"ASOBO_unique_id":{"id":"NLG_LOWER_LINK2"}},"name":"NLG_LOWER_LINK2","children":[12]},{"translation":[-0.0006656700279563665,0.17457962036132812,-0.0005544424057006836],"rotation":[0.8810242414474487,-0.0011170041980221868,6.46181870251894e-05,0.4730697572231293],"scale":[1.0,0.9999997615814208,0.9999997615814208],"mesh":9,"extensions":{"ASOBO_unique_id":{"id":"NLG_UPPER_SWIVEL"}},"name":"NLG_UPPER_SWIVEL"},{"translation":[-0.0054817707277834415,-2.723635673522949,-1.5167980194091797],"rotation":[-0.9557424783706664,4.996061203632607e-11,-2.434592458189222e-11,0.2942045331001282],"scale":[1.0,0.9999998807907104,0.9999998807907104],"extensions":{"ASOBO_unique_id":{"id":"NLG_LOWER_LINK1"}},"name":"NLG_LOWER_LINK1","children":[13,14]},{"translation":[0.00011348817497491837,0.20978009700775144,9.323317499365658e-06],"rotation":[0.4998769760131836,0.5001071691513062,0.5001073479652405,0.4999086558818817],"scale":[1.0,1.0000007152557373,1.0000007152557373],"mesh":10,"extensions":{"ASOBO_unique_id":{"id":"NLG_RH_Wheel.002"}},"name":"NLG_RH_Wheel.002"},{"translation":[0.2889181971549988,-4.289620399475098,-1.323225021362305],"rotation":[-0.4998769760131836,-0.5001072287559509,-0.5001072883605957,0.4999086558818817],"scale":[0.999999701976776,0.9999999403953552,0.9999997615814208],"extensions":{"ASOBO_unique_id":{"id":"NLG_LH_WHEEL"}},"name":"NLG_LH_WHEEL","children":[16]},{"translation":[0.004942790605127811,3.622804641723633,1.4027525186538696],"rotation":[0.022617939859628677,3.400693231014884e-06,0.0001067665798473172,0.999744176864624],"extensions":{"ASOBO_unique_id":{"id":"NLG_WHEEL_LH"}},"name":"NLG_WHEEL_LH","children":[17]},{"translation":[0.0001260477292817086,0.2272302508354187,3.5820376069750637e-06],"rotation":[0.7058239579200745,-0.705522358417511,-0.044983766973018646,0.04502534866333008],"scale":[1.0000001192092896,1.0000007152557373,1.0000007152557373],"mesh":10,"extensions":{"ASOBO_unique_id":{"id":"NLG_RH_Wheel.001"}},"name":"NLG_RH_Wheel.001"},{"translation":[-0.7447361350059509,-4.289636135101318,-1.3234405517578125],"rotation":[-0.4998769760131836,-0.5001072287559509,-0.5001072883605957,0.4999086558818817],"scale":[0.999999701976776,0.9999999403953552,0.9999997615814208],"extensions":{"ASOBO_unique_id":{"id":"NLG_RH_WHEEL"}},"name":"NLG_RH_WHEEL","children":[19]},{"translation":[0.004942790605127811,3.622804641723633,1.4027525186538696],"rotation":[0.022617939859628677,3.400693231014884e-06,0.0001067665798473172,0.999744176864624],"extensions":{"ASOBO_unique_id":{"id":"NLG_WHEEL_RH"}},"name":"NLG_WHEEL_RH","children":[20]},{"translation":[-0.0002322039072168991,-0.09328734874725342,5.170702479517786e-06],"rotation":[-0.9999980926513672,-0.00010681785352062434,7.748958523734473e-07,0.0019665402360260487],"scale":[1.0,0.9999998211860656,0.9999998211860656],"mesh":11,"extensions":{"ASOBO_unique_id":{"id":"NLG_Lower_axle"}},"name":"NLG_Lower_axle","children":[18,21]},{"translation":[-0.0002322039072168991,-0.09328734874725342,5.170702479517786e-06],"rotation":[-0.9999980926513672,-0.00010681785352062434,7.748958523734473e-07,0.0019665402360260487],"scale":[1.0,0.9999998211860656,0.9999998211860656],"mesh":12,"extensions":{"ASOBO_unique_id":{"id":"NLG_Lower_axle.001"}},"name":"NLG_Lower_axle.001"},{"translation":[-0.0002322039072168991,-0.09328734874725342,5.170702479517786e-06],"rotation":[-0.9999980926513672,-0.00010681785352062434,7.748958523734473e-07,0.0019665402360260487],"scale":[1.0,0.9999998211860656,0.9999998211860656],"mesh":13,"extensions":{"ASOBO_unique_id":{"id":"NLG_Lower_axle.002"}},"name":"NLG_Lower_axle.002"},{"translation":[-0.0054817707277834415,-3.302474021911621,-1.2639312744140625],"rotation":[0.999697744846344,-6.357132181777914e-11,2.628392295478399e-11,0.02458393387496471],"scale":[1.0,0.9999999403953552,0.9999999403953552],"extensions":{"ASOBO_unique_id":{"id":"NLG_LOWER_STRUT"}},"name":"NLG_LOWER_STRUT","children":[22,23,24]},{"translation":[-0.0054817707277834415,-3.961888551712036,-1.4059925079345703],"rotation":[0.9086148142814636,-4.0393701716823224e-09,-3.932982384213801e-09,0.4176352620124817],"scale":[1.0,0.9999998807907104,0.9999998807907104],"extensions":{"ASOBO_unique_id":{"id":"NLG_LOWER_LINK3"}},"name":"NLG_LOWER_LINK3"},{"translation":[0.006954011041671038,2.6144933700561523,1.4125659465789795],"rotation":[0.022616980597376823,5.244741714705015e-06,-0.00023184499877970663,0.999744176864624],"extensions":{"ASOBO_unique_id":{"id":"NLG_COMPRESSION"}},"name":"NLG_COMPRESSION","children":[15,25,26]},{"translation":[-0.0002312219003215432,0.3440953493118286,-0.0019022227497771385],"rotation":[-0.9999980330467224,0.00023164553567767143,1.0824147466337308e-05,0.0019674429204314947],"scale":[0.9999999403953552,0.9999997615814208,0.9999996423721312],"mesh":14,"extensions":{"ASOBO_unique_id":{"id":"NLG_ACTUATOR_HOLDER"}},"name":"NLG_ACTUATOR_HOLDER","children":[27]},{"translation":[-0.005481770262122154,-2.3321163654327393,-1.311689376831055],"rotation":[0.999697744846344,2.867508896997606e-09,1.1919893694312125e-07,0.024583932012319565],"scale":[1.0,1.0,1.0000001192092896],"extensions":{"ASOBO_unique_id":{"id":"NLG_LOWER_STEERING1"}},"name":"NLG_LOWER_STEERING1","children":[28]},{"translation":[-0.0847863256931305,0.01997125893831253,0.09494739770889282],"rotation":[0.2636377811431885,-0.6421450972557068,0.6428221464157104,0.32392066717147827],"scale":[1.0,0.9999997615814208,0.9999999403953552],"mesh":15,"extensions":{"ASOBO_unique_id":{"id":"LH_ACTUATOR"}},"name":"LH_ACTUATOR"},{"translation":[-0.0847863256931305,0.01997125893831253,0.09494739770889282],"rotation":[0.2636377811431885,-0.6421450972557068,0.6428221464157104,0.32392066717147827],"scale":[1.0,0.9999997615814208,0.9999999403953552],"mesh":16,"extensions":{"ASOBO_unique_id":{"id":"LH_ACTUATOR.001"}},"name":"LH_ACTUATOR.001"},{"translation":[0.26727116107940674,-2.697941780090332,-1.0071697235107422],"rotation":[-0.7121144533157349,0.33859193325042725,-0.14436843991279602,0.5978346467018127],"scale":[1.0,0.9999998807907104,1.0],"extensions":{"ASOBO_unique_id":{"id":"NLG_STEER_ACTUATOR2"}},"name":"NLG_STEER_ACTUATOR2","children":[30,31]},{"translation":[-0.0031317472457885742,-2.5622546672821045e-05,0.0012158751487731934],"rotation":[-0.6926871538162231,-0.495025634765625,0.04020079970359802,0.5229895710945129],"scale":[1.0,1.000000238418579,1.0000001192092896],"mesh":17,"extensions":{"ASOBO_unique_id":{"id":"RH_ACTUATOR"}},"name":"RH_ACTUATOR"},{"translation":[-0.0031317472457885742,-2.5622546672821045e-05,0.0012158751487731934],"rotation":[-0.6926871538162231,-0.495025634765625,0.04020079970359802,0.5229895710945129],"scale":[1.0,1.000000238418579,1.0000001192092896],"mesh":18,"extensions":{"ASOBO_unique_id":{"id":"RH_ACTUATOR.001"}},"name":"RH_ACTUATOR.001"},{"translation":[-0.2784004807472229,-2.699967622756958,-1.0065231323242188],"rotation":[-0.6314153671264648,0.14194539189338684,-0.340668648481369,0.6819905638694763],"scale":[1.0,1.0,0.9999999403953552],"extensions":{"ASOBO_unique_id":{"id":"NLG_STEER_ACTUATOR3"}},"name":"NLG_STEER_ACTUATOR3","children":[33,34]},{"translation":[-0.00035184621810913086,0.005641430616378784,0.0011926740407943726],"rotation":[-0.2399766147136688,0.7101900577545166,0.6618385314941406,0.003343775402754545],"scale":[0.9999985694885254,0.9999996423721312,0.999999701976776],"mesh":19,"extensions":{"ASOBO_unique_id":{"id":"RH_PISTON"}},"name":"RH_PISTON"},{"translation":[-0.23104678094387057,-2.706109523773194,-1.1648845672607422],"rotation":[0.2182794213294983,-0.7252001762390137,-0.6526563763618469,0.021875636652112007],"scale":[1.000001311302185,1.0,0.9999999403953552],"extensions":{"ASOBO_unique_id":{"id":"NLG_STEER_ACTUATOR4"}},"name":"NLG_STEER_ACTUATOR4","children":[36]},{"translation":[-0.008498892188072205,0.005782287567853928,0.0065788328647613525],"rotation":[-0.25483667850494385,0.5690443515777588,0.6356006264686584,0.455256849527359],"scale":[0.9999998807907104,0.9999999403953552,0.9999998211860656],"mesh":20,"extensions":{"ASOBO_unique_id":{"id":"LH_PISTON"}},"name":"LH_PISTON"},{"translation":[0.21961401402950287,-2.7081995010375977,-1.1648845672607422],"rotation":[0.26193252205848694,-0.575898289680481,-0.6300342082977295,0.4503214657306671],"scale":[0.9999998807907104,1.0,1.0],"extensions":{"ASOBO_unique_id":{"id":"NLG_STEER_ACTUATOR1"}},"name":"NLG_STEER_ACTUATOR1","children":[38]},{"translation":[0.00448848120868206,2.8068385124206543,1.282024383544922],"extensions":{"ASOBO_unique_id":{"id":"NLG_STEERING"}},"name":"NLG_STEERING","children":[29,32,35,37,39]},{"translation":[-0.00201303418725729,1.500675082206726,-0.01503384206444025],"rotation":[-0.9995527267456056,-0.0018141139298677444,-0.0016970086144283414,0.02980281226336956],"scale":[1.0,0.9999998807907104,0.9999999403953552],"mesh":21,"extensions":{"ASOBO_unique_id":{"id":"NLG_MAIN_ACTUATOR"}},"name":"NLG_MAIN_ACTUATOR","children":[7,8,9,10,11,40]},{"translation":[-0.00201303418725729,1.500675082206726,-0.01503384206444025],"rotation":[-0.9995527267456056,-0.0018141139298677444,-0.0016970086144283414,0.02980281226336956],"scale":[1.0,0.9999998807907104,0.9999999403953552],"mesh":22,"extensions":{"ASOBO_unique_id":{"id":"NLG_MAIN_ACTUATOR.011"}},"name":"NLG_MAIN_ACTUATOR.011"},{"translation":[-0.00201303418725729,1.500675082206726,-0.01503384206444025],"rotation":[-0.9995527267456056,-0.0018141139298677444,-0.0016970086144283414,0.02980281226336956],"scale":[1.0,0.9999998807907104,0.9999999403953552],"mesh":23,"extensions":{"ASOBO_unique_id":{"id":"NLG_MAIN_ACTUATOR.012"}},"name":"NLG_MAIN_ACTUATOR.012"},{"translation":[-0.00201303418725729,1.500675082206726,-0.01503384206444025],"rotation":[-0.9995527267456056,-0.0018141139298677444,-0.0016970086144283414,0.02980281226336956],"scale":[1.0,0.9999998807907104,0.9999999403953552],"mesh":24,"extensions":{"ASOBO_unique_id":{"id":"NLG_MAIN_ACTUATOR.015"}},"name":"NLG_MAIN_ACTUATOR.015"},{"translation":[0.0024962504394352436,0.026395674794912335,0.3929310142993927],"mesh":25,"extensions":{"ASOBO_unique_id":{"id":"LIGHT_ASOBO_TAKEOFF_1"}},"name":"LIGHT_ASOBO_TAKEOFF_1"},{"translation":[0.25722575187683105,1.043587327003479,-0.0064315651543438435],"mesh":26,"extensions":{"ASOBO_unique_id":{"id":"LIGHT_ASOBO_TAKEOFF_2"}},"name":"LIGHT_ASOBO_TAKEOFF_2"},{"translation":[-0.2528819143772125,1.0451037883758545,-0.006431566085666418],"mesh":27,"extensions":{"ASOBO_unique_id":{"id":"LIGHT_ASOBO_TAKEOFF_3"}},"name":"LIGHT_ASOBO_TAKEOFF_3"},{"translation":[0.2642478942871094,0.5259693264961243,0.10285570472478868],"mesh":28,"extensions":{"ASOBO_unique_id":{"id":"LIGHT_ASOBO_TURNOFF_LH"}},"name":"LIGHT_ASOBO_TURNOFF_LH"},{"translation":[-0.26415926218032837,0.5256093144416809,0.10368920862674712],"mesh":29,"extensions":{"ASOBO_unique_id":{"id":"LIGHT_ASOBO_TURNOFF_RH"}},"name":"LIGHT_ASOBO_TURNOFF_RH"},{"translation":[-0.00201303418725729,1.500675082206726,-0.01503384206444025],"rotation":[-0.9995527267456056,-0.0018141139298677444,-0.0016970086144283414,0.02980281226336956],"scale":[1.0,0.9999998807907104,0.9999999403953552],"mesh":30,"extensions":{"ASOBO_unique_id":{"id":"NLG_MAIN_ACTUATOR.018"}},"name":"NLG_MAIN_ACTUATOR.018","children":[45,46,47,48,49]},{"translation":[-0.00201303418725729,1.500675082206726,-0.01503384206444025],"rotation":[-0.9995527267456056,-0.0018141139298677444,-0.0016970086144283414,0.02980281226336956],"scale":[1.0,0.9999998807907104,0.9999999403953552],"mesh":31,"extensions":{"ASOBO_unique_id":{"id":"NLG_MAIN_ACTUATOR.019"}},"name":"NLG_MAIN_ACTUATOR.019"},{"translation":[-0.00771339051425457,-1.3097262382507324,-1.386444091796875],"rotation":[0.9995527267456056,0.0018141140462830665,0.0016970079159364104,0.029802752658724785],"scale":[1.0,0.9999999403953552,1.0],"extensions":{"ASOBO_unique_id":{"id":"NLG_UPPER_STRUT"}},"name":"NLG_UPPER_STRUT","children":[41,42,43,44,50,51]},{"translation":[3.702007234096527e-07,-2.3226165771484375,-0.9715518951416016],"rotation":[-0.7215353846549988,-1.6507563316281448e-07,1.7202744118094418e-07,0.6923776268959045],"scale":[1.0,0.9999998807907104,0.9999999403953552],"extensions":{"ASOBO_unique_id":{"id":"NLG_UPPER_LINK3"}},"name":"NLG_UPPER_LINK3"},{"translation":[-0.6692702174186707,-0.17953944206237793,-0.7376880645751953],"rotation":[-0.9585452079772948,3.809103645835421e-07,8.444029475640492e-08,0.2849404811859131],"scale":[1.0,0.9999999403953552,0.9999999403953552],"extensions":{"ASOBO_unique_id":{"id":"NLG_ACTUATOR1"}},"name":"NLG_ACTUATOR1"},{"translation":[-0.0033082887530326843,0.08219338953495026,-0.0010313655948266387],"rotation":[-0.26927146315574646,2.5195251396326057e-07,4.355740372830042e-07,0.9630643129348756],"scale":[1.0,1.0,0.9999999403953552],"mesh":32,"extensions":{"ASOBO_unique_id":{"id":"NLG_MAIN_ACTUATOR.008"}},"name":"NLG_MAIN_ACTUATOR.008"},{"translation":[-0.669270932674408,-1.0313116312026978,-1.2931747436523438],"rotation":[0.2849404215812683,-2.709041382331634e-07,-3.51204135995431e-07,0.9585452079772948],"scale":[1.0,1.0,1.0000001192092896],"extensions":{"ASOBO_unique_id":{"id":"NLG_ACTUATOR2"}},"name":"NLG_ACTUATOR2","children":[55]},{"translation":[-0.004489273764193058,-0.643728494644165,0.049817800521850586],"rotation":[-0.20040921866893768,-1.7100529703384384e-07,-4.072558681400551e-07,0.9797122478485109],"scale":[1.0,0.9999998807907104,1.0],"mesh":33,"extensions":{"ASOBO_unique_id":{"id":"NLG_MAIN_ACTUATOR.010"}},"name":"NLG_MAIN_ACTUATOR.010"},{"translation":[3.702007234096527e-07,-2.2734375,-1.1084365844726562],"rotation":[0.20041102170944217,1.7981928124299887e-07,3.6561903016263386e-07,0.9797119498252868],"scale":[1.0,1.0,0.9999999403953552],"extensions":{"ASOBO_unique_id":{"id":"NLG_UPPER_LOCK_SPRING2"}},"name":"NLG_UPPER_LOCK_SPRING2","children":[57]},{"translation":[-0.004489187616854906,1.3169527053833008,-0.04981493949890137],"rotation":[0.9797122478485109,3.6261428704165155e-07,4.8835627097787444e-08,0.2004092037677765],"scale":[1.0000001192092896,1.0000001192092896,1.000000238418579],"mesh":34,"extensions":{"ASOBO_unique_id":{"id":"NLG_MAIN_ACTUATOR.009"}},"name":"NLG_MAIN_ACTUATOR.009"},{"translation":[-1.657754182815552e-07,-1.5085155963897705,-0.7818241119384766],"rotation":[-0.979711890220642,-3.20773182238554e-07,-3.9409982832694375e-08,0.20041097700595856],"extensions":{"ASOBO_unique_id":{"id":"NLG_UPPER_LOCK_SPRING1"}},"name":"NLG_UPPER_LOCK_SPRING1","children":[59]},{"translation":[0.005224715918302536,0.27003592252731323,31.59597396850586],"extensions":{"ASOBO_unique_id":{"id":"NLG_RETRACTION"}},"name":"NLG_RETRACTION","children":[4,6,52,53,54,56,58,60]},{"translation":[0.15867003798484802,-2.538243293762207,30.27884864807129],"mesh":35,"extensions":{"ASOBO_unique_id":{"id":"NOSE_GEAR BOUNDS"}},"name":"NOSE_GEAR BOUNDS"},{"translation":[0.0,-1.09654700756073,31.7026424407959],"rotation":[0.7071068286895752,0.0,0.0,0.7071068286895752],"mesh":36,"extensions":{"ASOBO_unique_id":{"id":"NLG_BAY"}},"name":"NLG_BAY"}],"scene":0,"scenes":[{"nodes":[61,62,63],"name":"Scene"}],"skins":[{"joints":[4,1,6,5,52,53,54,56,58,60],"inverseBindMatrices":80,"name":"NLG_RETRACTION"},{"joints":[29,32,35,37,39],"inverseBindMatrices":81,"name":"NLG_STEERING"},{"joints":[15,13,25,26],"inverseBindMatrices":82,"name":"NLG_COMPRESSION"},{"joints":[17],"inverseBindMatrices":83,"name":"NLG_WHEEL_LH"},{"joints":[20],"inverseBindMatrices":84,"name":"NLG_WHEEL_RH"}],"textures":[{"extensions":{"MSFT_texture_dds":{"source":0}}},{"extensions":{"MSFT_texture_dds":{"source":1}}},{"extensions":{"MSFT_texture_dds":{"source":2}}},{"extensions":{"MSFT_texture_dds":{"source":3}}},{"extensions":{"MSFT_texture_dds":{"source":4}}},{"extensions":{"MSFT_texture_dds":{"source":5}}},{"extensions":{"MSFT_texture_dds":{"source":6}}},{"extensions":{"MSFT_texture_dds":{"source":7}}},{"extensions":{"MSFT_texture_dds":{"source":8}}},{"extensions":{"MSFT_texture_dds":{"source":9}}},{"extensions":{"MSFT_texture_dds":{"source":10}}},{"extensions":{"MSFT_texture_dds":{"source":11}}},{"extensions":{"MSFT_texture_dds":{"source":12}}}],"samplers":[{"magFilter":9729,"minFilter":9987,"wrapS":10497,"wrapT":10497}],"extensionsUsed":["ASOBO_normal_map_convention","ASOBO_unique_id","ASOBO_material_draw_order","ASOBO_material_invisible","MSFT_texture_dds","ASOBO_asset_optimized"],"buffers":[{"byteLength":4032782,"uri":"A380_GEAR_NOSE_LOD01.bin"}],"images":[{"uri":"..\\TEXTURE\\A380X_EXT_NLG_NORM.PNG.KTX2","name":"A380X_EXT_NLG_NORM","extras":"ASOBO_image_converted_meta"},{"uri":"..\\TEXTURE\\A380X_EXT_NLG_COMP.PNG.KTX2","name":"A380X_EXT_NLG_COMP","extras":"ASOBO_image_converted_meta"},{"uri":"..\\TEXTURE\\A380X_EXT_NLG_ALBD.PNG.KTX2","name":"A380X_EXT_NLG_ALBD","extras":"ASOBO_image_converted_meta"},{"uri":"..\\TEXTURE\\A380X_LIGHT_GLASS_NORM.PNG.KTX2","name":"A380X_LIGHT_GLASS_NORM","extras":"ASOBO_image_converted_meta"},{"uri":"..\\TEXTURE\\A380X_LIGHT_GLASS_COMP.PNG.KTX2","name":"A380X_LIGHT_GLASS_COMP","extras":"ASOBO_image_converted_meta"},{"uri":"..\\TEXTURE\\A380X_LIGHT_GLASS_ALBD.PNG.KTX2","name":"A380X_LIGHT_GLASS_ALBD","extras":"ASOBO_image_converted_meta"},{"uri":"..\\TEXTURE\\A380X_TIRES_NORM.PNG.KTX2","name":"A380X_TIRES_NORM","extras":"ASOBO_image_converted_meta"},{"uri":"..\\TEXTURE\\A380X_TIRES_COMP.PNG.KTX2","name":"A380X_TIRES_COMP","extras":"ASOBO_image_converted_meta"},{"uri":"..\\TEXTURE\\A380X_TIRES_ALBD.PNG.KTX2","name":"A380X_TIRES_ALBD","extras":"ASOBO_image_converted_meta"},{"uri":"..\\TEXTURE\\A380X_ACCESSORIES_EMIS.PNG.KTX2","name":"A380X_ACCESSORIES_EMIS","extras":"ASOBO_image_converted_meta"},{"uri":"..\\TEXTURE\\A380X_ACCESSORIES_NORM.PNG.KTX2","name":"A380X_ACCESSORIES_NORM","extras":"ASOBO_image_converted_meta"},{"uri":"..\\TEXTURE\\A380X_ACCESSORIES_COMP.PNG.KTX2","name":"A380X_ACCESSORIES_COMP","extras":"ASOBO_image_converted_meta"},{"uri":"..\\TEXTURE\\A380X_ACCESSORIES_ALBD.PNG.KTX2","name":"A380X_ACCESSORIES_ALBD","extras":"ASOBO_image_converted_meta"}]}