{"accessors":[{"bufferView":0,"componentType":5126,"count":24,"min":[-500.0000305175781,-1.4934519529342652,-500.0000305175781],"max":[500.0000305175781,1.4934519529342652,500.0000305175781],"type":"VEC3","name":"Cube.011_vertices#0_POSITION"},{"bufferView":0,"byteOffset":12,"componentType":5120,"count":24,"type":"VEC4","name":"Cube.011_vertices#0_TANGENT"},{"bufferView":0,"byteOffset":16,"componentType":5120,"count":24,"type":"VEC4","name":"Cube.011_vertices#0_NORMAL"},{"bufferView":0,"byteOffset":20,"componentType":5122,"count":24,"type":"VEC2","name":"Cube.011_vertices#0_TEXCOORD_0"},{"bufferView":0,"byteOffset":24,"componentType":5122,"count":24,"type":"VEC2","name":"Cube.011_vertices#0_TEXCOORD_1"},{"bufferView":0,"byteOffset":28,"componentType":5123,"count":24,"type":"VEC4","name":"Cube.011_vertices#0_COLOR_0"},{"bufferView":1,"componentType":5123,"count":36,"type":"SCALAR","name":"Cube.011_indices#0"},{"bufferView":0,"byteOffset":864,"componentType":5126,"count":20393,"min":[-39.86512756347656,-1.6136127710342408,-15.606842041015625],"max":[-3.2207319736480715,2.4771170616149904,17.047134399414064],"type":"VEC3","name":"Cylinder.003_vertices#0_POSITION"},{"bufferView":0,"byteOffset":876,"componentType":5120,"count":20393,"type":"VEC4","name":"Cylinder.003_vertices#0_TANGENT"},{"bufferView":0,"byteOffset":880,"componentType":5120,"count":20393,"type":"VEC4","name":"Cylinder.003_vertices#0_NORMAL"},{"bufferView":0,"byteOffset":884,"componentType":5122,"count":20393,"type":"VEC2","name":"Cylinder.003_vertices#0_TEXCOORD_0"},{"bufferView":0,"byteOffset":888,"componentType":5122,"count":20393,"type":"VEC2","name":"Cylinder.003_vertices#0_TEXCOORD_1"},{"bufferView":0,"byteOffset":892,"componentType":5123,"count":20393,"type":"VEC4","name":"Cylinder.003_vertices#0_COLOR_0"},{"bufferView":1,"byteOffset":72,"componentType":5123,"count":57354,"type":"SCALAR","name":"Cylinder.003_indices#1"},{"bufferView":0,"byteOffset":735012,"componentType":5126,"count":2747,"min":[-1.949450135231018,-1.93442702293396,-2.724125385284424],"max":[1.949450135231018,1.854383945465088,0.04082898050546646],"type":"VEC3","name":"Circle.074_vertices#0_POSITION"},{"bufferView":0,"byteOffset":735024,"componentType":5120,"count":2747,"type":"VEC4","name":"Circle.074_vertices#0_TANGENT"},{"bufferView":0,"byteOffset":735028,"componentType":5120,"count":2747,"type":"VEC4","name":"Circle.074_vertices#0_NORMAL"},{"bufferView":0,"byteOffset":735032,"componentType":5122,"count":2747,"type":"VEC2","name":"Circle.074_vertices#0_TEXCOORD_0"},{"bufferView":0,"byteOffset":735036,"componentType":5122,"count":2747,"type":"VEC2","name":"Circle.074_vertices#0_TEXCOORD_1"},{"bufferView":0,"byteOffset":735040,"componentType":5123,"count":2747,"type":"VEC4","name":"Circle.074_vertices#0_COLOR_0"},{"bufferView":1,"byteOffset":114780,"componentType":5123,"count":10206,"type":"SCALAR","name":"Circle.074_indices#0"},{"bufferView":0,"byteOffset":833904,"componentType":5126,"count":6757,"min":[-0.6175497174263,-0.6175496578216553,-0.9706281423568726],"max":[0.6175498366355896,0.6175498366355896,0.5855215191841126],"type":"VEC3","name":"Cylinder.048_vertices#0_POSITION"},{"bufferView":0,"byteOffset":833916,"componentType":5120,"count":6757,"type":"VEC4","name":"Cylinder.048_vertices#0_TANGENT"},{"bufferView":0,"byteOffset":833920,"componentType":5120,"count":6757,"type":"VEC4","name":"Cylinder.048_vertices#0_NORMAL"},{"bufferView":0,"byteOffset":833924,"componentType":5122,"count":6757,"type":"VEC2","name":"Cylinder.048_vertices#0_TEXCOORD_0"},{"bufferView":0,"byteOffset":833928,"componentType":5122,"count":6757,"type":"VEC2","name":"Cylinder.048_vertices#0_TEXCOORD_1"},{"bufferView":0,"byteOffset":833932,"componentType":5123,"count":6757,"type":"VEC4","name":"Cylinder.048_vertices#0_COLOR_0"},{"bufferView":1,"byteOffset":135192,"componentType":5123,"count":27654,"type":"SCALAR","name":"Cylinder.048_indices#0"},{"bufferView":0,"byteOffset":1077156,"componentType":5126,"count":3361,"min":[-1.9771453142166138,-1.9685252904891968,-1.6537048816680909],"max":[1.9771491289138795,2.0731351375579836,1.950495719909668],"type":"VEC3","name":"Cylinder.015_vertices#0_POSITION"},{"bufferView":0,"byteOffset":1077168,"componentType":5120,"count":3361,"type":"VEC4","name":"Cylinder.015_vertices#0_TANGENT"},{"bufferView":0,"byteOffset":1077172,"componentType":5120,"count":3361,"type":"VEC4","name":"Cylinder.015_vertices#0_NORMAL"},{"bufferView":0,"byteOffset":1077176,"componentType":5122,"count":3361,"type":"VEC2","name":"Cylinder.015_vertices#0_TEXCOORD_0"},{"bufferView":0,"byteOffset":1077180,"componentType":5122,"count":3361,"type":"VEC2","name":"Cylinder.015_vertices#0_TEXCOORD_1"},{"bufferView":0,"byteOffset":1077184,"componentType":5123,"count":3361,"type":"VEC4","name":"Cylinder.015_vertices#0_COLOR_0"},{"bufferView":1,"byteOffset":190500,"componentType":5123,"count":11640,"type":"SCALAR","name":"Cylinder.015_indices#0"},{"bufferView":0,"byteOffset":1198152,"componentType":5126,"count":4984,"min":[-1.762786865234375,-1.838215947151184,1.7144999504089356],"max":[1.7626771926879883,1.7702929973602296,2.1545183658599855],"type":"VEC3","name":"Cylinder.016_vertices#0_POSITION"},{"bufferView":0,"byteOffset":1198164,"componentType":5120,"count":4984,"type":"VEC4","name":"Cylinder.016_vertices#0_TANGENT"},{"bufferView":0,"byteOffset":1198168,"componentType":5120,"count":4984,"type":"VEC4","name":"Cylinder.016_vertices#0_NORMAL"},{"bufferView":0,"byteOffset":1198172,"componentType":5122,"count":4984,"type":"VEC2","name":"Cylinder.016_vertices#0_TEXCOORD_0"},{"bufferView":0,"byteOffset":1198176,"componentType":5122,"count":4984,"type":"VEC2","name":"Cylinder.016_vertices#0_TEXCOORD_1"},{"bufferView":0,"byteOffset":1198180,"componentType":5123,"count":4984,"type":"VEC4","name":"Cylinder.016_vertices#0_COLOR_0"},{"bufferView":1,"byteOffset":213780,"componentType":5123,"count":25344,"type":"SCALAR","name":"Cylinder.016_indices#0"},{"bufferView":0,"byteOffset":1377576,"componentType":5126,"count":896,"min":[-1.5556666851043702,-1.4784510135650635,0.6445912718772888],"max":[1.5556666851043702,1.6427159309387208,1.847548007965088],"type":"VEC3","name":"Cylinder.023_vertices#0_POSITION"},{"bufferView":0,"byteOffset":1377588,"componentType":5120,"count":896,"type":"VEC4","name":"Cylinder.023_vertices#0_TANGENT"},{"bufferView":0,"byteOffset":1377592,"componentType":5120,"count":896,"type":"VEC4","name":"Cylinder.023_vertices#0_NORMAL"},{"bufferView":0,"byteOffset":1377596,"componentType":5122,"count":896,"type":"VEC2","name":"Cylinder.023_vertices#0_TEXCOORD_0"},{"bufferView":0,"byteOffset":1377600,"componentType":5122,"count":896,"type":"VEC2","name":"Cylinder.023_vertices#0_TEXCOORD_1"},{"bufferView":0,"byteOffset":1377604,"componentType":5123,"count":896,"type":"VEC4","name":"Cylinder.023_vertices#0_COLOR_0"},{"bufferView":1,"byteOffset":264468,"componentType":5123,"count":3528,"type":"SCALAR","name":"Cylinder.023_indices#0"},{"bufferView":0,"byteOffset":1409832,"componentType":5126,"count":16146,"min":[-0.6331688165664673,0.6015306711196899,-8.12874984741211],"max":[0.9323259592056274,2.834296226501465,1.9468839168548585],"type":"VEC3","name":"Cylinder.025_vertices#0_POSITION"},{"bufferView":0,"byteOffset":1409844,"componentType":5120,"count":16146,"type":"VEC4","name":"Cylinder.025_vertices#0_TANGENT"},{"bufferView":0,"byteOffset":1409848,"componentType":5120,"count":16146,"type":"VEC4","name":"Cylinder.025_vertices#0_NORMAL"},{"bufferView":0,"byteOffset":1409852,"componentType":5122,"count":16146,"type":"VEC2","name":"Cylinder.025_vertices#0_TEXCOORD_0"},{"bufferView":0,"byteOffset":1409856,"componentType":5122,"count":16146,"type":"VEC2","name":"Cylinder.025_vertices#0_TEXCOORD_1"},{"bufferView":0,"byteOffset":1409860,"componentType":5123,"count":16146,"type":"VEC4","name":"Cylinder.025_vertices#0_COLOR_0"},{"bufferView":1,"byteOffset":271524,"componentType":5123,"count":47514,"type":"SCALAR","name":"Cylinder.025_indices#0"},{"bufferView":0,"byteOffset":1991088,"componentType":5126,"count":1881,"min":[-1.1241202354431153,-1.4901376962661744,-0.9885150790214539],"max":[1.1241202354431153,1.5111455917358399,2.9052491188049318],"type":"VEC3","name":"Cylinder.049_vertices#0_POSITION"},{"bufferView":0,"byteOffset":1991100,"componentType":5120,"count":1881,"type":"VEC4","name":"Cylinder.049_vertices#0_TANGENT"},{"bufferView":0,"byteOffset":1991104,"componentType":5120,"count":1881,"type":"VEC4","name":"Cylinder.049_vertices#0_NORMAL"},{"bufferView":0,"byteOffset":1991108,"componentType":5122,"count":1881,"type":"VEC2","name":"Cylinder.049_vertices#0_TEXCOORD_0"},{"bufferView":0,"byteOffset":1991112,"componentType":5122,"count":1881,"type":"VEC2","name":"Cylinder.049_vertices#0_TEXCOORD_1"},{"bufferView":0,"byteOffset":1991116,"componentType":5123,"count":1881,"type":"VEC4","name":"Cylinder.049_vertices#0_COLOR_0"},{"bufferView":1,"byteOffset":366552,"componentType":5123,"count":7032,"type":"SCALAR","name":"Cylinder.049_indices#0"},{"bufferView":0,"byteOffset":2058804,"componentType":5126,"count":1024,"min":[-1.5370121002197266,-0.40369680523872378,-1.5370129346847535],"max":[1.5370159149169922,-0.04630257934331894,1.5370128154754639],"type":"VEC3","name":"Cylinder.032_vertices#0_POSITION"},{"bufferView":0,"byteOffset":2058816,"componentType":5120,"count":1024,"type":"VEC4","name":"Cylinder.032_vertices#0_TANGENT"},{"bufferView":0,"byteOffset":2058820,"componentType":5120,"count":1024,"type":"VEC4","name":"Cylinder.032_vertices#0_NORMAL"},{"bufferView":0,"byteOffset":2058824,"componentType":5122,"count":1024,"type":"VEC2","name":"Cylinder.032_vertices#0_TEXCOORD_0"},{"bufferView":0,"byteOffset":2058828,"componentType":5122,"count":1024,"type":"VEC2","name":"Cylinder.032_vertices#0_TEXCOORD_1"},{"bufferView":0,"byteOffset":2058832,"componentType":5123,"count":1024,"type":"VEC4","name":"Cylinder.032_vertices#0_COLOR_0"},{"bufferView":1,"byteOffset":380616,"componentType":5123,"count":3072,"type":"SCALAR","name":"Cylinder.032_indices#0"},{"bufferView":0,"byteOffset":2095668,"componentType":5126,"count":6539,"min":[-0.6460384726524353,3.466609477996826,-0.6432084441184998],"max":[0.6460294723510742,4.9518866539001469,0.648859977722168],"type":"VEC3","name":"Cylinder.031_vertices#0_POSITION"},{"bufferView":0,"byteOffset":2095680,"componentType":5120,"count":6539,"type":"VEC4","name":"Cylinder.031_vertices#0_TANGENT"},{"bufferView":0,"byteOffset":2095684,"componentType":5120,"count":6539,"type":"VEC4","name":"Cylinder.031_vertices#0_NORMAL"},{"bufferView":0,"byteOffset":2095688,"componentType":5122,"count":6539,"type":"VEC2","name":"Cylinder.031_vertices#0_TEXCOORD_0"},{"bufferView":0,"byteOffset":2095692,"componentType":5122,"count":6539,"type":"VEC2","name":"Cylinder.031_vertices#0_TEXCOORD_1"},{"bufferView":0,"byteOffset":2095696,"componentType":5123,"count":6539,"type":"VEC4","name":"Cylinder.031_vertices#0_COLOR_0"},{"bufferView":1,"byteOffset":386760,"componentType":5123,"count":21000,"type":"SCALAR","name":"Cylinder.031_indices#0"},{"bufferView":0,"byteOffset":2331072,"componentType":5126,"count":6769,"min":[-0.6176856756210327,-0.6176856160163879,-0.9708418250083923],"max":[0.6176857352256775,0.6176857352256775,0.5856504440307617],"type":"VEC3","name":"Cylinder.050_vertices#0_POSITION"},{"bufferView":0,"byteOffset":2331084,"componentType":5120,"count":6769,"type":"VEC4","name":"Cylinder.050_vertices#0_TANGENT"},{"bufferView":0,"byteOffset":2331088,"componentType":5120,"count":6769,"type":"VEC4","name":"Cylinder.050_vertices#0_NORMAL"},{"bufferView":0,"byteOffset":2331092,"componentType":5122,"count":6769,"type":"VEC2","name":"Cylinder.050_vertices#0_TEXCOORD_0"},{"bufferView":0,"byteOffset":2331096,"componentType":5122,"count":6769,"type":"VEC2","name":"Cylinder.050_vertices#0_TEXCOORD_1"},{"bufferView":0,"byteOffset":2331100,"componentType":5123,"count":6769,"type":"VEC4","name":"Cylinder.050_vertices#0_COLOR_0"},{"bufferView":1,"byteOffset":428760,"componentType":5123,"count":27654,"type":"SCALAR","name":"Cylinder.050_indices#0"},{"bufferView":0,"byteOffset":2574756,"componentType":5126,"count":3359,"min":[-1.9775824546813965,-1.9689586162567139,-1.6540688276290894],"max":[1.9775824546813965,2.073591470718384,1.950925350189209],"type":"VEC3","name":"Cylinder.017_vertices#0_POSITION"},{"bufferView":0,"byteOffset":2574768,"componentType":5120,"count":3359,"type":"VEC4","name":"Cylinder.017_vertices#0_TANGENT"},{"bufferView":0,"byteOffset":2574772,"componentType":5120,"count":3359,"type":"VEC4","name":"Cylinder.017_vertices#0_NORMAL"},{"bufferView":0,"byteOffset":2574776,"componentType":5122,"count":3359,"type":"VEC2","name":"Cylinder.017_vertices#0_TEXCOORD_0"},{"bufferView":0,"byteOffset":2574780,"componentType":5122,"count":3359,"type":"VEC2","name":"Cylinder.017_vertices#0_TEXCOORD_1"},{"bufferView":0,"byteOffset":2574784,"componentType":5123,"count":3359,"type":"VEC4","name":"Cylinder.017_vertices#0_COLOR_0"},{"bufferView":1,"byteOffset":484068,"componentType":5123,"count":11640,"type":"SCALAR","name":"Cylinder.017_indices#0"},{"bufferView":0,"byteOffset":2695680,"componentType":5126,"count":4984,"min":[-1.7631748914718629,-1.838620662689209,1.7148773670196534],"max":[1.763065218925476,1.770682692527771,2.1549925804138185],"type":"VEC3","name":"Cylinder.018_vertices#0_POSITION"},{"bufferView":0,"byteOffset":2695692,"componentType":5120,"count":4984,"type":"VEC4","name":"Cylinder.018_vertices#0_TANGENT"},{"bufferView":0,"byteOffset":2695696,"componentType":5120,"count":4984,"type":"VEC4","name":"Cylinder.018_vertices#0_NORMAL"},{"bufferView":0,"byteOffset":2695700,"componentType":5122,"count":4984,"type":"VEC2","name":"Cylinder.018_vertices#0_TEXCOORD_0"},{"bufferView":0,"byteOffset":2695704,"componentType":5122,"count":4984,"type":"VEC2","name":"Cylinder.018_vertices#0_TEXCOORD_1"},{"bufferView":0,"byteOffset":2695708,"componentType":5123,"count":4984,"type":"VEC4","name":"Cylinder.018_vertices#0_COLOR_0"},{"bufferView":1,"byteOffset":507348,"componentType":5123,"count":25344,"type":"SCALAR","name":"Cylinder.018_indices#0"},{"bufferView":0,"byteOffset":2875104,"componentType":5126,"count":15531,"min":[-0.5206037163734436,0.6780941486358643,-11.039312362670899],"max":[0.7536424398422241,2.774827480316162,1.9534754753112794],"type":"VEC3","name":"Cylinder.026_vertices#0_POSITION"},{"bufferView":0,"byteOffset":2875116,"componentType":5120,"count":15531,"type":"VEC4","name":"Cylinder.026_vertices#0_TANGENT"},{"bufferView":0,"byteOffset":2875120,"componentType":5120,"count":15531,"type":"VEC4","name":"Cylinder.026_vertices#0_NORMAL"},{"bufferView":0,"byteOffset":2875124,"componentType":5122,"count":15531,"type":"VEC2","name":"Cylinder.026_vertices#0_TEXCOORD_0"},{"bufferView":0,"byteOffset":2875128,"componentType":5122,"count":15531,"type":"VEC2","name":"Cylinder.026_vertices#0_TEXCOORD_1"},{"bufferView":0,"byteOffset":2875132,"componentType":5123,"count":15531,"type":"VEC4","name":"Cylinder.026_vertices#0_COLOR_0"},{"bufferView":1,"byteOffset":558036,"componentType":5123,"count":43563,"type":"SCALAR","name":"Cylinder.026_indices#0"},{"bufferView":0,"byteOffset":3434220,"componentType":5126,"count":1024,"min":[-1.5370121002197266,-0.40369680523872378,-1.5370129346847535],"max":[1.5370159149169922,-0.04630257934331894,1.5370128154754639],"type":"VEC3","name":"Cylinder.033_vertices#0_POSITION"},{"bufferView":0,"byteOffset":3434232,"componentType":5120,"count":1024,"type":"VEC4","name":"Cylinder.033_vertices#0_TANGENT"},{"bufferView":0,"byteOffset":3434236,"componentType":5120,"count":1024,"type":"VEC4","name":"Cylinder.033_vertices#0_NORMAL"},{"bufferView":0,"byteOffset":3434240,"componentType":5122,"count":1024,"type":"VEC2","name":"Cylinder.033_vertices#0_TEXCOORD_0"},{"bufferView":0,"byteOffset":3434244,"componentType":5122,"count":1024,"type":"VEC2","name":"Cylinder.033_vertices#0_TEXCOORD_1"},{"bufferView":0,"byteOffset":3434248,"componentType":5123,"count":1024,"type":"VEC4","name":"Cylinder.033_vertices#0_COLOR_0"},{"bufferView":1,"byteOffset":645162,"componentType":5123,"count":3072,"type":"SCALAR","name":"Cylinder.033_indices#0"},{"bufferView":0,"byteOffset":3471084,"componentType":5126,"count":1879,"min":[-1.1243677139282227,-1.490465760231018,-0.988732635974884],"max":[1.1243677139282227,1.511478304862976,2.905888795852661],"type":"VEC3","name":"Cylinder.051_vertices#0_POSITION"},{"bufferView":0,"byteOffset":3471096,"componentType":5120,"count":1879,"type":"VEC4","name":"Cylinder.051_vertices#0_TANGENT"},{"bufferView":0,"byteOffset":3471100,"componentType":5120,"count":1879,"type":"VEC4","name":"Cylinder.051_vertices#0_NORMAL"},{"bufferView":0,"byteOffset":3471104,"componentType":5122,"count":1879,"type":"VEC2","name":"Cylinder.051_vertices#0_TEXCOORD_0"},{"bufferView":0,"byteOffset":3471108,"componentType":5122,"count":1879,"type":"VEC2","name":"Cylinder.051_vertices#0_TEXCOORD_1"},{"bufferView":0,"byteOffset":3471112,"componentType":5123,"count":1879,"type":"VEC4","name":"Cylinder.051_vertices#0_COLOR_0"},{"bufferView":1,"byteOffset":651306,"componentType":5123,"count":7032,"type":"SCALAR","name":"Cylinder.051_indices#0"},{"bufferView":0,"byteOffset":3538728,"componentType":5126,"count":3943,"min":[-1.949812412261963,-1.9346835613250733,-2.9586269855499269],"max":[1.949812412261963,1.8541680574417115,-0.19352440536022187],"type":"VEC3","name":"Circle.160_vertices#0_POSITION"},{"bufferView":0,"byteOffset":3538740,"componentType":5120,"count":3943,"type":"VEC4","name":"Circle.160_vertices#0_TANGENT"},{"bufferView":0,"byteOffset":3538744,"componentType":5120,"count":3943,"type":"VEC4","name":"Circle.160_vertices#0_NORMAL"},{"bufferView":0,"byteOffset":3538748,"componentType":5122,"count":3943,"type":"VEC2","name":"Circle.160_vertices#0_TEXCOORD_0"},{"bufferView":0,"byteOffset":3538752,"componentType":5122,"count":3943,"type":"VEC2","name":"Circle.160_vertices#0_TEXCOORD_1"},{"bufferView":0,"byteOffset":3538756,"componentType":5123,"count":3943,"type":"VEC4","name":"Circle.160_vertices#0_COLOR_0"},{"bufferView":1,"byteOffset":665370,"componentType":5123,"count":13164,"type":"SCALAR","name":"Circle.160_indices#0"},{"bufferView":0,"byteOffset":3680676,"componentType":5126,"count":20430,"min":[3.218968152999878,-1.6136128902435303,-15.606843948364258],"max":[39.86513900756836,2.4771173000335695,17.047138214111329],"type":"VEC3","name":"Cylinder.014_vertices#0_POSITION"},{"bufferView":0,"byteOffset":3680688,"componentType":5120,"count":20430,"type":"VEC4","name":"Cylinder.014_vertices#0_TANGENT"},{"bufferView":0,"byteOffset":3680692,"componentType":5120,"count":20430,"type":"VEC4","name":"Cylinder.014_vertices#0_NORMAL"},{"bufferView":0,"byteOffset":3680696,"componentType":5122,"count":20430,"type":"VEC2","name":"Cylinder.014_vertices#0_TEXCOORD_0"},{"bufferView":0,"byteOffset":3680700,"componentType":5122,"count":20430,"type":"VEC2","name":"Cylinder.014_vertices#0_TEXCOORD_1"},{"bufferView":0,"byteOffset":3680704,"componentType":5123,"count":20430,"type":"VEC4","name":"Cylinder.014_vertices#0_COLOR_0"},{"bufferView":1,"byteOffset":691698,"componentType":5123,"count":57459,"type":"SCALAR","name":"Cylinder.014_indices#1"},{"bufferView":0,"byteOffset":4416156,"componentType":5126,"count":2747,"min":[-1.949450135231018,-1.93442702293396,-2.724125385284424],"max":[1.949450135231018,1.854383945465088,0.04082898050546646],"type":"VEC3","name":"Circle.203_vertices#0_POSITION"},{"bufferView":0,"byteOffset":4416168,"componentType":5120,"count":2747,"type":"VEC4","name":"Circle.203_vertices#0_TANGENT"},{"bufferView":0,"byteOffset":4416172,"componentType":5120,"count":2747,"type":"VEC4","name":"Circle.203_vertices#0_NORMAL"},{"bufferView":0,"byteOffset":4416176,"componentType":5122,"count":2747,"type":"VEC2","name":"Circle.203_vertices#0_TEXCOORD_0"},{"bufferView":0,"byteOffset":4416180,"componentType":5122,"count":2747,"type":"VEC2","name":"Circle.203_vertices#0_TEXCOORD_1"},{"bufferView":0,"byteOffset":4416184,"componentType":5123,"count":2747,"type":"VEC4","name":"Circle.203_vertices#0_COLOR_0"},{"bufferView":1,"byteOffset":806616,"componentType":5123,"count":10206,"type":"SCALAR","name":"Circle.203_indices#0"},{"bufferView":0,"byteOffset":4515048,"componentType":5126,"count":6757,"min":[-0.6175497174263,-0.6175496578216553,-0.9706281423568726],"max":[0.6175498366355896,0.6175498366355896,0.5855215191841126],"type":"VEC3","name":"Cylinder.054_vertices#0_POSITION"},{"bufferView":0,"byteOffset":4515060,"componentType":5120,"count":6757,"type":"VEC4","name":"Cylinder.054_vertices#0_TANGENT"},{"bufferView":0,"byteOffset":4515064,"componentType":5120,"count":6757,"type":"VEC4","name":"Cylinder.054_vertices#0_NORMAL"},{"bufferView":0,"byteOffset":4515068,"componentType":5122,"count":6757,"type":"VEC2","name":"Cylinder.054_vertices#0_TEXCOORD_0"},{"bufferView":0,"byteOffset":4515072,"componentType":5122,"count":6757,"type":"VEC2","name":"Cylinder.054_vertices#0_TEXCOORD_1"},{"bufferView":0,"byteOffset":4515076,"componentType":5123,"count":6757,"type":"VEC4","name":"Cylinder.054_vertices#0_COLOR_0"},{"bufferView":1,"byteOffset":827028,"componentType":5123,"count":27654,"type":"SCALAR","name":"Cylinder.054_indices#0"},{"bufferView":0,"byteOffset":4758300,"componentType":5126,"count":3355,"min":[-1.9771474599838257,-1.9685255289077759,-1.6537048816680909],"max":[1.9771474599838257,2.0731353759765627,1.9504961967468262],"type":"VEC3","name":"Cylinder.021_vertices#0_POSITION"},{"bufferView":0,"byteOffset":4758312,"componentType":5120,"count":3355,"type":"VEC4","name":"Cylinder.021_vertices#0_TANGENT"},{"bufferView":0,"byteOffset":4758316,"componentType":5120,"count":3355,"type":"VEC4","name":"Cylinder.021_vertices#0_NORMAL"},{"bufferView":0,"byteOffset":4758320,"componentType":5122,"count":3355,"type":"VEC2","name":"Cylinder.021_vertices#0_TEXCOORD_0"},{"bufferView":0,"byteOffset":4758324,"componentType":5122,"count":3355,"type":"VEC2","name":"Cylinder.021_vertices#0_TEXCOORD_1"},{"bufferView":0,"byteOffset":4758328,"componentType":5123,"count":3355,"type":"VEC4","name":"Cylinder.021_vertices#0_COLOR_0"},{"bufferView":1,"byteOffset":882336,"componentType":5123,"count":11640,"type":"SCALAR","name":"Cylinder.021_indices#0"},{"bufferView":0,"byteOffset":4879080,"componentType":5126,"count":4984,"min":[-1.762786865234375,-1.838215947151184,1.7144999504089356],"max":[1.7626771926879883,1.7702929973602296,2.1545183658599855],"type":"VEC3","name":"Cylinder.022_vertices#0_POSITION"},{"bufferView":0,"byteOffset":4879092,"componentType":5120,"count":4984,"type":"VEC4","name":"Cylinder.022_vertices#0_TANGENT"},{"bufferView":0,"byteOffset":4879096,"componentType":5120,"count":4984,"type":"VEC4","name":"Cylinder.022_vertices#0_NORMAL"},{"bufferView":0,"byteOffset":4879100,"componentType":5122,"count":4984,"type":"VEC2","name":"Cylinder.022_vertices#0_TEXCOORD_0"},{"bufferView":0,"byteOffset":4879104,"componentType":5122,"count":4984,"type":"VEC2","name":"Cylinder.022_vertices#0_TEXCOORD_1"},{"bufferView":0,"byteOffset":4879108,"componentType":5123,"count":4984,"type":"VEC4","name":"Cylinder.022_vertices#0_COLOR_0"},{"bufferView":1,"byteOffset":905616,"componentType":5123,"count":25344,"type":"SCALAR","name":"Cylinder.022_indices#0"},{"bufferView":0,"byteOffset":5058504,"componentType":5126,"count":890,"min":[-1.5553243160247803,-1.4781256914138795,0.6444494128227234],"max":[1.5553243160247803,1.6423543691635132,1.8471413850784302],"type":"VEC3","name":"Cylinder.024_vertices#0_POSITION"},{"bufferView":0,"byteOffset":5058516,"componentType":5120,"count":890,"type":"VEC4","name":"Cylinder.024_vertices#0_TANGENT"},{"bufferView":0,"byteOffset":5058520,"componentType":5120,"count":890,"type":"VEC4","name":"Cylinder.024_vertices#0_NORMAL"},{"bufferView":0,"byteOffset":5058524,"componentType":5122,"count":890,"type":"VEC2","name":"Cylinder.024_vertices#0_TEXCOORD_0"},{"bufferView":0,"byteOffset":5058528,"componentType":5122,"count":890,"type":"VEC2","name":"Cylinder.024_vertices#0_TEXCOORD_1"},{"bufferView":0,"byteOffset":5058532,"componentType":5123,"count":890,"type":"VEC4","name":"Cylinder.024_vertices#0_COLOR_0"},{"bufferView":1,"byteOffset":956304,"componentType":5123,"count":3528,"type":"SCALAR","name":"Cylinder.024_indices#0"},{"bufferView":0,"byteOffset":5090544,"componentType":5126,"count":17207,"min":[-0.9449950456619263,0.6015306115150452,-8.13006591796875],"max":[0.5623739957809448,2.8342959880828859,1.9468836784362794],"type":"VEC3","name":"Cylinder.030_vertices#0_POSITION"},{"bufferView":0,"byteOffset":5090556,"componentType":5120,"count":17207,"type":"VEC4","name":"Cylinder.030_vertices#0_TANGENT"},{"bufferView":0,"byteOffset":5090560,"componentType":5120,"count":17207,"type":"VEC4","name":"Cylinder.030_vertices#0_NORMAL"},{"bufferView":0,"byteOffset":5090564,"componentType":5122,"count":17207,"type":"VEC2","name":"Cylinder.030_vertices#0_TEXCOORD_0"},{"bufferView":0,"byteOffset":5090568,"componentType":5122,"count":17207,"type":"VEC2","name":"Cylinder.030_vertices#0_TEXCOORD_1"},{"bufferView":0,"byteOffset":5090572,"componentType":5123,"count":17207,"type":"VEC4","name":"Cylinder.030_vertices#0_COLOR_0"},{"bufferView":1,"byteOffset":963360,"componentType":5123,"count":47514,"type":"SCALAR","name":"Cylinder.030_indices#0"},{"bufferView":0,"byteOffset":5709996,"componentType":5126,"count":1881,"min":[-1.1241202354431153,-1.4901376962661744,-0.9885150790214539],"max":[1.1241202354431153,1.5111455917358399,2.9052491188049318],"type":"VEC3","name":"Cylinder.055_vertices#0_POSITION"},{"bufferView":0,"byteOffset":5710008,"componentType":5120,"count":1881,"type":"VEC4","name":"Cylinder.055_vertices#0_TANGENT"},{"bufferView":0,"byteOffset":5710012,"componentType":5120,"count":1881,"type":"VEC4","name":"Cylinder.055_vertices#0_NORMAL"},{"bufferView":0,"byteOffset":5710016,"componentType":5122,"count":1881,"type":"VEC2","name":"Cylinder.055_vertices#0_TEXCOORD_0"},{"bufferView":0,"byteOffset":5710020,"componentType":5122,"count":1881,"type":"VEC2","name":"Cylinder.055_vertices#0_TEXCOORD_1"},{"bufferView":0,"byteOffset":5710024,"componentType":5123,"count":1881,"type":"VEC4","name":"Cylinder.055_vertices#0_COLOR_0"},{"bufferView":1,"byteOffset":1058388,"componentType":5123,"count":7032,"type":"SCALAR","name":"Cylinder.055_indices#0"},{"bufferView":0,"byteOffset":5777712,"componentType":5126,"count":1024,"min":[-1.5370121002197266,-0.40369680523872378,-1.5370129346847535],"max":[1.5370159149169922,-0.04630257934331894,1.5370128154754639],"type":"VEC3","name":"Cylinder.035_vertices#0_POSITION"},{"bufferView":0,"byteOffset":5777724,"componentType":5120,"count":1024,"type":"VEC4","name":"Cylinder.035_vertices#0_TANGENT"},{"bufferView":0,"byteOffset":5777728,"componentType":5120,"count":1024,"type":"VEC4","name":"Cylinder.035_vertices#0_NORMAL"},{"bufferView":0,"byteOffset":5777732,"componentType":5122,"count":1024,"type":"VEC2","name":"Cylinder.035_vertices#0_TEXCOORD_0"},{"bufferView":0,"byteOffset":5777736,"componentType":5122,"count":1024,"type":"VEC2","name":"Cylinder.035_vertices#0_TEXCOORD_1"},{"bufferView":0,"byteOffset":5777740,"componentType":5123,"count":1024,"type":"VEC4","name":"Cylinder.035_vertices#0_COLOR_0"},{"bufferView":1,"byteOffset":1072452,"componentType":5123,"count":3072,"type":"SCALAR","name":"Cylinder.035_indices#0"},{"bufferView":0,"byteOffset":5814576,"componentType":5126,"count":353,"min":[-0.6474968194961548,-1.4832847118377686,-0.647495687007904],"max":[0.6474931240081787,2.384185791015625e-7,0.647495687007904],"type":"VEC3","name":"Cylinder.040_vertices#0_POSITION"},{"bufferView":0,"byteOffset":5814588,"componentType":5120,"count":353,"type":"VEC4","name":"Cylinder.040_vertices#0_TANGENT"},{"bufferView":0,"byteOffset":5814592,"componentType":5120,"count":353,"type":"VEC4","name":"Cylinder.040_vertices#0_NORMAL"},{"bufferView":0,"byteOffset":5814596,"componentType":5122,"count":353,"type":"VEC2","name":"Cylinder.040_vertices#0_TEXCOORD_0"},{"bufferView":0,"byteOffset":5814600,"componentType":5122,"count":353,"type":"VEC2","name":"Cylinder.040_vertices#0_TEXCOORD_1"},{"bufferView":0,"byteOffset":5814604,"componentType":5123,"count":353,"type":"VEC4","name":"Cylinder.040_vertices#0_COLOR_0"},{"bufferView":1,"byteOffset":1078596,"componentType":5123,"count":2016,"type":"SCALAR","name":"Cylinder.040_indices#0"},{"bufferView":0,"byteOffset":5827284,"componentType":5126,"count":6761,"min":[-0.5054901838302612,-0.5054901242256165,-0.7944995760917664],"max":[0.505490243434906,0.505490243434906,0.4792737662792206],"type":"VEC3","name":"Cylinder.052_vertices#0_POSITION"},{"bufferView":0,"byteOffset":5827296,"componentType":5120,"count":6761,"type":"VEC4","name":"Cylinder.052_vertices#0_TANGENT"},{"bufferView":0,"byteOffset":5827300,"componentType":5120,"count":6761,"type":"VEC4","name":"Cylinder.052_vertices#0_NORMAL"},{"bufferView":0,"byteOffset":5827304,"componentType":5122,"count":6761,"type":"VEC2","name":"Cylinder.052_vertices#0_TEXCOORD_0"},{"bufferView":0,"byteOffset":5827308,"componentType":5122,"count":6761,"type":"VEC2","name":"Cylinder.052_vertices#0_TEXCOORD_1"},{"bufferView":0,"byteOffset":5827312,"componentType":5123,"count":6761,"type":"VEC4","name":"Cylinder.052_vertices#0_COLOR_0"},{"bufferView":1,"byteOffset":1082628,"componentType":5123,"count":27654,"type":"SCALAR","name":"Cylinder.052_indices#0"},{"bufferView":0,"byteOffset":6070680,"componentType":5126,"count":3351,"min":[-1.6183775663375855,-1.6113201379776,-1.3536263704299927],"max":[1.6183775663375855,1.6969475746154786,1.596562385559082],"type":"VEC3","name":"Cylinder.019_vertices#0_POSITION"},{"bufferView":0,"byteOffset":6070692,"componentType":5120,"count":3351,"type":"VEC4","name":"Cylinder.019_vertices#0_TANGENT"},{"bufferView":0,"byteOffset":6070696,"componentType":5120,"count":3351,"type":"VEC4","name":"Cylinder.019_vertices#0_NORMAL"},{"bufferView":0,"byteOffset":6070700,"componentType":5122,"count":3351,"type":"VEC2","name":"Cylinder.019_vertices#0_TEXCOORD_0"},{"bufferView":0,"byteOffset":6070704,"componentType":5122,"count":3351,"type":"VEC2","name":"Cylinder.019_vertices#0_TEXCOORD_1"},{"bufferView":0,"byteOffset":6070708,"componentType":5123,"count":3351,"type":"VEC4","name":"Cylinder.019_vertices#0_COLOR_0"},{"bufferView":1,"byteOffset":1137936,"componentType":5123,"count":11640,"type":"SCALAR","name":"Cylinder.019_indices#0"},{"bufferView":0,"byteOffset":6191316,"componentType":5126,"count":4984,"min":[-1.4429144859313965,-1.5046563148498536,1.403389573097229],"max":[1.4428247213363648,1.4490585327148438,1.7635630369186402],"type":"VEC3","name":"Cylinder.020_vertices#0_POSITION"},{"bufferView":0,"byteOffset":6191328,"componentType":5120,"count":4984,"type":"VEC4","name":"Cylinder.020_vertices#0_TANGENT"},{"bufferView":0,"byteOffset":6191332,"componentType":5120,"count":4984,"type":"VEC4","name":"Cylinder.020_vertices#0_NORMAL"},{"bufferView":0,"byteOffset":6191336,"componentType":5122,"count":4984,"type":"VEC2","name":"Cylinder.020_vertices#0_TEXCOORD_0"},{"bufferView":0,"byteOffset":6191340,"componentType":5122,"count":4984,"type":"VEC2","name":"Cylinder.020_vertices#0_TEXCOORD_1"},{"bufferView":0,"byteOffset":6191344,"componentType":5123,"count":4984,"type":"VEC4","name":"Cylinder.020_vertices#0_COLOR_0"},{"bufferView":1,"byteOffset":1161216,"componentType":5123,"count":25344,"type":"SCALAR","name":"Cylinder.020_indices#0"},{"bufferView":0,"byteOffset":6370740,"componentType":5126,"count":15130,"min":[-0.7142328023910523,0.6780942678451538,-11.039311408996582],"max":[0.5600133538246155,2.774827241897583,1.9534752368927003],"type":"VEC3","name":"Cylinder.029_vertices#0_POSITION"},{"bufferView":0,"byteOffset":6370752,"componentType":5120,"count":15130,"type":"VEC4","name":"Cylinder.029_vertices#0_TANGENT"},{"bufferView":0,"byteOffset":6370756,"componentType":5120,"count":15130,"type":"VEC4","name":"Cylinder.029_vertices#0_NORMAL"},{"bufferView":0,"byteOffset":6370760,"componentType":5122,"count":15130,"type":"VEC2","name":"Cylinder.029_vertices#0_TEXCOORD_0"},{"bufferView":0,"byteOffset":6370764,"componentType":5122,"count":15130,"type":"VEC2","name":"Cylinder.029_vertices#0_TEXCOORD_1"},{"bufferView":0,"byteOffset":6370768,"componentType":5123,"count":15130,"type":"VEC4","name":"Cylinder.029_vertices#0_COLOR_0"},{"bufferView":1,"byteOffset":1211904,"componentType":5123,"count":43563,"type":"SCALAR","name":"Cylinder.029_indices#0"},{"bufferView":0,"byteOffset":6915420,"componentType":5126,"count":1024,"min":[-1.5370121002197266,-0.40369680523872378,-1.5370129346847535],"max":[1.5370159149169922,-0.04630257934331894,1.5370128154754639],"type":"VEC3","name":"Cylinder.034_vertices#0_POSITION"},{"bufferView":0,"byteOffset":6915432,"componentType":5120,"count":1024,"type":"VEC4","name":"Cylinder.034_vertices#0_TANGENT"},{"bufferView":0,"byteOffset":6915436,"componentType":5120,"count":1024,"type":"VEC4","name":"Cylinder.034_vertices#0_NORMAL"},{"bufferView":0,"byteOffset":6915440,"componentType":5122,"count":1024,"type":"VEC2","name":"Cylinder.034_vertices#0_TEXCOORD_0"},{"bufferView":0,"byteOffset":6915444,"componentType":5122,"count":1024,"type":"VEC2","name":"Cylinder.034_vertices#0_TEXCOORD_1"},{"bufferView":0,"byteOffset":6915448,"componentType":5123,"count":1024,"type":"VEC4","name":"Cylinder.034_vertices#0_COLOR_0"},{"bufferView":1,"byteOffset":1299030,"componentType":5123,"count":3072,"type":"SCALAR","name":"Cylinder.034_indices#0"},{"bufferView":0,"byteOffset":6952284,"componentType":5126,"count":1881,"min":[-0.9201392531394959,-1.2197397947311402,-0.8091407418251038],"max":[0.9201392531394959,1.2369356155395508,2.3780674934387209],"type":"VEC3","name":"Cylinder.053_vertices#0_POSITION"},{"bufferView":0,"byteOffset":6952296,"componentType":5120,"count":1881,"type":"VEC4","name":"Cylinder.053_vertices#0_TANGENT"},{"bufferView":0,"byteOffset":6952300,"componentType":5120,"count":1881,"type":"VEC4","name":"Cylinder.053_vertices#0_NORMAL"},{"bufferView":0,"byteOffset":6952304,"componentType":5122,"count":1881,"type":"VEC2","name":"Cylinder.053_vertices#0_TEXCOORD_0"},{"bufferView":0,"byteOffset":6952308,"componentType":5122,"count":1881,"type":"VEC2","name":"Cylinder.053_vertices#0_TEXCOORD_1"},{"bufferView":0,"byteOffset":6952312,"componentType":5123,"count":1881,"type":"VEC4","name":"Cylinder.053_vertices#0_COLOR_0"},{"bufferView":1,"byteOffset":1305174,"componentType":5123,"count":7032,"type":"SCALAR","name":"Cylinder.053_indices#0"},{"bufferView":0,"byteOffset":7020000,"componentType":5126,"count":3939,"min":[-1.949812412261963,-1.9346835613250733,-2.9586269855499269],"max":[1.949812412261963,1.8541680574417115,-0.19352440536022187],"type":"VEC3","name":"Circle.188_vertices#0_POSITION"},{"bufferView":0,"byteOffset":7020012,"componentType":5120,"count":3939,"type":"VEC4","name":"Circle.188_vertices#0_TANGENT"},{"bufferView":0,"byteOffset":7020016,"componentType":5120,"count":3939,"type":"VEC4","name":"Circle.188_vertices#0_NORMAL"},{"bufferView":0,"byteOffset":7020020,"componentType":5122,"count":3939,"type":"VEC2","name":"Circle.188_vertices#0_TEXCOORD_0"},{"bufferView":0,"byteOffset":7020024,"componentType":5122,"count":3939,"type":"VEC2","name":"Circle.188_vertices#0_TEXCOORD_1"},{"bufferView":0,"byteOffset":7020028,"componentType":5123,"count":3939,"type":"VEC4","name":"Circle.188_vertices#0_COLOR_0"},{"bufferView":1,"byteOffset":1319238,"componentType":5123,"count":13164,"type":"SCALAR","name":"Circle.188_indices#0"}],"asset":{"generator":"Khronos glTF Blender I/O v4.2.83 and Asobo Studio MSFS2024 Blender I/O v6.4.4 with Blender v4.2.16","version":"2.0","extensions":{"ASOBO_asset_optimized":{"BoundingBoxMax":[500.15869140625,2.4771173000335695,504.6920166015625],"BoundingBoxMin":[-499.84136962890627,-4.031695365905762,-495.30804443359377],"MajorVersion":4,"MinorVersion":7,"UseCheckerboardMaterialForMissingTextures":true,"UseOnlyFilenameForImageURI":true},"ASOBO_normal_map_convention":{"tangent_space_convention":"DirectX"}}},"bufferViews":[{"buffer":0,"byteLength":7161804,"byteStride":36,"target":34962,"name":"BufferViewVertexND"},{"buffer":0,"byteLength":1345566,"byteOffset":7161804,"target":34963,"name":"BufferViewIndexU16"}],"extensionsRequired":["MSFT_texture_dds"],"materials":[{"name":"Material.002","extensions":{"ASOBO_material_invisible":{}}},{"name":"A380_EXTERIOR_WING2","normalTexture":{"index":0},"pbrMetallicRoughness":{"baseColorTexture":{"index":2},"metallicRoughnessTexture":{"index":1}}},{"name":"A380_EXTERIOR_WING2_2","normalTexture":{"index":3},"pbrMetallicRoughness":{"baseColorTexture":{"index":5},"metallicRoughnessTexture":{"index":4}}},{"name":"A380_EXTERIOR_ENG_RH","normalTexture":{"index":6},"pbrMetallicRoughness":{"baseColorTexture":{"index":8},"metallicRoughnessTexture":{"index":7}}},{"name":"A380_EXTERTIOR_PYLON","normalTexture":{"index":9},"pbrMetallicRoughness":{"baseColorTexture":{"index":11},"metallicRoughnessTexture":{"index":10}}},{"name":"A380X_FAN_BLUR2_BLEND","alphaMode":"BLEND","doubleSided":true,"pbrMetallicRoughness":{"baseColorTexture":{"index":13},"metallicRoughnessTexture":{"index":12}}},{"name":"A380_EXTERTIOR_FAN","normalTexture":{"index":14},"pbrMetallicRoughness":{"baseColorTexture":{"index":16},"metallicRoughnessTexture":{"index":15}},"extensions":{"ASOBO_material_disable_motion_blur":{}}},{"name":"A380_EXTERIOR_WING1","normalTexture":{"index":17},"pbrMetallicRoughness":{"baseColorTexture":{"index":19},"metallicRoughnessTexture":{"index":18}}},{"name":"A380_EXTERIOR_WING1_2","normalTexture":{"index":20},"pbrMetallicRoughness":{"baseColorTexture":{"index":22},"metallicRoughnessTexture":{"index":21}}},{"name":"A380_EXTERIOR_ENG_LH","normalTexture":{"index":23},"pbrMetallicRoughness":{"baseColorTexture":{"index":25},"metallicRoughnessTexture":{"index":24}}},{"name":"A380X_FAN_BLUR1_BLEND","alphaMode":"BLEND","doubleSided":true,"pbrMetallicRoughness":{"baseColorTexture":{"index":27},"metallicRoughnessTexture":{"index":26}}},{"name":"A380X_FAN_BLUR4","pbrMetallicRoughness":{"baseColorTexture":{"index":29},"metallicRoughnessTexture":{"index":28}}}],"meshes":[{"primitives":[{"attributes":{"COLOR_0":5,"NORMAL":2,"POSITION":0,"TANGENT":1,"TEXCOORD_0":3,"TEXCOORD_1":4},"indices":6,"material":0,"mode":4,"extras":{"ASOBO_primitive":{"PrimitiveCount":12,"UV2Length":0.625,"UVLength":0.625,"VertexCount":24,"VertexType":"VTX","VertexVersion":2}}}],"name":"Cube.011"},{"primitives":[{"attributes":{"COLOR_0":12,"NORMAL":9,"POSITION":7,"TANGENT":8,"TEXCOORD_0":10,"TEXCOORD_1":11},"indices":13,"material":1,"mode":4,"extras":{"ASOBO_primitive":{"PrimitiveCount":11132,"UV2Length":0.0,"UVLength":0.7007479071617127,"VertexCount":10733,"VertexType":"VTX","VertexVersion":2}}},{"attributes":{"COLOR_0":12,"NORMAL":9,"POSITION":7,"TANGENT":8,"TEXCOORD_0":10,"TEXCOORD_1":11},"indices":13,"material":2,"mode":4,"extras":{"ASOBO_primitive":{"BaseVertexIndex":10733,"PrimitiveCount":7986,"StartIndex":33396,"UV2Length":0.0,"UVLength":0.6987137198448181,"VertexCount":9660,"VertexType":"VTX","VertexVersion":2}}}],"name":"Cylinder.003"},{"primitives":[{"attributes":{"COLOR_0":19,"NORMAL":16,"POSITION":14,"TANGENT":15,"TEXCOORD_0":17,"TEXCOORD_1":18},"indices":20,"material":3,"mode":4,"extras":{"ASOBO_primitive":{"PrimitiveCount":3402,"UV2Length":0.5975023508071899,"UVLength":0.5975023508071899,"VertexCount":2747,"VertexType":"VTX","VertexVersion":2}}}],"name":"Circle.074"},{"primitives":[{"attributes":{"COLOR_0":26,"NORMAL":23,"POSITION":21,"TANGENT":22,"TEXCOORD_0":24,"TEXCOORD_1":25},"indices":27,"material":3,"mode":4,"extras":{"ASOBO_primitive":{"PrimitiveCount":9218,"UV2Length":0.6234523057937622,"UVLength":0.6234523057937622,"VertexCount":6757,"VertexType":"VTX","VertexVersion":2}}}],"name":"Cylinder.048"},{"primitives":[{"attributes":{"COLOR_0":33,"NORMAL":30,"POSITION":28,"TANGENT":29,"TEXCOORD_0":31,"TEXCOORD_1":32},"indices":34,"material":3,"mode":4,"extras":{"ASOBO_primitive":{"PrimitiveCount":3880,"UV2Length":0.6685883402824402,"UVLength":0.6685883402824402,"VertexCount":3361,"VertexType":"VTX","VertexVersion":2}}}],"name":"Cylinder.015"},{"primitives":[{"attributes":{"COLOR_0":40,"NORMAL":37,"POSITION":35,"TANGENT":36,"TEXCOORD_0":38,"TEXCOORD_1":39},"indices":41,"material":3,"mode":4,"extras":{"ASOBO_primitive":{"PrimitiveCount":8448,"UV2Length":0.648915708065033,"UVLength":0.648915708065033,"VertexCount":4984,"VertexType":"VTX","VertexVersion":2}}}],"name":"Cylinder.016"},{"primitives":[{"attributes":{"COLOR_0":47,"NORMAL":44,"POSITION":42,"TANGENT":43,"TEXCOORD_0":45,"TEXCOORD_1":46},"indices":48,"material":3,"mode":4,"extras":{"ASOBO_primitive":{"PrimitiveCount":1176,"UV2Length":0.37374797463417055,"UVLength":0.37374797463417055,"VertexCount":896,"VertexType":"VTX","VertexVersion":2}}}],"name":"Cylinder.023"},{"primitives":[{"attributes":{"COLOR_0":54,"NORMAL":51,"POSITION":49,"TANGENT":50,"TEXCOORD_0":52,"TEXCOORD_1":53},"indices":55,"material":4,"mode":4,"extras":{"ASOBO_primitive":{"PrimitiveCount":15838,"UV2Length":0.7048211097717285,"UVLength":0.7048211097717285,"VertexCount":16146,"VertexType":"VTX","VertexVersion":2}}}],"name":"Cylinder.025"},{"primitives":[{"attributes":{"COLOR_0":61,"NORMAL":58,"POSITION":56,"TANGENT":57,"TEXCOORD_0":59,"TEXCOORD_1":60},"indices":62,"material":3,"mode":4,"extras":{"ASOBO_primitive":{"PrimitiveCount":2344,"UV2Length":0.6933763027191162,"UVLength":0.6933763027191162,"VertexCount":1881,"VertexType":"VTX","VertexVersion":2}}}],"name":"Cylinder.049"},{"primitives":[{"attributes":{"COLOR_0":68,"NORMAL":65,"POSITION":63,"TANGENT":64,"TEXCOORD_0":66,"TEXCOORD_1":67},"indices":69,"material":5,"mode":4,"extras":{"ASOBO_primitive":{"PrimitiveCount":1024,"UV2Length":0.6826598644256592,"UVLength":0.6826598644256592,"VertexCount":1024,"VertexType":"VTX","VertexVersion":2}}}],"name":"Cylinder.032"},{"primitives":[{"attributes":{"COLOR_0":75,"NORMAL":72,"POSITION":70,"TANGENT":71,"TEXCOORD_0":73,"TEXCOORD_1":74},"indices":76,"material":6,"mode":4,"extras":{"ASOBO_primitive":{"PrimitiveCount":7000,"UV2Length":0.7035921216011047,"UVLength":0.7035921216011047,"VertexCount":6539,"VertexType":"VTX","VertexVersion":2}}}],"name":"Cylinder.031"},{"primitives":[{"attributes":{"COLOR_0":82,"NORMAL":79,"POSITION":77,"TANGENT":78,"TEXCOORD_0":80,"TEXCOORD_1":81},"indices":83,"material":3,"mode":4,"extras":{"ASOBO_primitive":{"PrimitiveCount":9218,"UV2Length":0.6492099761962891,"UVLength":0.6492099761962891,"VertexCount":6769,"VertexType":"VTX","VertexVersion":2}}}],"name":"Cylinder.050"},{"primitives":[{"attributes":{"COLOR_0":89,"NORMAL":86,"POSITION":84,"TANGENT":85,"TEXCOORD_0":87,"TEXCOORD_1":88},"indices":90,"material":3,"mode":4,"extras":{"ASOBO_primitive":{"PrimitiveCount":3880,"UV2Length":0.6800844669342041,"UVLength":0.6800844669342041,"VertexCount":3359,"VertexType":"VTX","VertexVersion":2}}}],"name":"Cylinder.017"},{"primitives":[{"attributes":{"COLOR_0":96,"NORMAL":93,"POSITION":91,"TANGENT":92,"TEXCOORD_0":94,"TEXCOORD_1":95},"indices":97,"material":3,"mode":4,"extras":{"ASOBO_primitive":{"PrimitiveCount":8448,"UV2Length":0.6493678689002991,"UVLength":0.6493678689002991,"VertexCount":4984,"VertexType":"VTX","VertexVersion":2}}}],"name":"Cylinder.018"},{"primitives":[{"attributes":{"COLOR_0":103,"NORMAL":100,"POSITION":98,"TANGENT":99,"TEXCOORD_0":101,"TEXCOORD_1":102},"indices":104,"material":4,"mode":4,"extras":{"ASOBO_primitive":{"PrimitiveCount":14521,"UV2Length":0.7048848271369934,"UVLength":0.7048848271369934,"VertexCount":15531,"VertexType":"VTX","VertexVersion":2}}}],"name":"Cylinder.026"},{"primitives":[{"attributes":{"COLOR_0":110,"NORMAL":107,"POSITION":105,"TANGENT":106,"TEXCOORD_0":108,"TEXCOORD_1":109},"indices":111,"material":5,"mode":4,"extras":{"ASOBO_primitive":{"PrimitiveCount":1024,"UV2Length":0.6826598644256592,"UVLength":0.6826598644256592,"VertexCount":1024,"VertexType":"VTX","VertexVersion":2}}}],"name":"Cylinder.033"},{"primitives":[{"attributes":{"COLOR_0":117,"NORMAL":114,"POSITION":112,"TANGENT":113,"TEXCOORD_0":115,"TEXCOORD_1":116},"indices":118,"material":3,"mode":4,"extras":{"ASOBO_primitive":{"PrimitiveCount":2344,"UV2Length":0.6293838024139404,"UVLength":0.6293838024139404,"VertexCount":1879,"VertexType":"VTX","VertexVersion":2}}}],"name":"Cylinder.051"},{"primitives":[{"attributes":{"COLOR_0":124,"NORMAL":121,"POSITION":119,"TANGENT":120,"TEXCOORD_0":122,"TEXCOORD_1":123},"indices":125,"material":3,"mode":4,"extras":{"ASOBO_primitive":{"PrimitiveCount":4388,"UV2Length":0.7032790780067444,"UVLength":0.7032790780067444,"VertexCount":3943,"VertexType":"VTX","VertexVersion":2}}}],"name":"Circle.160"},{"primitives":[{"attributes":{"COLOR_0":131,"NORMAL":128,"POSITION":126,"TANGENT":127,"TEXCOORD_0":129,"TEXCOORD_1":130},"indices":132,"material":7,"mode":4,"extras":{"ASOBO_primitive":{"PrimitiveCount":11167,"UV2Length":0.0,"UVLength":0.7006496787071228,"VertexCount":10724,"VertexType":"VTX","VertexVersion":2}}},{"attributes":{"COLOR_0":131,"NORMAL":128,"POSITION":126,"TANGENT":127,"TEXCOORD_0":129,"TEXCOORD_1":130},"indices":132,"material":8,"mode":4,"extras":{"ASOBO_primitive":{"BaseVertexIndex":10724,"PrimitiveCount":7986,"StartIndex":33501,"UV2Length":0.0,"UVLength":0.6890474557876587,"VertexCount":9706,"VertexType":"VTX","VertexVersion":2}}}],"name":"Cylinder.014"},{"primitives":[{"attributes":{"COLOR_0":138,"NORMAL":135,"POSITION":133,"TANGENT":134,"TEXCOORD_0":136,"TEXCOORD_1":137},"indices":139,"material":9,"mode":4,"extras":{"ASOBO_primitive":{"PrimitiveCount":3402,"UV2Length":0.6615719199180603,"UVLength":0.6615719199180603,"VertexCount":2747,"VertexType":"VTX","VertexVersion":2}}}],"name":"Circle.203"},{"primitives":[{"attributes":{"COLOR_0":145,"NORMAL":142,"POSITION":140,"TANGENT":141,"TEXCOORD_0":143,"TEXCOORD_1":144},"indices":146,"material":9,"mode":4,"extras":{"ASOBO_primitive":{"PrimitiveCount":9218,"UV2Length":0.6555032730102539,"UVLength":0.6555032730102539,"VertexCount":6757,"VertexType":"VTX","VertexVersion":2}}}],"name":"Cylinder.054"},{"primitives":[{"attributes":{"COLOR_0":152,"NORMAL":149,"POSITION":147,"TANGENT":148,"TEXCOORD_0":150,"TEXCOORD_1":151},"indices":153,"material":9,"mode":4,"extras":{"ASOBO_primitive":{"PrimitiveCount":3880,"UV2Length":0.7024062871932983,"UVLength":0.7024062871932983,"VertexCount":3355,"VertexType":"VTX","VertexVersion":2}}}],"name":"Cylinder.021"},{"primitives":[{"attributes":{"COLOR_0":159,"NORMAL":156,"POSITION":154,"TANGENT":155,"TEXCOORD_0":157,"TEXCOORD_1":158},"indices":160,"material":9,"mode":4,"extras":{"ASOBO_primitive":{"PrimitiveCount":8448,"UV2Length":0.6971058249473572,"UVLength":0.6971058249473572,"VertexCount":4984,"VertexType":"VTX","VertexVersion":2}}}],"name":"Cylinder.022"},{"primitives":[{"attributes":{"COLOR_0":166,"NORMAL":163,"POSITION":161,"TANGENT":162,"TEXCOORD_0":164,"TEXCOORD_1":165},"indices":167,"material":9,"mode":4,"extras":{"ASOBO_primitive":{"PrimitiveCount":1176,"UV2Length":0.3482329249382019,"UVLength":0.3482329249382019,"VertexCount":890,"VertexType":"VTX","VertexVersion":2}}}],"name":"Cylinder.024"},{"primitives":[{"attributes":{"COLOR_0":173,"NORMAL":170,"POSITION":168,"TANGENT":169,"TEXCOORD_0":171,"TEXCOORD_1":172},"indices":174,"material":4,"mode":4,"extras":{"ASOBO_primitive":{"PrimitiveCount":15838,"UV2Length":0.7048211097717285,"UVLength":0.7048211097717285,"VertexCount":17207,"VertexType":"VTX","VertexVersion":2}}}],"name":"Cylinder.030"},{"primitives":[{"attributes":{"COLOR_0":180,"NORMAL":177,"POSITION":175,"TANGENT":176,"TEXCOORD_0":178,"TEXCOORD_1":179},"indices":181,"material":9,"mode":4,"extras":{"ASOBO_primitive":{"PrimitiveCount":2344,"UV2Length":0.6570157408714294,"UVLength":0.6570157408714294,"VertexCount":1881,"VertexType":"VTX","VertexVersion":2}}}],"name":"Cylinder.055"},{"primitives":[{"attributes":{"COLOR_0":187,"NORMAL":184,"POSITION":182,"TANGENT":183,"TEXCOORD_0":185,"TEXCOORD_1":186},"indices":188,"material":10,"mode":4,"extras":{"ASOBO_primitive":{"PrimitiveCount":1024,"UV2Length":0.6826598644256592,"UVLength":0.6826598644256592,"VertexCount":1024,"VertexType":"VTX","VertexVersion":2}}}],"name":"Cylinder.035"},{"primitives":[{"attributes":{"COLOR_0":194,"NORMAL":191,"POSITION":189,"TANGENT":190,"TEXCOORD_0":192,"TEXCOORD_1":193},"indices":195,"material":11,"mode":4,"extras":{"ASOBO_primitive":{"PrimitiveCount":672,"UV2Length":0.06852767616510391,"UVLength":0.06852767616510391,"VertexCount":353,"VertexType":"VTX","VertexVersion":2}}}],"name":"Cylinder.040"},{"primitives":[{"attributes":{"COLOR_0":201,"NORMAL":198,"POSITION":196,"TANGENT":197,"TEXCOORD_0":199,"TEXCOORD_1":200},"indices":202,"material":9,"mode":4,"extras":{"ASOBO_primitive":{"PrimitiveCount":9218,"UV2Length":0.638918399810791,"UVLength":0.638918399810791,"VertexCount":6761,"VertexType":"VTX","VertexVersion":2}}}],"name":"Cylinder.052"},{"primitives":[{"attributes":{"COLOR_0":208,"NORMAL":205,"POSITION":203,"TANGENT":204,"TEXCOORD_0":206,"TEXCOORD_1":207},"indices":209,"material":9,"mode":4,"extras":{"ASOBO_primitive":{"PrimitiveCount":3880,"UV2Length":0.6804729700088501,"UVLength":0.6804729700088501,"VertexCount":3351,"VertexType":"VTX","VertexVersion":2}}}],"name":"Cylinder.019"},{"primitives":[{"attributes":{"COLOR_0":215,"NORMAL":212,"POSITION":210,"TANGENT":211,"TEXCOORD_0":213,"TEXCOORD_1":214},"indices":216,"material":9,"mode":4,"extras":{"ASOBO_primitive":{"PrimitiveCount":8448,"UV2Length":0.6590119004249573,"UVLength":0.6590119004249573,"VertexCount":4984,"VertexType":"VTX","VertexVersion":2}}}],"name":"Cylinder.020"},{"primitives":[{"attributes":{"COLOR_0":222,"NORMAL":219,"POSITION":217,"TANGENT":218,"TEXCOORD_0":220,"TEXCOORD_1":221},"indices":223,"material":4,"mode":4,"extras":{"ASOBO_primitive":{"PrimitiveCount":14521,"UV2Length":0.7048848271369934,"UVLength":0.7048848271369934,"VertexCount":15130,"VertexType":"VTX","VertexVersion":2}}}],"name":"Cylinder.029"},{"primitives":[{"attributes":{"COLOR_0":229,"NORMAL":226,"POSITION":224,"TANGENT":225,"TEXCOORD_0":227,"TEXCOORD_1":228},"indices":230,"material":5,"mode":4,"extras":{"ASOBO_primitive":{"PrimitiveCount":1024,"UV2Length":0.6826598644256592,"UVLength":0.6826598644256592,"VertexCount":1024,"VertexType":"VTX","VertexVersion":2}}}],"name":"Cylinder.034"},{"primitives":[{"attributes":{"COLOR_0":236,"NORMAL":233,"POSITION":231,"TANGENT":232,"TEXCOORD_0":234,"TEXCOORD_1":235},"indices":237,"material":9,"mode":4,"extras":{"ASOBO_primitive":{"PrimitiveCount":2344,"UV2Length":0.6617295145988464,"UVLength":0.6617295145988464,"VertexCount":1881,"VertexType":"VTX","VertexVersion":2}}}],"name":"Cylinder.053"},{"primitives":[{"attributes":{"COLOR_0":243,"NORMAL":240,"POSITION":238,"TANGENT":239,"TEXCOORD_0":241,"TEXCOORD_1":242},"indices":244,"material":9,"mode":4,"extras":{"ASOBO_primitive":{"PrimitiveCount":4388,"UV2Length":0.7027475237846375,"UVLength":0.7027475237846375,"VertexCount":3939,"VertexType":"VTX","VertexVersion":2}}}],"name":"Circle.188"}],"nodes":[{"translation":[0.15867003798484803,-2.538243293762207,4.6919708251953129],"mesh":0,"extensions":{"ASOBO_unique_id":{"id":"A380_BOUNDS_LARGE"}},"name":"A380_BOUNDS_LARGE"},{"extensions":{"ASOBO_unique_id":{"id":"ATTACH_CENTER"}},"name":"ATTACH_CENTER"},{"translation":[0.0,0.0,-0.000002384185791015625],"mesh":1,"extensions":{"ASOBO_unique_id":{"id":"LIGHT_ASOBO_LandingLeft.002"}},"name":"LIGHT_ASOBO_LandingLeft.002"},{"translation":[-25.77788543701172,-0.5154609084129334,1.0291153192520142],"rotation":[-0.01404266431927681,0.005653479136526585,-0.002079955069348216,0.9998832941055298],"mesh":2,"extensions":{"ASOBO_unique_id":{"id":"Bucket.028"}},"name":"Bucket.028"},{"translation":[-25.818817138671876,-0.616520881652832,-2.5709896087646486],"rotation":[-0.01404266431927681,0.005653479136526585,-0.002079955069348216,0.9998832941055298],"mesh":3,"extensions":{"ASOBO_unique_id":{"id":"ConeHolder.013"}},"name":"ConeHolder.013"},{"translation":[-25.759004592895509,-0.5564179420471191,2.723759174346924],"rotation":[-0.01404266431927681,0.005653479136526585,-0.002079955069348216,0.9998832941055298],"mesh":4,"extensions":{"ASOBO_unique_id":{"id":"FrontCase.040"}},"name":"FrontCase.040"},{"translation":[-25.759004592895509,-0.5564179420471191,2.723759174346924],"rotation":[-0.01404266431927681,0.005653479136526585,-0.002079955069348216,0.9998832941055298],"mesh":5,"extensions":{"ASOBO_unique_id":{"id":"FrontCase.041"}},"name":"FrontCase.041"},{"translation":[-25.759004592895509,-0.5564179420471191,2.723759174346924],"rotation":[-0.01404266431927681,0.005653479136526585,-0.002079955069348216,0.9998832941055298],"mesh":6,"extensions":{"ASOBO_unique_id":{"id":"FrontCase.048"}},"name":"FrontCase.048"},{"translation":[-25.776683807373048,-0.5005956888198853,1.2652651071548463],"rotation":[-0.014609184116125109,-0.004471033811569214,-0.002166691003367305,0.9998810291290284],"mesh":7,"extensions":{"ASOBO_unique_id":{"id":"FrontCase.052"}},"name":"FrontCase.052"},{"translation":[-25.79943466186523,-0.5686659812927246,-0.8662351369857788],"rotation":[-0.01404266431927681,0.005653479136526585,-0.002079955069348216,0.9998832941055298],"mesh":8,"extensions":{"ASOBO_unique_id":{"id":"InnerShell.013"}},"name":"InnerShell.013"},{"translation":[-25.762388229370118,-0.4409319758415222,3.3029141426086427],"rotation":[0.19728954136371613,0.6882076859474182,0.6681928634643555,0.20239901542663578],"mesh":9,"extensions":{"ASOBO_unique_id":{"id":"FAN_BLADE_BLUR2_4.001"}},"name":"FAN_BLADE_BLUR2_4.001"},{"translation":[-25.76668357849121,-0.5563666224479675,-0.7433034777641296],"rotation":[0.6967077851295471,-0.001106184790842235,-0.001819424331188202,0.7173518538475037],"mesh":10,"extensions":{"ASOBO_unique_id":{"id":"SPINNER_STILL_4.001"}},"name":"SPINNER_STILL_4.001"},{"translation":[-14.87300968170166,-1.0840775966644288,5.403443336486816],"rotation":[-0.002022347878664732,0.00006892497913213447,0.000022546764739672655,0.9999979734420776],"mesh":11,"extensions":{"ASOBO_unique_id":{"id":"ConeHolder.014"}},"name":"ConeHolder.014"},{"translation":[-14.87227725982666,-1.1511701345443726,10.699614524841309],"rotation":[-0.002022347878664732,0.00006892497913213447,0.000022546764739672655,0.9999979734420776],"mesh":12,"extensions":{"ASOBO_unique_id":{"id":"FrontCase.042"}},"name":"FrontCase.042"},{"translation":[-14.87227725982666,-1.1511701345443726,10.699614524841309],"rotation":[-0.002022347878664732,0.00006892497913213447,0.000022546764739672655,0.9999979734420776],"mesh":13,"extensions":{"ASOBO_unique_id":{"id":"FrontCase.043"}},"name":"FrontCase.043"},{"translation":[-14.87227725982666,-1.1511701345443726,10.699614524841309],"rotation":[-0.002022347878664732,0.00006892497913213447,0.000022546764739672655,0.9999979734420776],"mesh":6,"extensions":{"ASOBO_unique_id":{"id":"FrontCase.049"}},"name":"FrontCase.049"},{"translation":[-14.872154235839844,-1.070905685424805,9.24804401397705],"rotation":[-0.003825826570391655,0.00006888417556183413,0.00002267090167151764,0.9999926686286926],"mesh":14,"extensions":{"ASOBO_unique_id":{"id":"FrontCase.053"}},"name":"FrontCase.053"},{"translation":[-14.873796463012696,-1.0548295974731444,11.337575912475586],"rotation":[0.7039312720298767,-0.0256954375654459,-0.02559620887041092,0.7093414664268494],"mesh":15,"extensions":{"ASOBO_unique_id":{"id":"FAN_BLADE_BLUR2_3.001"}},"name":"FAN_BLADE_BLUR2_3.001"},{"translation":[-14.874385833740235,-1.083433747291565,7.238114833831787],"rotation":[0.7043964266777039,0.00006467899220297113,-0.000032732841646065938,0.7098068594932556],"mesh":10,"extensions":{"ASOBO_unique_id":{"id":"SPINNER_STILL_3.001"}},"name":"SPINNER_STILL_3.001"},{"translation":[-14.872774124145508,-1.0771777629852296,7.109340667724609],"rotation":[-0.002022347878664732,0.00006892497913213447,0.000022546764739672655,0.9999979734420776],"mesh":16,"extensions":{"ASOBO_unique_id":{"id":"InnerShell.014"}},"name":"InnerShell.014"},{"translation":[-14.872488021850586,-1.0684102773666382,9.180541038513184],"rotation":[-0.002022347878664732,0.00006892497913213447,0.000022546764739672655,0.9999979734420776],"mesh":17,"extensions":{"ASOBO_unique_id":{"id":"Bucket.029"}},"name":"Bucket.029"},{"translation":[0.000005602835699392017,0.0,-0.000003814697265625],"mesh":18,"extensions":{"ASOBO_unique_id":{"id":"Cylinder.003"}},"name":"Cylinder.003"},{"translation":[25.806177139282228,-0.5189194679260254,1.0221920013427735],"rotation":[-0.01713724248111248,-0.005754413548856974,0.006380259059369564,0.9998162388801576],"mesh":19,"extensions":{"ASOBO_unique_id":{"id":"Bucket.031"}},"name":"Bucket.031"},{"translation":[25.848405838012697,-0.642080545425415,-2.57720947265625],"rotation":[-0.01713724248111248,-0.005754413548856974,0.006380259059369564,0.9998162388801576],"mesh":20,"extensions":{"ASOBO_unique_id":{"id":"ConeHolder.016"}},"name":"ConeHolder.016"},{"translation":[25.787431716918947,-0.5494648218154907,2.7170567512512209],"rotation":[-0.01713724248111248,-0.005754413548856974,0.006380259059369564,0.9998162388801576],"mesh":21,"extensions":{"ASOBO_unique_id":{"id":"FrontCase.046"}},"name":"FrontCase.046"},{"translation":[25.787431716918947,-0.5494648218154907,2.7170567512512209],"rotation":[-0.01713724248111248,-0.005754413548856974,0.006380259059369564,0.9998162388801576],"mesh":22,"extensions":{"ASOBO_unique_id":{"id":"FrontCase.047"}},"name":"FrontCase.047"},{"translation":[25.787431716918947,-0.5494648218154907,2.7170567512512209],"rotation":[-0.01713724248111248,-0.005754413548856974,0.006380259059369564,0.9998162388801576],"mesh":23,"extensions":{"ASOBO_unique_id":{"id":"FrontCase.051"}},"name":"FrontCase.051"},{"translation":[25.803478240966798,-0.5012295842170715,1.2652636766433716],"rotation":[-0.014569549821317196,-0.004774976056069136,0.006488379556685686,0.9998614192008972],"mesh":24,"extensions":{"ASOBO_unique_id":{"id":"FrontCase.055"}},"name":"FrontCase.055"},{"translation":[25.82840919494629,-0.583760142326355,-0.8727883100509644],"rotation":[-0.01713724248111248,-0.005754413548856974,0.006380259059369564,0.9998162388801576],"mesh":25,"extensions":{"ASOBO_unique_id":{"id":"InnerShell.016"}},"name":"InnerShell.016"},{"translation":[25.783458709716798,-0.4413118362426758,3.328050136566162],"rotation":[0.645349383354187,0.26392024755477908,0.262649804353714,0.6669973134994507],"mesh":26,"extensions":{"ASOBO_unique_id":{"id":"FAN_BLADE_BLUR1_1.001"}},"name":"FAN_BLADE_BLUR1_1.001"},{"translation":[25.774885177612306,-0.4155181348323822,4.218076229095459],"rotation":[0.2666790187358856,0.659988284111023,0.6437277793884277,0.2809133231639862],"mesh":27,"extensions":{"ASOBO_unique_id":{"id":"SPINNER_BLUR4_1.001"}},"name":"SPINNER_BLUR4_1.001"},{"translation":[14.893089294433594,-1.0839940309524537,5.403445243835449],"rotation":[-0.0020226172637194397,-0.00004535190237220377,0.004166165366768837,0.9999892711639404],"scale":[1.2219537496566773,1.2219539880752564,1.2219539880752564],"mesh":28,"extensions":{"ASOBO_unique_id":{"id":"ConeHolder.015"}},"name":"ConeHolder.015"},{"translation":[14.893254280090332,-1.151082992553711,10.699614524841309],"rotation":[-0.0020226172637194397,-0.00004535190237220377,0.004166165366768837,0.9999892711639404],"scale":[1.2219537496566773,1.2219539880752564,1.2219539880752564],"mesh":29,"extensions":{"ASOBO_unique_id":{"id":"FrontCase.044"}},"name":"FrontCase.044"},{"translation":[14.893254280090332,-1.151082992553711,10.699614524841309],"rotation":[-0.0020226172637194397,-0.00004535190237220377,0.004166165366768837,0.9999892711639404],"scale":[1.2219537496566773,1.2219539880752564,1.2219539880752564],"mesh":30,"extensions":{"ASOBO_unique_id":{"id":"FrontCase.045"}},"name":"FrontCase.045"},{"translation":[14.893254280090332,-1.151082992553711,10.699614524841309],"rotation":[-0.0020226172637194397,-0.00004535190237220377,0.004166165366768837,0.9999892711639404],"mesh":23,"extensions":{"ASOBO_unique_id":{"id":"FrontCase.050"}},"name":"FrontCase.050"},{"translation":[14.893684387207032,-1.0708131790161133,9.248044967651368],"rotation":[-0.003826081287115812,-0.000052865416364511478,0.0041660768911242489,0.9999840259552002],"mesh":31,"extensions":{"ASOBO_unique_id":{"id":"FrontCase.054"}},"name":"FrontCase.054"},{"translation":[14.89339828491211,-1.0548245906829835,11.337576866149903],"rotation":[0.7040343880653381,-0.02285335212945938,-0.022582056000828744,0.7094388604164124],"mesh":32,"extensions":{"ASOBO_unique_id":{"id":"FAN_BLADE_BLUR2_2.001"}},"name":"FAN_BLADE_BLUR2_2.001"},{"translation":[14.893860816955567,-1.0833534002304076,7.238115310668945],"rotation":[0.7043900489807129,0.002908427268266678,0.0029831810388714077,0.7098008990287781],"mesh":10,"extensions":{"ASOBO_unique_id":{"id":"SPINNER_STILL_2.001"}},"name":"SPINNER_STILL_2.001"},{"translation":[14.892906188964844,-1.0770939588546754,7.109342098236084],"rotation":[-0.0020226172637194397,-0.00004535190237220377,0.004166165366768837,0.9999892711639404],"scale":[1.2219537496566773,1.2219539880752564,1.2219539880752564],"mesh":33,"extensions":{"ASOBO_unique_id":{"id":"InnerShell.015"}},"name":"InnerShell.015"},{"translation":[14.89267921447754,-1.0683249235153199,9.179913520812989],"rotation":[-0.0020226172637194397,-0.00004535190237220377,0.004166165366768837,0.9999892711639404],"mesh":34,"extensions":{"ASOBO_unique_id":{"id":"Bucket.030"}},"name":"Bucket.030"}],"scene":0,"scenes":[{"nodes":[0,1,2,3,4,5,6,7,8,9,10,11,12,13,14,15,16,17,18,19,20,21,22,23,24,25,26,27,28,29,30,31,32,33,34,35,36,37,38,39],"name":"Scene"}],"textures":[{"extensions":{"MSFT_texture_dds":{"source":0}}},{"extensions":{"MSFT_texture_dds":{"source":1}}},{"extensions":{"MSFT_texture_dds":{"source":2}}},{"extensions":{"MSFT_texture_dds":{"source":3}}},{"extensions":{"MSFT_texture_dds":{"source":4}}},{"extensions":{"MSFT_texture_dds":{"source":5}}},{"extensions":{"MSFT_texture_dds":{"source":6}}},{"extensions":{"MSFT_texture_dds":{"source":7}}},{"extensions":{"MSFT_texture_dds":{"source":8}}},{"extensions":{"MSFT_texture_dds":{"source":9}}},{"extensions":{"MSFT_texture_dds":{"source":10}}},{"extensions":{"MSFT_texture_dds":{"source":11}}},{"extensions":{"MSFT_texture_dds":{"source":12}}},{"extensions":{"MSFT_texture_dds":{"source":13}}},{"extensions":{"MSFT_texture_dds":{"source":14}}},{"extensions":{"MSFT_texture_dds":{"source":15}}},{"extensions":{"MSFT_texture_dds":{"source":16}}},{"extensions":{"MSFT_texture_dds":{"source":17}}},{"extensions":{"MSFT_texture_dds":{"source":18}}},{"extensions":{"MSFT_texture_dds":{"source":19}}},{"extensions":{"MSFT_texture_dds":{"source":20}}},{"extensions":{"MSFT_texture_dds":{"source":21}}},{"extensions":{"MSFT_texture_dds":{"source":22}}},{"extensions":{"MSFT_texture_dds":{"source":23}}},{"extensions":{"MSFT_texture_dds":{"source":24}}},{"extensions":{"MSFT_texture_dds":{"source":25}}},{"extensions":{"MSFT_texture_dds":{"source":26}}},{"extensions":{"MSFT_texture_dds":{"source":27}}},{"extensions":{"MSFT_texture_dds":{"source":28}}},{"extensions":{"MSFT_texture_dds":{"source":29}}}],"samplers":[{"magFilter":9729,"minFilter":9987,"wrapS":10497,"wrapT":10497}],"extensionsUsed":["ASOBO_normal_map_convention","ASOBO_unique_id","ASOBO_material_invisible","ASOBO_material_disable_motion_blur","MSFT_texture_dds","ASOBO_asset_optimized"],"buffers":[{"byteLength":8507370,"uri":"A380_WINGS_LOD02.bin"}],"images":[{"uri":"..\\TEXTURE\\A380_EXTERIOR_WING2_NORM.PNG.KTX2","name":"A380_EXTERIOR_WING2_NORM","extras":"ASOBO_image_converted_meta"},{"uri":"..\\TEXTURE\\A380_EXTERIOR_WING2_COMP.PNG.KTX2","name":"A380_EXTERIOR_WING2_COMP","extras":"ASOBO_image_converted_meta"},{"uri":"..\\TEXTURE\\A380_EXTERIOR_WING2_ALBEDO.PNG.KTX2","name":"A380_EXTERIOR_WING2_ALBEDO","extras":"ASOBO_image_converted_meta"},{"uri":"..\\TEXTURE\\A380_EXTERIOR_WING2_2_NORM.PNG.KTX2","name":"A380_EXTERIOR_WING2_2_NORM","extras":"ASOBO_image_converted_meta"},{"uri":"..\\TEXTURE\\A380_EXTERIOR_WING2_2_COMP.PNG.KTX2","name":"A380_EXTERIOR_WING2_2_COMP","extras":"ASOBO_image_converted_meta"},{"uri":"..\\TEXTURE\\A380_EXTERIOR_WING2_2_ALBEDO.PNG.KTX2","name":"A380_EXTERIOR_WING2_2_ALBEDO","extras":"ASOBO_image_converted_meta"},{"uri":"..\\TEXTURE\\A380_EXTERIOR_ENG_RH_NORM.PNG.KTX2","name":"A380_EXTERIOR_ENG_RH_NORM","extras":"ASOBO_image_converted_meta"},{"uri":"..\\TEXTURE\\A380_EXTERIOR_ENG_RH_COMP.PNG.KTX2","name":"A380_EXTERIOR_ENG_RH_COMP","extras":"ASOBO_image_converted_meta"},{"uri":"..\\TEXTURE\\A380_EXTERIOR_ENG_RH_ALBEDO.PNG.KTX2","name":"A380_EXTERIOR_ENG_RH_ALBEDO","extras":"ASOBO_image_converted_meta"},{"uri":"..\\TEXTURE\\A380_EXTERTIOR_PYLON_NORM.PNG.KTX2","name":"A380_EXTERTIOR_PYLON_NORM","extras":"ASOBO_image_converted_meta"},{"uri":"..\\TEXTURE\\A380_EXTERTIOR_PYLON_COMP.PNG.KTX2","name":"A380_EXTERTIOR_PYLON_COMP","extras":"ASOBO_image_converted_meta"},{"uri":"..\\TEXTURE\\A380_EXTERTIOR_PYLON_ALBEDO.PNG.KTX2","name":"A380_EXTERTIOR_PYLON_ALBEDO","extras":"ASOBO_image_converted_meta"},{"uri":"..\\TEXTURE\\ENGINE_BLUR2_COMP.PNG.KTX2","name":"ENGINE_BLUR2_COMP","extras":"ASOBO_image_converted_meta"},{"uri":"..\\TEXTURE\\ENGINE_BLUR2_ALBEDO.PNG.KTX2","name":"ENGINE_BLUR2_ALBEDO","extras":"ASOBO_image_converted_meta"},{"uri":"..\\TEXTURE\\A380_EXTERTIOR_FAN_NORM.PNG.KTX2","name":"A380_EXTERTIOR_FAN_NORM","extras":"ASOBO_image_converted_meta"},{"uri":"..\\TEXTURE\\A380_EXTERTIOR_FAN_COMP.PNG.KTX2","name":"A380_EXTERTIOR_FAN_COMP","extras":"ASOBO_image_converted_meta"},{"uri":"..\\TEXTURE\\A380_EXTERTIOR_FAN_ALBEDO.PNG.KTX2","name":"A380_EXTERTIOR_FAN_ALBEDO","extras":"ASOBO_image_converted_meta"},{"uri":"..\\TEXTURE\\A380_EXTERIOR_WING1_NORM.PNG.KTX2","name":"A380_EXTERIOR_WING1_NORM","extras":"ASOBO_image_converted_meta"},{"uri":"..\\TEXTURE\\A380_EXTERIOR_WING1_COMP.PNG.KTX2","name":"A380_EXTERIOR_WING1_COMP","extras":"ASOBO_image_converted_meta"},{"uri":"..\\TEXTURE\\A380_EXTERIOR_WING1_ALBEDO.PNG.KTX2","name":"A380_EXTERIOR_WING1_ALBEDO","extras":"ASOBO_image_converted_meta"},{"uri":"..\\TEXTURE\\A380_EXTERIOR_WING1_2_NORM.PNG.KTX2","name":"A380_EXTERIOR_WING1_2_NORM","extras":"ASOBO_image_converted_meta"},{"uri":"..\\TEXTURE\\A380_EXTERIOR_WING1_2_COMP.PNG.KTX2","name":"A380_EXTERIOR_WING1_2_COMP","extras":"ASOBO_image_converted_meta"},{"uri":"..\\TEXTURE\\A380_EXTERIOR_WING1_2_ALBEDO.PNG.KTX2","name":"A380_EXTERIOR_WING1_2_ALBEDO","extras":"ASOBO_image_converted_meta"},{"uri":"..\\TEXTURE\\A380_EXTERIOR_ENG_LH_NORM.PNG.KTX2","name":"A380_EXTERIOR_ENG_LH_NORM","extras":"ASOBO_image_converted_meta"},{"uri":"..\\TEXTURE\\A380_EXTERIOR_ENG_LH_COMP.PNG.KTX2","name":"A380_EXTERIOR_ENG_LH_COMP","extras":"ASOBO_image_converted_meta"},{"uri":"..\\TEXTURE\\A380_EXTERIOR_ENG_LH_ALBEDO.PNG.KTX2","name":"A380_EXTERIOR_ENG_LH_ALBEDO","extras":"ASOBO_image_converted_meta"},{"uri":"..\\TEXTURE\\ENGINE_BLUR1_COMP.PNG.KTX2","name":"ENGINE_BLUR1_COMP","extras":"ASOBO_image_converted_meta"},{"uri":"..\\TEXTURE\\ENGINE_BLUR1_ALBEDO.PNG.KTX2","name":"ENGINE_BLUR1_ALBEDO","extras":"ASOBO_image_converted_meta"},{"uri":"..\\TEXTURE\\ENGINE_BLUR4_COMP.PNG.KTX2","name":"ENGINE_BLUR4_COMP","extras":"ASOBO_image_converted_meta"},{"uri":"..\\TEXTURE\\ENGINE_BLUR4_ALBEDO.PNG.KTX2","name":"ENGINE_BLUR4_ALBEDO","extras":"ASOBO_image_converted_meta"}]}
