{"accessors":[{"bufferView":0,"componentType":5126,"count":10,"min":[0.041666666666666664],"max":[0.4166666666666667],"type":"SCALAR"},{"bufferView":1,"componentType":5126,"count":10,"type":"VEC3"},{"bufferView":2,"componentType":5126,"count":10,"type":"VEC3"},{"bufferView":3,"componentType":5126,"count":5,"min":[0.041666666666666664],"max":[0.20833333333333337],"type":"SCALAR"},{"bufferView":4,"componentType":5126,"count":5,"type":"VEC4"},{"bufferView":5,"componentType":5126,"count":20,"min":[0.041666666666666664],"max":[0.8333333333333334],"type":"SCALAR"},{"bufferView":6,"componentType":5126,"count":20,"type":"VEC3"},{"bufferView":7,"componentType":5126,"count":20,"type":"VEC4"},{"bufferView":8,"componentType":5126,"count":10,"type":"VEC3"},{"bufferView":9,"componentType":5126,"count":10,"type":"VEC4"},{"bufferView":10,"componentType":5126,"count":10,"type":"VEC3"},{"bufferView":11,"componentType":5126,"count":10,"type":"VEC4"},{"bufferView":12,"componentType":5126,"count":50,"min":[0.041666666666666664],"max":[2.0833333333333335],"type":"SCALAR"},{"bufferView":13,"componentType":5126,"count":50,"type":"VEC3"},{"bufferView":14,"componentType":5126,"count":321,"min":[-0.03467220067977905,0.19771802425384521,-0.03450751304626465],"max":[0.03441603481769562,0.27399909496307373,0.0344807505607605],"type":"VEC3","name":"x0_LEVER_FLAPS_vertices#0_POSITION"},{"bufferView":14,"byteOffset":12,"componentType":5120,"count":321,"type":"VEC4","name":"x0_LEVER_FLAPS_vertices#0_TANGENT"},{"bufferView":14,"byteOffset":16,"componentType":5120,"count":321,"type":"VEC4","name":"x0_LEVER_FLAPS_vertices#0_NORMAL"},{"bufferView":14,"byteOffset":20,"componentType":5122,"count":321,"type":"VEC2","name":"x0_LEVER_FLAPS_vertices#0_TEXCOORD_0"},{"bufferView":14,"byteOffset":24,"componentType":5122,"count":321,"type":"VEC2","name":"x0_LEVER_FLAPS_vertices#0_TEXCOORD_1"},{"bufferView":14,"byteOffset":28,"componentType":5123,"count":321,"type":"VEC4","name":"x0_LEVER_FLAPS_vertices#0_COLOR_0"},{"bufferView":15,"componentType":5123,"count":1026,"type":"SCALAR","name":"x0_LEVER_FLAPS_indices#0"},{"bufferView":14,"byteOffset":11556,"componentType":5126,"count":298,"min":[0.003456970676779747,0.1109115481376648,-0.01102447509765625],"max":[0.025551756843924522,0.17813032865524292,0.01103973388671875],"type":"VEC3","name":"x0_LEVER_SPEEDBRAKE.001_vertices#0_POSITION"},{"bufferView":14,"byteOffset":11568,"componentType":5120,"count":298,"type":"VEC4","name":"x0_LEVER_SPEEDBRAKE.001_vertices#0_TANGENT"},{"bufferView":14,"byteOffset":11572,"componentType":5120,"count":298,"type":"VEC4","name":"x0_LEVER_SPEEDBRAKE.001_vertices#0_NORMAL"},{"bufferView":14,"byteOffset":11576,"componentType":5122,"count":298,"type":"VEC2","name":"x0_LEVER_SPEEDBRAKE.001_vertices#0_TEXCOORD_0"},{"bufferView":14,"byteOffset":11580,"componentType":5122,"count":298,"type":"VEC2","name":"x0_LEVER_SPEEDBRAKE.001_vertices#0_TEXCOORD_1"},{"bufferView":14,"byteOffset":11584,"componentType":5123,"count":298,"type":"VEC4","name":"x0_LEVER_SPEEDBRAKE.001_vertices#0_COLOR_0"},{"bufferView":15,"byteOffset":2052,"componentType":5123,"count":1092,"type":"SCALAR","name":"x0_LEVER_SPEEDBRAKE.001_indices#0"},{"bufferView":14,"byteOffset":22284,"componentType":5126,"count":24,"min":[-1.4934637546539307,-0.013072351925075054,-1.4934637546539307],"max":[1.4934637546539307,0.013072351925075054,1.4934637546539307],"type":"VEC3","name":"Cube.090_vertices#0_POSITION"},{"bufferView":14,"byteOffset":22296,"componentType":5120,"count":24,"type":"VEC4","name":"Cube.090_vertices#0_TANGENT"},{"bufferView":14,"byteOffset":22300,"componentType":5120,"count":24,"type":"VEC4","name":"Cube.090_vertices#0_NORMAL"},{"bufferView":14,"byteOffset":22304,"componentType":5122,"count":24,"type":"VEC2","name":"Cube.090_vertices#0_TEXCOORD_0"},{"bufferView":14,"byteOffset":22308,"componentType":5122,"count":24,"type":"VEC2","name":"Cube.090_vertices#0_TEXCOORD_1"},{"bufferView":14,"byteOffset":22312,"componentType":5123,"count":24,"type":"VEC4","name":"Cube.090_vertices#0_COLOR_0"},{"bufferView":15,"byteOffset":4236,"componentType":5123,"count":36,"type":"SCALAR","name":"Cube.090_indices#0"},{"bufferView":14,"byteOffset":23148,"componentType":5126,"count":197,"min":[-0.003196973353624344,-0.016362326219677925,-0.018710793927311897],"max":[0.018732981756329536,0.012737556360661983,0.0032202645670622587],"type":"VEC3","name":"Cube.716_vertices#0_POSITION"},{"bufferView":14,"byteOffset":23160,"componentType":5120,"count":197,"type":"VEC4","name":"Cube.716_vertices#0_TANGENT"},{"bufferView":14,"byteOffset":23164,"componentType":5120,"count":197,"type":"VEC4","name":"Cube.716_vertices#0_NORMAL"},{"bufferView":14,"byteOffset":23168,"componentType":5122,"count":197,"type":"VEC2","name":"Cube.716_vertices#0_TEXCOORD_0"},{"bufferView":14,"byteOffset":23172,"componentType":5122,"count":197,"type":"VEC2","name":"Cube.716_vertices#0_TEXCOORD_1"},{"bufferView":14,"byteOffset":23176,"componentType":5123,"count":197,"type":"VEC4","name":"Cube.716_vertices#0_COLOR_0"},{"bufferView":15,"byteOffset":4308,"componentType":5123,"count":858,"type":"SCALAR","name":"Cube.716_indices#0"},{"bufferView":14,"byteOffset":30240,"componentType":5126,"count":197,"min":[-0.01019740104675293,-0.029099225997924805,-0.011298781260848045],"max":[0.011732724495232105,5.243346095085144e-07,0.0106322867795825],"type":"VEC3","name":"Cube.022_vertices#0_POSITION"},{"bufferView":14,"byteOffset":30252,"componentType":5120,"count":197,"type":"VEC4","name":"Cube.022_vertices#0_TANGENT"},{"bufferView":14,"byteOffset":30256,"componentType":5120,"count":197,"type":"VEC4","name":"Cube.022_vertices#0_NORMAL"},{"bufferView":14,"byteOffset":30260,"componentType":5122,"count":197,"type":"VEC2","name":"Cube.022_vertices#0_TEXCOORD_0"},{"bufferView":14,"byteOffset":30264,"componentType":5122,"count":197,"type":"VEC2","name":"Cube.022_vertices#0_TEXCOORD_1"},{"bufferView":14,"byteOffset":30268,"componentType":5123,"count":197,"type":"VEC4","name":"Cube.022_vertices#0_COLOR_0"},{"bufferView":15,"byteOffset":6024,"componentType":5123,"count":858,"type":"SCALAR","name":"Cube.022_indices#0"},{"bufferView":14,"byteOffset":37332,"componentType":5126,"count":24,"min":[-0.016119958832859993,-0.007734033279120922,-0.002686623251065612],"max":[0.016119524836540222,0.007733616512268782,0.002686623251065612],"type":"VEC3","name":"Cube.1226_vertices#0_POSITION"},{"bufferView":14,"byteOffset":37344,"componentType":5120,"count":24,"type":"VEC4","name":"Cube.1226_vertices#0_TANGENT"},{"bufferView":14,"byteOffset":37348,"componentType":5120,"count":24,"type":"VEC4","name":"Cube.1226_vertices#0_NORMAL"},{"bufferView":14,"byteOffset":37352,"componentType":5122,"count":24,"type":"VEC2","name":"Cube.1226_vertices#0_TEXCOORD_0"},{"bufferView":14,"byteOffset":37356,"componentType":5122,"count":24,"type":"VEC2","name":"Cube.1226_vertices#0_TEXCOORD_1"},{"bufferView":14,"byteOffset":37360,"componentType":5123,"count":24,"type":"VEC4","name":"Cube.1226_vertices#0_COLOR_0"},{"bufferView":15,"byteOffset":7740,"componentType":5123,"count":36,"type":"SCALAR","name":"Cube.1226_indices#0"}],"animations":[{"name":"SEAT_CPT_MOVE_FWD_AFT_ANIM","channels":[{"sampler":0,"target":{"node":16,"path":"translation"}}],"samplers":[{"input":0,"output":1,"interpolation":"LINEAR"}]},{"name":"SEAT_FO_MOVE_FWD_AFT_ANIM","channels":[{"sampler":0,"target":{"node":17,"path":"translation"}}],"samplers":[{"input":0,"output":2,"interpolation":"LINEAR"}]},{"name":"flaps_lever","channels":[{"sampler":0,"target":{"node":5,"path":"rotation"}}],"samplers":[{"input":3,"output":4,"interpolation":"LINEAR"}]},{"name":"lever_speed_brake","channels":[{"sampler":0,"target":{"node":6,"path":"translation"}},{"sampler":1,"target":{"node":6,"path":"rotation"}}],"samplers":[{"input":5,"output":6,"interpolation":"LINEAR"},{"input":5,"output":7,"interpolation":"LINEAR"}]},{"name":"FO_SLIDING_WINDOW_ANIM","channels":[{"sampler":0,"target":{"node":18,"path":"translation"}},{"sampler":1,"target":{"node":18,"path":"rotation"}}],"samplers":[{"input":0,"output":8,"interpolation":"LINEAR"},{"input":0,"output":9,"interpolation":"LINEAR"}]},{"name":"CPT_SLIDING_WINDOW_ANIM","channels":[{"sampler":0,"target":{"node":19,"path":"translation"}},{"sampler":1,"target":{"node":19,"path":"rotation"}}],"samplers":[{"input":0,"output":10,"interpolation":"LINEAR"},{"input":0,"output":11,"interpolation":"LINEAR"}]},{"name":"pedals_lever_l_r","channels":[{"sampler":0,"target":{"node":20,"path":"translation"}}],"samplers":[{"input":12,"output":13,"interpolation":"LINEAR"}]}],"asset":{"generator":"Khronos glTF Blender I/O v4.5.51 and Asobo Studio MSFS2024 Blender I/O v6.4.4 with Blender v4.5.10","version":"2.0","extensions":{"ASOBO_asset_optimized":{"BoundingBoxMax":[114.24598693847656,3.550018787384033,146.1697235107422],"BoundingBoxMin":[-114.24598693847656,1.5500187873840332,-82.32225799560547],"MajorVersion":4,"MinorVersion":7,"UseCheckerboardMaterialForMissingTextures":true,"UseOnlyFilenameForImageURI":true},"ASOBO_normal_map_convention":{"tangent_space_convention":"DirectX"}}},"bufferViews":[{"buffer":0,"byteLength":40},{"buffer":0,"byteLength":120,"byteOffset":40},{"buffer":0,"byteLength":120,"byteOffset":160},{"buffer":0,"byteLength":20,"byteOffset":280},{"buffer":0,"byteLength":80,"byteOffset":300},{"buffer":0,"byteLength":80,"byteOffset":380},{"buffer":0,"byteLength":240,"byteOffset":460},{"buffer":0,"byteLength":320,"byteOffset":700},{"buffer":0,"byteLength":120,"byteOffset":1020},{"buffer":0,"byteLength":160,"byteOffset":1140},{"buffer":0,"byteLength":120,"byteOffset":1300},{"buffer":0,"byteLength":160,"byteOffset":1420},{"buffer":0,"byteLength":200,"byteOffset":1580},{"buffer":0,"byteLength":600,"byteOffset":1780},{"buffer":0,"byteLength":38196,"byteStride":36,"byteOffset":2380,"target":34962,"name":"BufferViewVertexND"},{"buffer":0,"byteLength":7812,"byteOffset":40576,"target":34963,"name":"BufferViewIndexU16"}],"extensionsRequired":["MSFT_texture_dds"],"materials":[{"name":"A380_COCKPIT_PEDESTAL_MISC01_4k","doubleSided":true,"normalTexture":{"index":0},"pbrMetallicRoughness":{"baseColorTexture":{"index":2},"metallicRoughnessTexture":{"index":1}}},{"name":"INVISIBLE","extensions":{"ASOBO_material_invisible":{}}},{"name":"A380_COCKPIT_SIDEWALL_MISC01_4k","normalTexture":{"index":3},"pbrMetallicRoughness":{"baseColorTexture":{"index":5},"metallicRoughnessTexture":{"index":4}}},{"name":"INVISBLE_CLICKSPOTS","extensions":{"ASOBO_material_invisible":{}}}],"meshes":[{"primitives":[{"attributes":{"COLOR_0":19,"NORMAL":16,"POSITION":14,"TANGENT":15,"TEXCOORD_0":17,"TEXCOORD_1":18},"indices":20,"material":0,"mode":4,"extras":{"ASOBO_primitive":{"PrimitiveCount":342,"UV2Length":0.649141788482666,"UVLength":0.649141788482666,"VertexCount":321,"VertexType":"VTX","VertexVersion":2}}}],"name":"x0_LEVER_FLAPS"},{"primitives":[{"attributes":{"COLOR_0":26,"NORMAL":23,"POSITION":21,"TANGENT":22,"TEXCOORD_0":24,"TEXCOORD_1":25},"indices":27,"material":0,"mode":4,"extras":{"ASOBO_primitive":{"PrimitiveCount":364,"UV2Length":0.6360263228416443,"UVLength":0.6360263228416443,"VertexCount":298,"VertexType":"VTX","VertexVersion":2}}}],"name":"x0_LEVER_SPEEDBRAKE.001"},{"primitives":[{"attributes":{"COLOR_0":33,"NORMAL":30,"POSITION":28,"TANGENT":29,"TEXCOORD_0":31,"TEXCOORD_1":32},"indices":34,"material":1,"mode":4,"extras":{"ASOBO_primitive":{"PrimitiveCount":12,"UV2Length":0.625,"UVLength":0.625,"VertexCount":24,"VertexType":"VTX","VertexVersion":2}}}],"name":"Cube.090"},{"primitives":[{"attributes":{"COLOR_0":40,"NORMAL":37,"POSITION":35,"TANGENT":36,"TEXCOORD_0":38,"TEXCOORD_1":39},"indices":41,"material":2,"mode":4,"extras":{"ASOBO_primitive":{"PrimitiveCount":286,"UV2Length":0.07865891605615616,"UVLength":0.07865891605615616,"VertexCount":197,"VertexType":"VTX","VertexVersion":2}}}],"name":"Cube.716"},{"primitives":[{"attributes":{"COLOR_0":47,"NORMAL":44,"POSITION":42,"TANGENT":43,"TEXCOORD_0":45,"TEXCOORD_1":46},"indices":48,"material":2,"mode":4,"extras":{"ASOBO_primitive":{"PrimitiveCount":286,"UV2Length":0.20331773161888123,"UVLength":0.20331773161888123,"VertexCount":197,"VertexType":"VTX","VertexVersion":2}}}],"name":"Cube.022"},{"primitives":[{"attributes":{"COLOR_0":54,"NORMAL":51,"POSITION":49,"TANGENT":50,"TEXCOORD_0":52,"TEXCOORD_1":53},"indices":55,"material":3,"mode":4,"extras":{"ASOBO_primitive":{"PrimitiveCount":12,"UV2Length":0.0027045607566833496,"UVLength":0.0027045607566833496,"VertexCount":24,"VertexType":"VTX","VertexVersion":2}}}],"name":"Cube.1226"}],"nodes":[{"translation":[0.5261180996894836,3.799741506576538,30.541332244873047],"extensions":{"ASOBO_unique_id":{"id":"FUSES01"}},"name":"FUSES01"},{"translation":[0.0,2.832926988601685,30.204816818237305],"extensions":{"ASOBO_unique_id":{"id":"SOUND_FWD_GALLEY"}},"name":"SOUND_FWD_GALLEY"},{"translation":[0.4015057682991028,3.0230042934417725,30.70937728881836],"extensions":{"ASOBO_unique_id":{"id":"DOOR_LOCK"}},"name":"DOOR_LOCK"},{"translation":[-0.012710094451904295,4.139109134674072,29.97184181213379],"extensions":{"ASOBO_unique_id":{"id":"SOUND_UPPER_EBAY"}},"name":"SOUND_UPPER_EBAY"},{"translation":[-0.012710094451904295,1.5562744140625,31.293603897094727],"extensions":{"ASOBO_unique_id":{"id":"SOUND_LOWER_EBAY"}},"name":"SOUND_LOWER_EBAY"},{"translation":[-0.13487516343593595,2.331474542617798,32.163429260253906],"rotation":[0.22643539309501648,0.0,0.0,0.9740262031555176],"scale":[0.43646496534347534,0.43646496534347534,0.43646496534347534],"mesh":0,"extensions":{"ASOBO_unique_id":{"id":"LEVER_FLAPS"}},"name":"LEVER_FLAPS"},{"translation":[0.09245087951421738,2.271811008453369,32.17145919799805],"rotation":[0.11372151225805284,0.0,0.0,0.9935126900672911],"mesh":1,"extensions":{"ASOBO_unique_id":{"id":"LEVER_SPEEDBRAKE"}},"name":"LEVER_SPEEDBRAKE"},{"translation":[0.0001595487119629979,2.507211446762085,32.527652740478516],"extensions":{"ASOBO_unique_id":{"id":"SOUND_LEVER_THROTTLE"}},"name":"SOUND_LEVER_THROTTLE"},{"translation":[0.11850373446941376,3.672727108001709,31.807695388793945],"extensions":{"ASOBO_unique_id":{"id":"SOUND_SPEAKER_OHVD"}},"name":"SOUND_SPEAKER_OHVD"},{"translation":[0.21632494032382965,2.826064348220825,33.254764556884766],"extensions":{"ASOBO_unique_id":{"id":"SOUND_WIPER_L"}},"name":"SOUND_WIPER_L"},{"translation":[-0.21589340269565585,2.822176218032837,33.250755310058594],"extensions":{"ASOBO_unique_id":{"id":"SOUND_WIPER_R"}},"name":"SOUND_WIPER_R"},{"translation":[0.8510711789131165,2.598355770111084,32.569671630859375],"extensions":{"ASOBO_unique_id":{"id":"SOUND_SIDESTICK_LEFT"}},"name":"SOUND_SIDESTICK_LEFT"},{"translation":[-0.8592692613601685,2.517495393753052,32.541866302490234],"extensions":{"ASOBO_unique_id":{"id":"SOUND_SIDESTICK_RIGHT"}},"name":"SOUND_SIDESTICK_RIGHT"},{"translation":[0.7207673192024231,2.644629955291748,32.9055290222168],"extensions":{"ASOBO_unique_id":{"id":"SOUND_SPEAKER_LEFT"}},"name":"SOUND_SPEAKER_LEFT"},{"translation":[-0.7207659482955933,2.644690752029419,32.90535354614258],"extensions":{"ASOBO_unique_id":{"id":"SOUND_SPEAKER_RIGHT"}},"name":"SOUND_SPEAKER_RIGHT"},{"translation":[0.0,2.550018787384033,31.923734664916992],"scale":[114.24598693847656,1.0,114.24598693847656],"mesh":2,"extensions":{"ASOBO_unique_id":{"id":"COCKPIT BOUNDS"}},"name":"COCKPIT BOUNDS"},{"translation":[0.5970949530601501,2.272317409515381,31.88397216796875],"extensions":{"ASOBO_unique_id":{"id":"SEAT_CPT_MOVE_FWD_AFT"}},"name":"SEAT_CPT_MOVE_FWD_AFT"},{"translation":[-0.5922040939331055,2.272369146347046,31.883996963500977],"extensions":{"ASOBO_unique_id":{"id":"SEAT_FO_MOVE_FWD_AFT"}},"name":"SEAT_FO_MOVE_FWD_AFT"},{"translation":[-1.1536786556243896,2.726881265640259,32.463844299316406],"rotation":[-0.07510305941104889,0.0,-0.1381097286939621,0.9875653386116028],"mesh":3,"extensions":{"ASOBO_unique_id":{"id":"FO_SLIDING_WINDOW_CLICK"}},"name":"FO_SLIDING_WINDOW_CLICK"},{"translation":[1.1421539783477783,2.735563039779663,32.45479202270508],"rotation":[-0.07511184364557266,0.0,0.13810265064239502,0.9875656366348268],"mesh":4,"extensions":{"ASOBO_unique_id":{"id":"CPT_SLIDING_WINDOW_CLICK"}},"name":"CPT_SLIDING_WINDOW_CLICK"},{"translation":[0.6867388486862183,2.164355754852295,33.03020095825195],"extensions":{"ASOBO_unique_id":{"id":"PEDALS_LEFT"}},"name":"PEDALS_LEFT"},{"translation":[-0.5288125872612,2.5162768363952637,32.807945251464844],"scale":[6.000000953674316,2.878641366958618,1.0],"mesh":5,"extensions":{"ASOBO_unique_id":{"id":"A380_FO_TABLE_CLICK"}},"name":"A380_FO_TABLE_CLICK"}],"scene":0,"scenes":[{"nodes":[0,1,2,3,4,5,6,7,8,9,10,11,12,13,14,15,16,17,18,19,20,21],"name":"Scene"}],"textures":[{"extensions":{"MSFT_texture_dds":{"source":0}}},{"extensions":{"MSFT_texture_dds":{"source":1}}},{"extensions":{"MSFT_texture_dds":{"source":2}}},{"extensions":{"MSFT_texture_dds":{"source":3}}},{"extensions":{"MSFT_texture_dds":{"source":4}}},{"extensions":{"MSFT_texture_dds":{"source":5}}}],"samplers":[{"magFilter":9729,"minFilter":9987,"wrapS":10497,"wrapT":10497}],"extensionsUsed":["ASOBO_normal_map_convention","ASOBO_unique_id","ASOBO_material_invisible","MSFT_texture_dds","ASOBO_asset_optimized"],"buffers":[{"byteLength":48388,"uri":"A380_COCKPIT_LOD03.bin"}],"images":[{"uri":"..\\..\\..\\..\\..\\..\\..\\..\\..\\..\\FS%20DEV\\FLYBYWIRE\\ART\\A380X_MSFS2024_BLEND_FILES\\TEXTURE\\A380X_COCKPIT_PEDESTAL_MISC01_NORM.PNG.KTX2","name":"A380_COCKPIT_PEDESTAL_MISC01_4k_NORMAL.png","extras":"ASOBO_image_converted_meta"},{"uri":"..\\..\\..\\..\\..\\..\\..\\..\\..\\..\\FS%20DEV\\FLYBYWIRE\\ART\\A380X_MSFS2024_BLEND_FILES\\TEXTURE\\A380X_COCKPIT_PEDESTAL_MISC01_COMP.PNG.KTX2","name":"A380_COCKPIT_PEDESTAL_MISC01_4k_COMP.png","extras":"ASOBO_image_converted_meta"},{"uri":"..\\..\\..\\..\\..\\..\\..\\..\\..\\..\\FS%20DEV\\FLYBYWIRE\\ART\\A380X_MSFS2024_BLEND_FILES\\TEXTURE\\A380X_COCKPIT_PEDESTAL_MISC01_ALBD.PNG.KTX2","name":"A380_COCKPIT_PEDESTAL_MISC01_4k_ALBEDO.png","extras":"ASOBO_image_converted_meta"},{"uri":"..\\..\\..\\..\\..\\..\\..\\..\\..\\..\\FS%20DEV\\FLYBYWIRE\\ART\\A380X_MSFS2024_BLEND_FILES\\TEXTURE\\A380X_COCKPIT_SIDEWALL_MISC01_NORM.PNG.KTX2","name":"A380_COCKPIT_SIDEWALL_MISC01_4k_NORMAL.png","extras":"ASOBO_image_converted_meta"},{"uri":"..\\..\\..\\..\\..\\..\\..\\..\\..\\..\\FS%20DEV\\FLYBYWIRE\\ART\\A380X_MSFS2024_BLEND_FILES\\TEXTURE\\A380X_COCKPIT_SIDEWALL_MISC01_COMP.PNG.KTX2","name":"A380_COCKPIT_SIDEWALL_MISC01_4k_COMP.png","extras":"ASOBO_image_converted_meta"},{"uri":"..\\..\\..\\..\\..\\..\\..\\..\\..\\..\\FS%20DEV\\FLYBYWIRE\\ART\\A380X_MSFS2024_BLEND_FILES\\TEXTURE\\A380X_COCKPIT_SIDEWALL_MISC01_ALBD.PNG.KTX2","name":"A380_COCKPIT_SIDEWALL_MISC01_4k_ALBEDO.png","extras":"ASOBO_image_converted_meta"}]}