{"accessors":[{"bufferView":0,"componentType":5126,"count":24,"min":[-500.0000305175781,-1.4934519529342652,-500.0000305175781],"max":[500.0000305175781,1.4934519529342652,500.0000305175781],"type":"VEC3","name":"Cube.011_vertices#0_POSITION"},{"bufferView":0,"byteOffset":12,"componentType":5120,"count":24,"type":"VEC4","name":"Cube.011_vertices#0_TANGENT"},{"bufferView":0,"byteOffset":16,"componentType":5120,"count":24,"type":"VEC4","name":"Cube.011_vertices#0_NORMAL"},{"bufferView":0,"byteOffset":20,"componentType":5122,"count":24,"type":"VEC2","name":"Cube.011_vertices#0_TEXCOORD_0"},{"bufferView":0,"byteOffset":24,"componentType":5122,"count":24,"type":"VEC2","name":"Cube.011_vertices#0_TEXCOORD_1"},{"bufferView":0,"byteOffset":28,"componentType":5123,"count":24,"type":"VEC4","name":"Cube.011_vertices#0_COLOR_0"},{"bufferView":1,"componentType":5123,"count":36,"type":"SCALAR","name":"Cube.011_indices#0"}],"asset":{"generator":"Khronos glTF Blender I/O v4.5.51 and Asobo Studio MSFS2024 Blender I/O v6.4.4 with Blender v4.5.10","version":"2.0","extensions":{"ASOBO_asset_optimized":{"BoundingBoxMax":[500.15869140625,-1.044791340827942,504.6920166015625],"BoundingBoxMin":[-499.84136962890627,-4.031695365905762,-495.30804443359377],"MajorVersion":4,"MinorVersion":7,"UseCheckerboardMaterialForMissingTextures":true,"UseOnlyFilenameForImageURI":true},"ASOBO_normal_map_convention":{"tangent_space_convention":"DirectX"}}},"bufferViews":[{"buffer":0,"byteLength":864,"byteStride":36,"target":34962,"name":"BufferViewVertexND"},{"buffer":0,"byteLength":72,"byteOffset":864,"target":34963,"name":"BufferViewIndexU16"}],"materials":[{"name":"Material.002","extensions":{"ASOBO_material_invisible":{}}}],"meshes":[{"primitives":[{"attributes":{"COLOR_0":5,"NORMAL":2,"POSITION":0,"TANGENT":1,"TEXCOORD_0":3,"TEXCOORD_1":4},"indices":6,"material":0,"mode":4,"extras":{"ASOBO_primitive":{"PrimitiveCount":12,"UV2Length":0.625,"UVLength":0.625,"VertexCount":24,"VertexType":"VTX","VertexVersion":2}}}],"name":"Cube.011"}],"nodes":[{"translation":[25.695253372192384,-0.6088383793830872,4.500482559204102],"extensions":{"ASOBO_unique_id":{"id":"SOUND_ENGINE_1"}},"name":"SOUND_ENGINE_1"},{"translation":[14.859904289245604,-1.1632097959518433,12.02353572845459],"extensions":{"ASOBO_unique_id":{"id":"SOUND_ENGINE_2"}},"name":"SOUND_ENGINE_2"},{"translation":[-14.899894714355469,-1.1623111963272098,12.019596099853516],"extensions":{"ASOBO_unique_id":{"id":"SOUND_ENGINE_3"}},"name":"SOUND_ENGINE_3"},{"translation":[-25.742691040039064,-0.5984958410263062,4.50002384185791],"extensions":{"ASOBO_unique_id":{"id":"SOUND_ENGINE_4"}},"name":"SOUND_ENGINE_4"},{"translation":[0.44466206431388857,-1.593491792678833,22.257692337036134],"extensions":{"ASOBO_unique_id":{"id":"SOUND_PACK_OUTFLOW_LEFT"}},"name":"SOUND_PACK_OUTFLOW_LEFT"},{"translation":[1.8322114944458008,0.0,11.64763641357422],"extensions":{"ASOBO_unique_id":{"id":"BASE_LEFT"}},"name":"BASE_LEFT"},{"translation":[-1.3741607666015626,0.0,4.973147869110107],"extensions":{"ASOBO_unique_id":{"id":"BASE_RIGHT"}},"name":"BASE_RIGHT"},{"extensions":{"ASOBO_unique_id":{"id":"ATTACH_CENTER"}},"name":"ATTACH_CENTER"},{"translation":[0.15867003798484803,-2.538243293762207,4.6919708251953129],"mesh":0,"extensions":{"ASOBO_unique_id":{"id":"A380_BOUNDS_LARGE"}},"name":"A380_BOUNDS_LARGE"},{"translation":[-0.0002201199531555176,4.202663421630859,-35.278846740722659],"rotation":[0.07784513384103775,0.0,0.0,0.99696546792984],"extensions":{"ASOBO_unique_id":{"id":"FX_EXHAUST_APU"}},"name":"FX_EXHAUST_APU"},{"translation":[0.050467491149902347,0.04428291320800781,33.74586868286133],"rotation":[-0.6693371534347534,0.32319530844688418,-0.473829060792923,0.47224855422973635],"extensions":{"ASOBO_unique_id":{"id":"fx_tire_contactPoint_center_left"}},"name":"fx_tire_contactPoint_center_left"},{"translation":[-0.1193695068359375,0.48130273818969729,33.582496643066409],"rotation":[-0.6693371534347534,0.32319530844688418,-0.473829060792923,0.47224855422973635],"extensions":{"ASOBO_unique_id":{"id":"fx_tire_contactPoint_center_right"}},"name":"fx_tire_contactPoint_center_right"},{"translation":[-0.024858474731445314,0.01815652847290039,33.75428771972656],"rotation":[-0.6693371534347534,0.32319530844688418,-0.473829060792923,0.47224855422973635],"extensions":{"ASOBO_unique_id":{"id":"VFX_Landing_1_Fwd_1"}},"name":"VFX_Landing_1_Fwd_1"},{"translation":[-0.19469547271728517,0.4551749229431152,33.590911865234378],"rotation":[-0.6693371534347534,0.32319530844688418,-0.473829060792923,0.47224855422973635],"extensions":{"ASOBO_unique_id":{"id":"VFX_Landing_1_Fwd_2"}},"name":"VFX_Landing_1_Fwd_2"},{"translation":[1.9245481491088868,-1.5946979522705079,-5.196976661682129],"rotation":[0.051429830491542819,0.0000020872155346296496,0.0,0.9986767172813416],"scale":[1.0,1.0,1.000002145767212],"extensions":{"ASOBO_unique_id":{"id":"fx_tire_contactPoint_left_in"}},"name":"fx_tire_contactPoint_left_in"},{"translation":[3.3202598094940187,-1.5719587802886963,-5.202546119689941],"rotation":[0.051429830491542819,0.0000020872155346296496,0.0,0.9986767172813416],"scale":[1.0,1.0,1.000002145767212],"extensions":{"ASOBO_unique_id":{"id":"fx_tire_contactPoint_left_out"}},"name":"fx_tire_contactPoint_left_out"},{"translation":[3.3202593326568605,-1.5637235641479493,-5.282292366027832],"rotation":[0.051429830491542819,0.0000020872155346296496,0.0,0.9986767172813416],"scale":[1.0,1.0,1.000002145767212],"extensions":{"ASOBO_unique_id":{"id":"VFX_Landing_1_Aft_1"}},"name":"VFX_Landing_1_Aft_1"},{"translation":[1.9245476722717284,-1.5864627361297608,-5.276722431182861],"rotation":[0.051429830491542819,0.0000020872155346296496,0.0,0.9986767172813416],"scale":[1.0,1.0,1.000002145767212],"extensions":{"ASOBO_unique_id":{"id":"VFX_Landing_1_Aft_2"}},"name":"VFX_Landing_1_Aft_2"},{"translation":[1.4287099838256837,-0.6120715141296387,1.5606842041015626],"rotation":[-0.056682389229536059,0.04750851541757584,-0.6070279479026794,0.7912315726280212],"extensions":{"ASOBO_unique_id":{"id":"fx_tire_contactPoint_left2_in"}},"name":"fx_tire_contactPoint_left2_in"},{"translation":[1.8094542026519776,-1.954904556274414,1.540767788887024],"rotation":[-0.056682389229536059,0.04750851541757584,-0.6070279479026794,0.7912315726280212],"extensions":{"ASOBO_unique_id":{"id":"fx_tire_contactPoint_left2_out"}},"name":"fx_tire_contactPoint_left2_out"},{"translation":[1.7979096174240113,-1.9574708938598633,1.4614741802215577],"rotation":[-0.056682389229536059,0.04750851541757584,-0.6070279479026794,0.7912315726280212],"extensions":{"ASOBO_unique_id":{"id":"VFX_Landing_3_Aft_1"}},"name":"VFX_Landing_3_Aft_1"},{"translation":[1.4171655178070069,-0.6146378517150879,1.481391668319702],"rotation":[-0.056682389229536059,0.04750851541757584,-0.6070279479026794,0.7912315726280212],"extensions":{"ASOBO_unique_id":{"id":"VFX_Landing_3_Aft_2"}},"name":"VFX_Landing_3_Aft_2"},{"translation":[-1.398111343383789,-0.6925292015075684,1.0235965251922608],"rotation":[-0.05668613687157631,-0.04750677198171616,0.607036828994751,0.7912244200706482],"extensions":{"ASOBO_unique_id":{"id":"fx_tire_contactPoint_right2_in"}},"name":"fx_tire_contactPoint_right2_in"},{"translation":[-1.7522428035736085,-2.023927688598633,1.0088458061218262],"rotation":[-0.05668613687157631,-0.04750677198171616,0.607036828994751,0.7912244200706482],"extensions":{"ASOBO_unique_id":{"id":"fx_tire_contactPoint_right2_out"}},"name":"fx_tire_contactPoint_right2_out"},{"translation":[-1.386566996574402,-0.695096492767334,0.9443039894104004],"rotation":[-0.05668613687157631,-0.04750677198171616,0.607036828994751,0.7912244200706482],"extensions":{"ASOBO_unique_id":{"id":"VFX_Landing_4_Aft_1"}},"name":"VFX_Landing_4_Aft_1"},{"translation":[-1.740697979927063,-2.0264949798583986,0.929553210735321],"rotation":[-0.05668613687157631,-0.04750677198171616,0.607036828994751,0.7912244200706482],"extensions":{"ASOBO_unique_id":{"id":"VFX_Landing_4_Aft_2"}},"name":"VFX_Landing_4_Aft_2"}],"scene":0,"scenes":[{"nodes":[0,1,2,3,4,5,6,7,8,9,10,11,12,13,14,15,16,17,18,19,20,21,22,23,24,25],"name":"Scene"}],"extensionsUsed":["ASOBO_normal_map_convention","ASOBO_unique_id","ASOBO_material_invisible","ASOBO_asset_optimized"],"buffers":[{"byteLength":936,"uri":"A380_FUSELAGE_LOD03.bin"}]}
