{"accessors":[{"bufferView":0,"componentType":5126,"count":8668,"min":[-2.952620267868042,4.451667308807373,6.851284027099609],"max":[2.952620267868042,5.469879150390625,22.454710006713867],"type":"VEC3","name":"Mesh_44.1141_vertices#0_POSITION"},{"bufferView":0,"byteOffset":12,"componentType":5120,"count":8668,"type":"VEC4","name":"Mesh_44.1141_vertices#0_TANGENT"},{"bufferView":0,"byteOffset":16,"componentType":5120,"count":8668,"type":"VEC4","name":"Mesh_44.1141_vertices#0_NORMAL"},{"bufferView":0,"byteOffset":20,"componentType":5122,"count":8668,"type":"VEC2","name":"Mesh_44.1141_vertices#0_TEXCOORD_0"},{"bufferView":0,"byteOffset":24,"componentType":5122,"count":8668,"type":"VEC2","name":"Mesh_44.1141_vertices#0_TEXCOORD_1"},{"bufferView":0,"byteOffset":28,"componentType":5123,"count":8668,"type":"VEC4","name":"Mesh_44.1141_vertices#0_COLOR_0"},{"bufferView":1,"componentType":5123,"count":36720,"type":"SCALAR","name":"Mesh_44.1141_indices#0"},{"bufferView":0,"byteOffset":312048,"componentType":5126,"count":23520,"min":[-3.064035415649414,4.648238182067871,7.018121719360352],"max":[3.064035415649414,5.152365684509277,22.35531997680664],"type":"VEC3","name":"Mesh_44.1143_vertices#0_POSITION"},{"bufferView":0,"byteOffset":312060,"componentType":5120,"count":23520,"type":"VEC4","name":"Mesh_44.1143_vertices#0_TANGENT"},{"bufferView":0,"byteOffset":312064,"componentType":5120,"count":23520,"type":"VEC4","name":"Mesh_44.1143_vertices#0_NORMAL"},{"bufferView":0,"byteOffset":312068,"componentType":5122,"count":23520,"type":"VEC2","name":"Mesh_44.1143_vertices#0_TEXCOORD_0"},{"bufferView":0,"byteOffset":312072,"componentType":5122,"count":23520,"type":"VEC2","name":"Mesh_44.1143_vertices#0_TEXCOORD_1"},{"bufferView":0,"byteOffset":312076,"componentType":5123,"count":23520,"type":"VEC4","name":"Mesh_44.1143_vertices#0_COLOR_0"},{"bufferView":1,"byteOffset":73440,"componentType":5123,"count":117504,"type":"SCALAR","name":"Mesh_44.1143_indices#0"},{"bufferView":0,"byteOffset":1158768,"componentType":5126,"count":3577,"min":[-2.952620267868042,4.451667308807373,-2.5972981452941895],"max":[2.952620267868042,5.469879150390625,3.764958381652832],"type":"VEC3","name":"Mesh_44.1223_vertices#0_POSITION"},{"bufferView":0,"byteOffset":1158780,"componentType":5120,"count":3577,"type":"VEC4","name":"Mesh_44.1223_vertices#0_TANGENT"},{"bufferView":0,"byteOffset":1158784,"componentType":5120,"count":3577,"type":"VEC4","name":"Mesh_44.1223_vertices#0_NORMAL"},{"bufferView":0,"byteOffset":1158788,"componentType":5122,"count":3577,"type":"VEC2","name":"Mesh_44.1223_vertices#0_TEXCOORD_0"},{"bufferView":0,"byteOffset":1158792,"componentType":5122,"count":3577,"type":"VEC2","name":"Mesh_44.1223_vertices#0_TEXCOORD_1"},{"bufferView":0,"byteOffset":1158796,"componentType":5123,"count":3577,"type":"VEC4","name":"Mesh_44.1223_vertices#0_COLOR_0"},{"bufferView":1,"byteOffset":308448,"componentType":5123,"count":15300,"type":"SCALAR","name":"Mesh_44.1223_indices#0"},{"bufferView":0,"byteOffset":1287540,"componentType":5126,"count":9800,"min":[-3.064035415649414,4.648238182067871,-2.4596290588378906],"max":[3.064035415649414,5.152365684509277,3.6655683517456055],"type":"VEC3","name":"Mesh_44.1224_vertices#0_POSITION"},{"bufferView":0,"byteOffset":1287552,"componentType":5120,"count":9800,"type":"VEC4","name":"Mesh_44.1224_vertices#0_TANGENT"},{"bufferView":0,"byteOffset":1287556,"componentType":5120,"count":9800,"type":"VEC4","name":"Mesh_44.1224_vertices#0_NORMAL"},{"bufferView":0,"byteOffset":1287560,"componentType":5122,"count":9800,"type":"VEC2","name":"Mesh_44.1224_vertices#0_TEXCOORD_0"},{"bufferView":0,"byteOffset":1287564,"componentType":5122,"count":9800,"type":"VEC2","name":"Mesh_44.1224_vertices#0_TEXCOORD_1"},{"bufferView":0,"byteOffset":1287568,"componentType":5123,"count":9800,"type":"VEC4","name":"Mesh_44.1224_vertices#0_COLOR_0"},{"bufferView":1,"byteOffset":339048,"componentType":5123,"count":48960,"type":"SCALAR","name":"Mesh_44.1224_indices#0"},{"bufferView":0,"byteOffset":1640340,"componentType":5126,"count":6123,"min":[-2.911083698272705,4.524969100952148,-2.519871234893799],"max":[2.911083698272705,5.218572616577148,3.723748207092285],"type":"VEC3","name":"Mesh_44.1230_vertices#0_POSITION"},{"bufferView":0,"byteOffset":1640352,"componentType":5120,"count":6123,"type":"VEC4","name":"Mesh_44.1230_vertices#0_TANGENT"},{"bufferView":0,"byteOffset":1640356,"componentType":5120,"count":6123,"type":"VEC4","name":"Mesh_44.1230_vertices#0_NORMAL"},{"bufferView":0,"byteOffset":1640360,"componentType":5122,"count":6123,"type":"VEC2","name":"Mesh_44.1230_vertices#0_TEXCOORD_0"},{"bufferView":0,"byteOffset":1640364,"componentType":5122,"count":6123,"type":"VEC2","name":"Mesh_44.1230_vertices#0_TEXCOORD_1"},{"bufferView":0,"byteOffset":1640368,"componentType":5123,"count":6123,"type":"VEC4","name":"Mesh_44.1230_vertices#0_COLOR_0"},{"bufferView":1,"byteOffset":436968,"componentType":5123,"count":26160,"type":"SCALAR","name":"Mesh_44.1230_indices#0"},{"bufferView":0,"byteOffset":1860768,"componentType":5126,"count":5243,"min":[-2.952620267868042,4.451667308807373,15.025571823120117],"max":[2.952620267868042,5.469879150390625,23.395748138427734],"type":"VEC3","name":"Mesh_44.052_vertices#0_POSITION"},{"bufferView":0,"byteOffset":1860780,"componentType":5120,"count":5243,"type":"VEC4","name":"Mesh_44.052_vertices#0_TANGENT"},{"bufferView":0,"byteOffset":1860784,"componentType":5120,"count":5243,"type":"VEC4","name":"Mesh_44.052_vertices#0_NORMAL"},{"bufferView":0,"byteOffset":1860788,"componentType":5122,"count":5243,"type":"VEC2","name":"Mesh_44.052_vertices#0_TEXCOORD_0"},{"bufferView":0,"byteOffset":1860792,"componentType":5122,"count":5243,"type":"VEC2","name":"Mesh_44.052_vertices#0_TEXCOORD_1"},{"bufferView":0,"byteOffset":1860796,"componentType":5123,"count":5243,"type":"VEC4","name":"Mesh_44.052_vertices#0_COLOR_0"},{"bufferView":1,"byteOffset":489288,"componentType":5123,"count":22380,"type":"SCALAR","name":"Mesh_44.052_indices#0"},{"bufferView":0,"byteOffset":2049516,"componentType":5126,"count":7066,"min":[-2.911083698272705,4.524969100952148,15.0966796875],"max":[2.911083698272705,5.218572616577148,23.354537963867188],"type":"VEC3","name":"Mesh_44.1011_vertices#0_POSITION"},{"bufferView":0,"byteOffset":2049528,"componentType":5120,"count":7066,"type":"VEC4","name":"Mesh_44.1011_vertices#0_TANGENT"},{"bufferView":0,"byteOffset":2049532,"componentType":5120,"count":7066,"type":"VEC4","name":"Mesh_44.1011_vertices#0_NORMAL"},{"bufferView":0,"byteOffset":2049536,"componentType":5122,"count":7066,"type":"VEC2","name":"Mesh_44.1011_vertices#0_TEXCOORD_0"},{"bufferView":0,"byteOffset":2049540,"componentType":5122,"count":7066,"type":"VEC2","name":"Mesh_44.1011_vertices#0_TEXCOORD_1"},{"bufferView":0,"byteOffset":2049544,"componentType":5123,"count":7066,"type":"VEC4","name":"Mesh_44.1011_vertices#0_COLOR_0"},{"bufferView":1,"byteOffset":534048,"componentType":5123,"count":29712,"type":"SCALAR","name":"Mesh_44.1011_indices#0"},{"bufferView":0,"byteOffset":2303892,"componentType":5126,"count":10780,"min":[-3.0754878520965576,4.648060321807861,15.524358749389648],"max":[3.0754878520965576,5.152534484863281,22.35531997680664],"type":"VEC3","name":"Mesh_44.084_vertices#0_POSITION"},{"bufferView":0,"byteOffset":2303904,"componentType":5120,"count":10780,"type":"VEC4","name":"Mesh_44.084_vertices#0_TANGENT"},{"bufferView":0,"byteOffset":2303908,"componentType":5120,"count":10780,"type":"VEC4","name":"Mesh_44.084_vertices#0_NORMAL"},{"bufferView":0,"byteOffset":2303912,"componentType":5122,"count":10780,"type":"VEC2","name":"Mesh_44.084_vertices#0_TEXCOORD_0"},{"bufferView":0,"byteOffset":2303916,"componentType":5122,"count":10780,"type":"VEC2","name":"Mesh_44.084_vertices#0_TEXCOORD_1"},{"bufferView":0,"byteOffset":2303920,"componentType":5123,"count":10780,"type":"VEC4","name":"Mesh_44.084_vertices#0_COLOR_0"},{"bufferView":1,"byteOffset":593472,"componentType":5123,"count":53856,"type":"SCALAR","name":"Mesh_44.084_indices#0"},{"bufferView":0,"byteOffset":2691972,"componentType":5126,"count":1632,"min":[-2.863107442855835,4.673133373260498,7.034688949584961],"max":[2.863107442855835,5.130432605743408,22.338520050048828],"type":"VEC3","name":"Mesh_44.1159_vertices#0_POSITION"},{"bufferView":0,"byteOffset":2691984,"componentType":5120,"count":1632,"type":"VEC4","name":"Mesh_44.1159_vertices#0_TANGENT"},{"bufferView":0,"byteOffset":2691988,"componentType":5120,"count":1632,"type":"VEC4","name":"Mesh_44.1159_vertices#0_NORMAL"},{"bufferView":0,"byteOffset":2691992,"componentType":5122,"count":1632,"type":"VEC2","name":"Mesh_44.1159_vertices#0_TEXCOORD_0"},{"bufferView":0,"byteOffset":2691996,"componentType":5122,"count":1632,"type":"VEC2","name":"Mesh_44.1159_vertices#0_TEXCOORD_1"},{"bufferView":0,"byteOffset":2692000,"componentType":5123,"count":1632,"type":"VEC4","name":"Mesh_44.1159_vertices#0_COLOR_0"},{"bufferView":1,"byteOffset":701184,"componentType":5123,"count":4608,"type":"SCALAR","name":"Mesh_44.1159_indices#0"},{"bufferView":0,"byteOffset":2750724,"componentType":5126,"count":14702,"min":[-2.911083698272705,4.524969100952148,6.9287109375],"max":[2.911083698272705,5.218572616577148,22.41349983215332],"type":"VEC3","name":"Mesh_44.1152_vertices#0_POSITION"},{"bufferView":0,"byteOffset":2750736,"componentType":5120,"count":14702,"type":"VEC4","name":"Mesh_44.1152_vertices#0_TANGENT"},{"bufferView":0,"byteOffset":2750740,"componentType":5120,"count":14702,"type":"VEC4","name":"Mesh_44.1152_vertices#0_NORMAL"},{"bufferView":0,"byteOffset":2750744,"componentType":5122,"count":14702,"type":"VEC2","name":"Mesh_44.1152_vertices#0_TEXCOORD_0"},{"bufferView":0,"byteOffset":2750748,"componentType":5122,"count":14702,"type":"VEC2","name":"Mesh_44.1152_vertices#0_TEXCOORD_1"},{"bufferView":0,"byteOffset":2750752,"componentType":5123,"count":14702,"type":"VEC4","name":"Mesh_44.1152_vertices#0_COLOR_0"},{"bufferView":1,"byteOffset":710400,"componentType":5123,"count":62784,"type":"SCALAR","name":"Mesh_44.1152_indices#0"},{"bufferView":0,"byteOffset":3279996,"componentType":5126,"count":814,"min":[-2.8587563037872314,4.669789791107178,15.540949821472168],"max":[2.8587563037872314,5.127089023590088,22.338520050048828],"type":"VEC3","name":"Mesh_44.083_vertices#0_POSITION"},{"bufferView":0,"byteOffset":3280008,"componentType":5120,"count":814,"type":"VEC4","name":"Mesh_44.083_vertices#0_TANGENT"},{"bufferView":0,"byteOffset":3280012,"componentType":5120,"count":814,"type":"VEC4","name":"Mesh_44.083_vertices#0_NORMAL"},{"bufferView":0,"byteOffset":3280016,"componentType":5122,"count":814,"type":"VEC2","name":"Mesh_44.083_vertices#0_TEXCOORD_0"},{"bufferView":0,"byteOffset":3280020,"componentType":5122,"count":814,"type":"VEC2","name":"Mesh_44.083_vertices#0_TEXCOORD_1"},{"bufferView":0,"byteOffset":3280024,"componentType":5123,"count":814,"type":"VEC4","name":"Mesh_44.083_vertices#0_COLOR_0"},{"bufferView":1,"byteOffset":835968,"componentType":5123,"count":2508,"type":"SCALAR","name":"Mesh_44.083_indices#0"},{"bufferView":0,"byteOffset":3309300,"componentType":5126,"count":231,"min":[-3.369114875793457,1.013966679573059,-20.597858428955078],"max":[3.369114875793457,1.013966679573059,30.042236328125],"type":"VEC3","name":"Mesh_44.481_vertices#0_POSITION"},{"bufferView":0,"byteOffset":3309312,"componentType":5120,"count":231,"type":"VEC4","name":"Mesh_44.481_vertices#0_TANGENT"},{"bufferView":0,"byteOffset":3309316,"componentType":5120,"count":231,"type":"VEC4","name":"Mesh_44.481_vertices#0_NORMAL"},{"bufferView":0,"byteOffset":3309320,"componentType":5122,"count":231,"type":"VEC2","name":"Mesh_44.481_vertices#0_TEXCOORD_0"},{"bufferView":0,"byteOffset":3309324,"componentType":5122,"count":231,"type":"VEC2","name":"Mesh_44.481_vertices#0_TEXCOORD_1"},{"bufferView":0,"byteOffset":3309328,"componentType":5123,"count":231,"type":"VEC4","name":"Mesh_44.481_vertices#0_COLOR_0"},{"bufferView":1,"byteOffset":840984,"componentType":5123,"count":888,"type":"SCALAR","name":"Mesh_44.481_indices#0"},{"bufferView":0,"byteOffset":3317616,"componentType":5126,"count":2997,"min":[-3.1882143020629883,1.3955367803573608,19.59758949279785],"max":[3.1882143020629883,2.901306629180908,28.04263687133789],"type":"VEC3","name":"Mesh_44.535_vertices#0_POSITION"},{"bufferView":0,"byteOffset":3317628,"componentType":5120,"count":2997,"type":"VEC4","name":"Mesh_44.535_vertices#0_TANGENT"},{"bufferView":0,"byteOffset":3317632,"componentType":5120,"count":2997,"type":"VEC4","name":"Mesh_44.535_vertices#0_NORMAL"},{"bufferView":0,"byteOffset":3317636,"componentType":5122,"count":2997,"type":"VEC2","name":"Mesh_44.535_vertices#0_TEXCOORD_0"},{"bufferView":0,"byteOffset":3317640,"componentType":5122,"count":2997,"type":"VEC2","name":"Mesh_44.535_vertices#0_TEXCOORD_1"},{"bufferView":0,"byteOffset":3317644,"componentType":5123,"count":2997,"type":"VEC4","name":"Mesh_44.535_vertices#0_COLOR_0"},{"bufferView":1,"byteOffset":842760,"componentType":5123,"count":15924,"type":"SCALAR","name":"Mesh_44.535_indices#0"},{"bufferView":0,"byteOffset":3425508,"componentType":5126,"count":1010,"min":[-3.2181637287139893,1.9016402959823608,20.070663452148438],"max":[3.2181637287139893,2.372309923171997,27.397499084472656],"type":"VEC3","name":"Mesh_44.636_vertices#0_POSITION"},{"bufferView":0,"byteOffset":3425520,"componentType":5120,"count":1010,"type":"VEC4","name":"Mesh_44.636_vertices#0_TANGENT"},{"bufferView":0,"byteOffset":3425524,"componentType":5120,"count":1010,"type":"VEC4","name":"Mesh_44.636_vertices#0_NORMAL"},{"bufferView":0,"byteOffset":3425528,"componentType":5122,"count":1010,"type":"VEC2","name":"Mesh_44.636_vertices#0_TEXCOORD_0"},{"bufferView":0,"byteOffset":3425532,"componentType":5122,"count":1010,"type":"VEC2","name":"Mesh_44.636_vertices#0_TEXCOORD_1"},{"bufferView":0,"byteOffset":3425536,"componentType":5123,"count":1010,"type":"VEC4","name":"Mesh_44.636_vertices#0_COLOR_0"},{"bufferView":1,"byteOffset":874608,"componentType":5123,"count":2886,"type":"SCALAR","name":"Mesh_44.636_indices#0"},{"bufferView":0,"byteOffset":3461868,"componentType":5126,"count":3642,"min":[-3.2161636352539062,1.7199466228485107,19.952463150024414],"max":[3.2161636352539062,2.552713632583618,27.489486694335938],"type":"VEC3","name":"Mesh_44.149_vertices#0_POSITION"},{"bufferView":0,"byteOffset":3461880,"componentType":5120,"count":3642,"type":"VEC4","name":"Mesh_44.149_vertices#0_TANGENT"},{"bufferView":0,"byteOffset":3461884,"componentType":5120,"count":3642,"type":"VEC4","name":"Mesh_44.149_vertices#0_NORMAL"},{"bufferView":0,"byteOffset":3461888,"componentType":5122,"count":3642,"type":"VEC2","name":"Mesh_44.149_vertices#0_TEXCOORD_0"},{"bufferView":0,"byteOffset":3461892,"componentType":5122,"count":3642,"type":"VEC2","name":"Mesh_44.149_vertices#0_TEXCOORD_1"},{"bufferView":0,"byteOffset":3461896,"componentType":5123,"count":3642,"type":"VEC4","name":"Mesh_44.149_vertices#0_COLOR_0"},{"bufferView":1,"byteOffset":880380,"componentType":5123,"count":18030,"type":"SCALAR","name":"Mesh_44.149_indices#0"},{"bufferView":0,"byteOffset":3592980,"componentType":5126,"count":372,"min":[-3.382798671722412,3.5965588092803955,-17.916501998901367],"max":[3.382798671722412,3.5965588092803955,29.372817993164062],"type":"VEC3","name":"Mesh_44.480_vertices#0_POSITION"},{"bufferView":0,"byteOffset":3592992,"componentType":5120,"count":372,"type":"VEC4","name":"Mesh_44.480_vertices#0_TANGENT"},{"bufferView":0,"byteOffset":3592996,"componentType":5120,"count":372,"type":"VEC4","name":"Mesh_44.480_vertices#0_NORMAL"},{"bufferView":0,"byteOffset":3593000,"componentType":5122,"count":372,"type":"VEC2","name":"Mesh_44.480_vertices#0_TEXCOORD_0"},{"bufferView":0,"byteOffset":3593004,"componentType":5122,"count":372,"type":"VEC2","name":"Mesh_44.480_vertices#0_TEXCOORD_1"},{"bufferView":0,"byteOffset":3593008,"componentType":5123,"count":372,"type":"VEC4","name":"Mesh_44.480_vertices#0_COLOR_0"},{"bufferView":1,"byteOffset":916440,"componentType":5123,"count":1728,"type":"SCALAR","name":"Mesh_44.480_indices#0"},{"bufferView":0,"byteOffset":3606372,"componentType":5126,"count":525,"min":[-3.382798671722412,3.865039348602295,-19.948129653930664],"max":[3.382798671722412,3.865039348602295,29.372817993164062],"type":"VEC3","name":"Mesh_44.1177_vertices#0_POSITION"},{"bufferView":0,"byteOffset":3606384,"componentType":5120,"count":525,"type":"VEC4","name":"Mesh_44.1177_vertices#0_TANGENT"},{"bufferView":0,"byteOffset":3606388,"componentType":5120,"count":525,"type":"VEC4","name":"Mesh_44.1177_vertices#0_NORMAL"},{"bufferView":0,"byteOffset":3606392,"componentType":5122,"count":525,"type":"VEC2","name":"Mesh_44.1177_vertices#0_TEXCOORD_0"},{"bufferView":0,"byteOffset":3606396,"componentType":5122,"count":525,"type":"VEC2","name":"Mesh_44.1177_vertices#0_TEXCOORD_1"},{"bufferView":0,"byteOffset":3606400,"componentType":5123,"count":525,"type":"VEC4","name":"Mesh_44.1177_vertices#0_COLOR_0"},{"bufferView":1,"byteOffset":919896,"componentType":5123,"count":2502,"type":"SCALAR","name":"Mesh_44.1177_indices#0"},{"bufferView":0,"byteOffset":3625272,"componentType":5126,"count":8932,"min":[-3.2972769737243652,1.3959848880767822,-8.374688148498535],"max":[3.2972769737243652,2.901306629180908,0.5436921715736389],"type":"VEC3","name":"Mesh_44.210_vertices#0_POSITION"},{"bufferView":0,"byteOffset":3625284,"componentType":5120,"count":8932,"type":"VEC4","name":"Mesh_44.210_vertices#0_TANGENT"},{"bufferView":0,"byteOffset":3625288,"componentType":5120,"count":8932,"type":"VEC4","name":"Mesh_44.210_vertices#0_NORMAL"},{"bufferView":0,"byteOffset":3625292,"componentType":5122,"count":8932,"type":"VEC2","name":"Mesh_44.210_vertices#0_TEXCOORD_0"},{"bufferView":0,"byteOffset":3625296,"componentType":5122,"count":8932,"type":"VEC2","name":"Mesh_44.210_vertices#0_TEXCOORD_1"},{"bufferView":0,"byteOffset":3625300,"componentType":5123,"count":8932,"type":"VEC4","name":"Mesh_44.210_vertices#0_COLOR_0"},{"bufferView":1,"byteOffset":924900,"componentType":5123,"count":45276,"type":"SCALAR","name":"Mesh_44.210_indices#0"},{"bufferView":0,"byteOffset":3946824,"componentType":5126,"count":9408,"min":[-3.297325849533081,1.3959848880767822,3.670649528503418],"max":[3.297325849533081,2.901306629180908,12.939151763916016],"type":"VEC3","name":"Mesh_44.211_vertices#0_POSITION"},{"bufferView":0,"byteOffset":3946836,"componentType":5120,"count":9408,"type":"VEC4","name":"Mesh_44.211_vertices#0_TANGENT"},{"bufferView":0,"byteOffset":3946840,"componentType":5120,"count":9408,"type":"VEC4","name":"Mesh_44.211_vertices#0_NORMAL"},{"bufferView":0,"byteOffset":3946844,"componentType":5122,"count":9408,"type":"VEC2","name":"Mesh_44.211_vertices#0_TEXCOORD_0"},{"bufferView":0,"byteOffset":3946848,"componentType":5122,"count":9408,"type":"VEC2","name":"Mesh_44.211_vertices#0_TEXCOORD_1"},{"bufferView":0,"byteOffset":3946852,"componentType":5123,"count":9408,"type":"VEC4","name":"Mesh_44.211_vertices#0_COLOR_0"},{"bufferView":1,"byteOffset":1015452,"componentType":5123,"count":47964,"type":"SCALAR","name":"Mesh_44.211_indices#0"},{"bufferView":0,"byteOffset":4285512,"componentType":5126,"count":1344,"min":[-3.297325849533081,1.3959848880767822,11.599910736083984],"max":[3.297325849533081,2.901306629180908,12.754900932312012],"type":"VEC3","name":"Mesh_44.261_vertices#0_POSITION"},{"bufferView":0,"byteOffset":4285524,"componentType":5120,"count":1344,"type":"VEC4","name":"Mesh_44.261_vertices#0_TANGENT"},{"bufferView":0,"byteOffset":4285528,"componentType":5120,"count":1344,"type":"VEC4","name":"Mesh_44.261_vertices#0_NORMAL"},{"bufferView":0,"byteOffset":4285532,"componentType":5122,"count":1344,"type":"VEC2","name":"Mesh_44.261_vertices#0_TEXCOORD_0"},{"bufferView":0,"byteOffset":4285536,"componentType":5122,"count":1344,"type":"VEC2","name":"Mesh_44.261_vertices#0_TEXCOORD_1"},{"bufferView":0,"byteOffset":4285540,"componentType":5123,"count":1344,"type":"VEC4","name":"Mesh_44.261_vertices#0_COLOR_0"},{"bufferView":1,"byteOffset":1111380,"componentType":5123,"count":6852,"type":"SCALAR","name":"Mesh_44.261_indices#0"},{"bufferView":0,"byteOffset":4333896,"componentType":5126,"count":789,"min":[-3.297325849533081,1.025282621383667,11.594426155090332],"max":[-3.1112279891967773,2.901306629180908,13.029250144958496],"type":"VEC3","name":"Mesh_44.262_vertices#0_POSITION"},{"bufferView":0,"byteOffset":4333908,"componentType":5120,"count":789,"type":"VEC4","name":"Mesh_44.262_vertices#0_TANGENT"},{"bufferView":0,"byteOffset":4333912,"componentType":5120,"count":789,"type":"VEC4","name":"Mesh_44.262_vertices#0_NORMAL"},{"bufferView":0,"byteOffset":4333916,"componentType":5122,"count":789,"type":"VEC2","name":"Mesh_44.262_vertices#0_TEXCOORD_0"},{"bufferView":0,"byteOffset":4333920,"componentType":5122,"count":789,"type":"VEC2","name":"Mesh_44.262_vertices#0_TEXCOORD_1"},{"bufferView":0,"byteOffset":4333924,"componentType":5123,"count":789,"type":"VEC4","name":"Mesh_44.262_vertices#0_COLOR_0"},{"bufferView":1,"byteOffset":1125084,"componentType":5123,"count":4092,"type":"SCALAR","name":"Mesh_44.262_indices#0"},{"bufferView":0,"byteOffset":4362300,"componentType":5126,"count":432,"min":[-3.274467706680298,1.3959848880767822,11.524284362792969],"max":[3.274467706680298,2.901306629180908,12.045002937316895],"type":"VEC3","name":"Mesh_44.324_vertices#0_POSITION"},{"bufferView":0,"byteOffset":4362312,"componentType":5120,"count":432,"type":"VEC4","name":"Mesh_44.324_vertices#0_TANGENT"},{"bufferView":0,"byteOffset":4362316,"componentType":5120,"count":432,"type":"VEC4","name":"Mesh_44.324_vertices#0_NORMAL"},{"bufferView":0,"byteOffset":4362320,"componentType":5122,"count":432,"type":"VEC2","name":"Mesh_44.324_vertices#0_TEXCOORD_0"},{"bufferView":0,"byteOffset":4362324,"componentType":5122,"count":432,"type":"VEC2","name":"Mesh_44.324_vertices#0_TEXCOORD_1"},{"bufferView":0,"byteOffset":4362328,"componentType":5123,"count":432,"type":"VEC4","name":"Mesh_44.324_vertices#0_COLOR_0"},{"bufferView":1,"byteOffset":1133268,"componentType":5123,"count":2232,"type":"SCALAR","name":"Mesh_44.324_indices#0"},{"bufferView":0,"byteOffset":4377852,"componentType":5126,"count":874,"min":[-3.297325849533081,1.3959848880767822,12.153570175170898],"max":[3.297325849533081,2.901306629180908,12.776473999023438],"type":"VEC3","name":"Mesh_44.327_vertices#0_POSITION"},{"bufferView":0,"byteOffset":4377864,"componentType":5120,"count":874,"type":"VEC4","name":"Mesh_44.327_vertices#0_TANGENT"},{"bufferView":0,"byteOffset":4377868,"componentType":5120,"count":874,"type":"VEC4","name":"Mesh_44.327_vertices#0_NORMAL"},{"bufferView":0,"byteOffset":4377872,"componentType":5122,"count":874,"type":"VEC2","name":"Mesh_44.327_vertices#0_TEXCOORD_0"},{"bufferView":0,"byteOffset":4377876,"componentType":5122,"count":874,"type":"VEC2","name":"Mesh_44.327_vertices#0_TEXCOORD_1"},{"bufferView":0,"byteOffset":4377880,"componentType":5123,"count":874,"type":"VEC4","name":"Mesh_44.327_vertices#0_COLOR_0"},{"bufferView":1,"byteOffset":1137732,"componentType":5123,"count":4464,"type":"SCALAR","name":"Mesh_44.327_indices#0"},{"bufferView":0,"byteOffset":4409316,"componentType":5126,"count":1276,"min":[-3.296928882598877,1.3959848880767822,-0.7306873798370361],"max":[3.296928882598877,2.901306629180908,0.5436921715736389],"type":"VEC3","name":"Mesh_44.385_vertices#0_POSITION"},{"bufferView":0,"byteOffset":4409328,"componentType":5120,"count":1276,"type":"VEC4","name":"Mesh_44.385_vertices#0_TANGENT"},{"bufferView":0,"byteOffset":4409332,"componentType":5120,"count":1276,"type":"VEC4","name":"Mesh_44.385_vertices#0_NORMAL"},{"bufferView":0,"byteOffset":4409336,"componentType":5122,"count":1276,"type":"VEC2","name":"Mesh_44.385_vertices#0_TEXCOORD_0"},{"bufferView":0,"byteOffset":4409340,"componentType":5122,"count":1276,"type":"VEC2","name":"Mesh_44.385_vertices#0_TEXCOORD_1"},{"bufferView":0,"byteOffset":4409344,"componentType":5123,"count":1276,"type":"VEC4","name":"Mesh_44.385_vertices#0_COLOR_0"},{"bufferView":1,"byteOffset":1146660,"componentType":5123,"count":6468,"type":"SCALAR","name":"Mesh_44.385_indices#0"},{"bufferView":0,"byteOffset":4455252,"componentType":5126,"count":1276,"min":[-3.2972795963287354,1.3959848880767822,-0.7306873798370361],"max":[3.2972795963287354,2.901306629180908,0.5436921715736389],"type":"VEC3","name":"Mesh_44.386_vertices#0_POSITION"},{"bufferView":0,"byteOffset":4455264,"componentType":5120,"count":1276,"type":"VEC4","name":"Mesh_44.386_vertices#0_TANGENT"},{"bufferView":0,"byteOffset":4455268,"componentType":5120,"count":1276,"type":"VEC4","name":"Mesh_44.386_vertices#0_NORMAL"},{"bufferView":0,"byteOffset":4455272,"componentType":5122,"count":1276,"type":"VEC2","name":"Mesh_44.386_vertices#0_TEXCOORD_0"},{"bufferView":0,"byteOffset":4455276,"componentType":5122,"count":1276,"type":"VEC2","name":"Mesh_44.386_vertices#0_TEXCOORD_1"},{"bufferView":0,"byteOffset":4455280,"componentType":5123,"count":1276,"type":"VEC4","name":"Mesh_44.386_vertices#0_COLOR_0"},{"bufferView":1,"byteOffset":1159596,"componentType":5123,"count":6468,"type":"SCALAR","name":"Mesh_44.386_indices#0"},{"bufferView":0,"byteOffset":4501188,"componentType":5126,"count":1276,"min":[-3.2979166507720947,1.3959848880767822,-0.7261136770248413],"max":[3.2979166507720947,2.901306629180908,0.5499106049537659],"type":"VEC3","name":"Mesh_44.387_vertices#0_POSITION"},{"bufferView":0,"byteOffset":4501200,"componentType":5120,"count":1276,"type":"VEC4","name":"Mesh_44.387_vertices#0_TANGENT"},{"bufferView":0,"byteOffset":4501204,"componentType":5120,"count":1276,"type":"VEC4","name":"Mesh_44.387_vertices#0_NORMAL"},{"bufferView":0,"byteOffset":4501208,"componentType":5122,"count":1276,"type":"VEC2","name":"Mesh_44.387_vertices#0_TEXCOORD_0"},{"bufferView":0,"byteOffset":4501212,"componentType":5122,"count":1276,"type":"VEC2","name":"Mesh_44.387_vertices#0_TEXCOORD_1"},{"bufferView":0,"byteOffset":4501216,"componentType":5123,"count":1276,"type":"VEC4","name":"Mesh_44.387_vertices#0_COLOR_0"},{"bufferView":1,"byteOffset":1172532,"componentType":5123,"count":6468,"type":"SCALAR","name":"Mesh_44.387_indices#0"},{"bufferView":0,"byteOffset":4547124,"componentType":5126,"count":1276,"min":[-3.2764151096343994,1.3959848880767822,-0.7347251176834106],"max":[3.2764151096343994,2.901306629180908,0.5430206060409546],"type":"VEC3","name":"Mesh_44.388_vertices#0_POSITION"},{"bufferView":0,"byteOffset":4547136,"componentType":5120,"count":1276,"type":"VEC4","name":"Mesh_44.388_vertices#0_TANGENT"},{"bufferView":0,"byteOffset":4547140,"componentType":5120,"count":1276,"type":"VEC4","name":"Mesh_44.388_vertices#0_NORMAL"},{"bufferView":0,"byteOffset":4547144,"componentType":5122,"count":1276,"type":"VEC2","name":"Mesh_44.388_vertices#0_TEXCOORD_0"},{"bufferView":0,"byteOffset":4547148,"componentType":5122,"count":1276,"type":"VEC2","name":"Mesh_44.388_vertices#0_TEXCOORD_1"},{"bufferView":0,"byteOffset":4547152,"componentType":5123,"count":1276,"type":"VEC4","name":"Mesh_44.388_vertices#0_COLOR_0"},{"bufferView":1,"byteOffset":1185468,"componentType":5123,"count":6468,"type":"SCALAR","name":"Mesh_44.388_indices#0"},{"bufferView":0,"byteOffset":4593060,"componentType":5126,"count":1276,"min":[-3.2545249462127686,1.3959848880767822,-0.7493988871574402],"max":[3.2545249462127686,2.901306629180908,0.5372615456581116],"type":"VEC3","name":"Mesh_44.389_vertices#0_POSITION"},{"bufferView":0,"byteOffset":4593072,"componentType":5120,"count":1276,"type":"VEC4","name":"Mesh_44.389_vertices#0_TANGENT"},{"bufferView":0,"byteOffset":4593076,"componentType":5120,"count":1276,"type":"VEC4","name":"Mesh_44.389_vertices#0_NORMAL"},{"bufferView":0,"byteOffset":4593080,"componentType":5122,"count":1276,"type":"VEC2","name":"Mesh_44.389_vertices#0_TEXCOORD_0"},{"bufferView":0,"byteOffset":4593084,"componentType":5122,"count":1276,"type":"VEC2","name":"Mesh_44.389_vertices#0_TEXCOORD_1"},{"bufferView":0,"byteOffset":4593088,"componentType":5123,"count":1276,"type":"VEC4","name":"Mesh_44.389_vertices#0_COLOR_0"},{"bufferView":1,"byteOffset":1198404,"componentType":5123,"count":6468,"type":"SCALAR","name":"Mesh_44.389_indices#0"},{"bufferView":0,"byteOffset":4638996,"componentType":5126,"count":20992,"min":[-3.5674595832824707,1.867031216621399,-17.8172664642334],"max":[3.5674595832824707,2.3917245864868164,13.975940704345703],"type":"VEC3","name":"Mesh_44.657_vertices#0_POSITION"},{"bufferView":0,"byteOffset":4639008,"componentType":5120,"count":20992,"type":"VEC4","name":"Mesh_44.657_vertices#0_TANGENT"},{"bufferView":0,"byteOffset":4639012,"componentType":5120,"count":20992,"type":"VEC4","name":"Mesh_44.657_vertices#0_NORMAL"},{"bufferView":0,"byteOffset":4639016,"componentType":5122,"count":20992,"type":"VEC2","name":"Mesh_44.657_vertices#0_TEXCOORD_0"},{"bufferView":0,"byteOffset":4639020,"componentType":5122,"count":20992,"type":"VEC2","name":"Mesh_44.657_vertices#0_TEXCOORD_1"},{"bufferView":0,"byteOffset":4639024,"componentType":5123,"count":20992,"type":"VEC4","name":"Mesh_44.657_vertices#0_COLOR_0"},{"bufferView":1,"byteOffset":1211340,"componentType":5123,"count":88560,"type":"SCALAR","name":"Mesh_44.657_indices#0"},{"bufferView":0,"byteOffset":5394708,"componentType":5126,"count":5740,"min":[-3.319267988204956,1.8633085489273071,-17.814191818237305],"max":[3.319267988204956,2.39538836479187,13.978282928466797],"type":"VEC3","name":"Mesh_44.654_vertices#0_POSITION"},{"bufferView":0,"byteOffset":5394720,"componentType":5120,"count":5740,"type":"VEC4","name":"Mesh_44.654_vertices#0_TANGENT"},{"bufferView":0,"byteOffset":5394724,"componentType":5120,"count":5740,"type":"VEC4","name":"Mesh_44.654_vertices#0_NORMAL"},{"bufferView":0,"byteOffset":5394728,"componentType":5122,"count":5740,"type":"VEC2","name":"Mesh_44.654_vertices#0_TEXCOORD_0"},{"bufferView":0,"byteOffset":5394732,"componentType":5122,"count":5740,"type":"VEC2","name":"Mesh_44.654_vertices#0_TEXCOORD_1"},{"bufferView":0,"byteOffset":5394736,"componentType":5123,"count":5740,"type":"VEC4","name":"Mesh_44.654_vertices#0_COLOR_0"},{"bufferView":1,"byteOffset":1388460,"componentType":5123,"count":16728,"type":"SCALAR","name":"Mesh_44.654_indices#0"},{"bufferView":0,"byteOffset":5601348,"componentType":5126,"count":512,"min":[-3.5619590282440186,1.867031216621399,14.295741081237793],"max":[-3.319267988204956,2.3917245864868164,15.242414474487305],"type":"VEC3","name":"Mesh_44.960_vertices#0_POSITION"},{"bufferView":0,"byteOffset":5601360,"componentType":5120,"count":512,"type":"VEC4","name":"Mesh_44.960_vertices#0_TANGENT"},{"bufferView":0,"byteOffset":5601364,"componentType":5120,"count":512,"type":"VEC4","name":"Mesh_44.960_vertices#0_NORMAL"},{"bufferView":0,"byteOffset":5601368,"componentType":5122,"count":512,"type":"VEC2","name":"Mesh_44.960_vertices#0_TEXCOORD_0"},{"bufferView":0,"byteOffset":5601372,"componentType":5122,"count":512,"type":"VEC2","name":"Mesh_44.960_vertices#0_TEXCOORD_1"},{"bufferView":0,"byteOffset":5601376,"componentType":5123,"count":512,"type":"VEC4","name":"Mesh_44.960_vertices#0_COLOR_0"},{"bufferView":1,"byteOffset":1421916,"componentType":5123,"count":2160,"type":"SCALAR","name":"Mesh_44.960_indices#0"},{"bufferView":0,"byteOffset":5619780,"componentType":5126,"count":24,"min":[-1.4934637546539307,-0.013072351925075054,-1.4934637546539307],"max":[1.4934637546539307,0.013072351925075054,1.4934637546539307],"type":"VEC3","name":"Cube.091_vertices#0_POSITION"},{"bufferView":0,"byteOffset":5619792,"componentType":5120,"count":24,"type":"VEC4","name":"Cube.091_vertices#0_TANGENT"},{"bufferView":0,"byteOffset":5619796,"componentType":5120,"count":24,"type":"VEC4","name":"Cube.091_vertices#0_NORMAL"},{"bufferView":0,"byteOffset":5619800,"componentType":5122,"count":24,"type":"VEC2","name":"Cube.091_vertices#0_TEXCOORD_0"},{"bufferView":0,"byteOffset":5619804,"componentType":5122,"count":24,"type":"VEC2","name":"Cube.091_vertices#0_TEXCOORD_1"},{"bufferView":0,"byteOffset":5619808,"componentType":5123,"count":24,"type":"VEC4","name":"Cube.091_vertices#0_COLOR_0"},{"bufferView":1,"byteOffset":1426236,"componentType":5123,"count":36,"type":"SCALAR","name":"Cube.091_indices#0"}],"asset":{"generator":"Khronos glTF Blender I/O v4.5.51 and Asobo Studio MSFS2024 Blender I/O v6.4.9 with Blender v4.5.10","version":"2.0","extensions":{"ASOBO_asset_optimized":{"BoundingBoxMax":[114.24598693847656,5.469879150390625,114.24598693847656],"BoundingBoxMin":[-114.24598693847656,-1.0,-114.24598693847656],"MajorVersion":4,"MinorVersion":7,"UseCheckerboardMaterialForMissingTextures":true,"UseOnlyFilenameForImageURI":true},"ASOBO_normal_map_convention":{"tangent_space_convention":"DirectX"}}},"bufferViews":[{"buffer":0,"byteLength":5620644,"byteStride":36,"target":34962,"name":"BufferViewVertexND"},{"buffer":0,"byteLength":1426308,"byteOffset":5620644,"target":34963,"name":"BufferViewIndexU16"}],"extensionsRequired":["MSFT_texture_dds"],"materials":[{"name":"A380X_FC_DECK_SIDWEALLS","normalTexture":{"index":1},"emissiveTexture":{"index":0},"emissiveFactor":[5.0,5.0,5.0],"pbrMetallicRoughness":{"baseColorTexture":{"index":3},"metallicRoughnessTexture":{"index":2}}},{"name":"A380X_PAX_GLASS","alphaMode":"BLEND","pbrMetallicRoughness":{"metallicFactor":0.0,"baseColorTexture":{"index":5},"metallicRoughnessTexture":{"index":4}},"extensions":{"ASOBO_material_glass_v2":{}}},{"name":"A380_COCKPIT_BLACK_FLOOR_PANEL_4k","normalTexture":{"index":6},"pbrMetallicRoughness":{"baseColorTexture":{"index":8},"metallicRoughnessTexture":{"index":7}}},{"name":"A380X_MAIN_DECK_PEC_SIDEWALLS","normalTexture":{"index":10},"emissiveTexture":{"index":9},"emissiveFactor":[1000.0,1000.0,1000.0],"pbrMetallicRoughness":{"baseColorTexture":{"index":12},"metallicRoughnessTexture":{"index":11}}},{"name":"A380X_CABIN_FLOOR","doubleSided":true,"pbrMetallicRoughness":{"baseColorFactor":[0.12555736303329468,0.12555736303329468,0.12555736303329468,1.0]}},{"name":"A380X_UPPER_DECK_FLOOR","normalTexture":{"index":14},"pbrMetallicRoughness":{"baseColorTexture":{"index":16},"metallicRoughnessTexture":{"index":15}},"extensions":{"ASOBO_material_detail_map":{"UVScale":60.0,"blendThreshold":0.0010000000474974513,"detailColorTexture":{"index":13}}}},{"name":"A380X_MAIN_DECK_YC_SIDEWALLS","normalTexture":{"index":18},"emissiveTexture":{"index":17},"emissiveFactor":[1000.0,1000.0,1000.0],"pbrMetallicRoughness":{"baseColorTexture":{"index":20},"metallicRoughnessTexture":{"index":19}}},{"name":"INVISIBLE","extensions":{"ASOBO_material_invisible":{}}}],"meshes":[{"primitives":[{"attributes":{"COLOR_0":5,"NORMAL":2,"POSITION":0,"TANGENT":1,"TEXCOORD_0":3,"TEXCOORD_1":4},"indices":6,"material":0,"mode":4,"extras":{"ASOBO_primitive":{"PrimitiveCount":12240,"UV2Length":0.4881958067417145,"UVLength":0.4881958067417145,"VertexCount":8668,"VertexType":"VTX","VertexVersion":2}}}],"name":"Mesh_44.1141"},{"primitives":[{"attributes":{"COLOR_0":12,"NORMAL":9,"POSITION":7,"TANGENT":8,"TEXCOORD_0":10,"TEXCOORD_1":11},"indices":13,"material":0,"mode":4,"extras":{"ASOBO_primitive":{"PrimitiveCount":39168,"UV2Length":0.5859375596046448,"UVLength":0.5859375596046448,"VertexCount":23520,"VertexType":"VTX","VertexVersion":2}}}],"name":"Mesh_44.1143"},{"primitives":[{"attributes":{"COLOR_0":19,"NORMAL":16,"POSITION":14,"TANGENT":15,"TEXCOORD_0":17,"TEXCOORD_1":18},"indices":20,"material":0,"mode":4,"extras":{"ASOBO_primitive":{"PrimitiveCount":5100,"UV2Length":0.4881958067417145,"UVLength":0.4881958067417145,"VertexCount":3577,"VertexType":"VTX","VertexVersion":2}}}],"name":"Mesh_44.1223"},{"primitives":[{"attributes":{"COLOR_0":26,"NORMAL":23,"POSITION":21,"TANGENT":22,"TEXCOORD_0":24,"TEXCOORD_1":25},"indices":27,"material":0,"mode":4,"extras":{"ASOBO_primitive":{"PrimitiveCount":16320,"UV2Length":0.5859375596046448,"UVLength":0.5859375596046448,"VertexCount":9800,"VertexType":"VTX","VertexVersion":2}}}],"name":"Mesh_44.1224"},{"primitives":[{"attributes":{"COLOR_0":33,"NORMAL":30,"POSITION":28,"TANGENT":29,"TEXCOORD_0":31,"TEXCOORD_1":32},"indices":34,"material":0,"mode":4,"extras":{"ASOBO_primitive":{"PrimitiveCount":8720,"UV2Length":0.36564019322395325,"UVLength":0.36564019322395325,"VertexCount":6123,"VertexType":"VTX","VertexVersion":2}}}],"name":"Mesh_44.1230"},{"primitives":[{"attributes":{"COLOR_0":40,"NORMAL":37,"POSITION":35,"TANGENT":36,"TEXCOORD_0":38,"TEXCOORD_1":39},"indices":41,"material":0,"mode":4,"extras":{"ASOBO_primitive":{"PrimitiveCount":7460,"UV2Length":0.6806885600090027,"UVLength":0.6806885600090027,"VertexCount":5243,"VertexType":"VTX","VertexVersion":2}}}],"name":"Mesh_44.052"},{"primitives":[{"attributes":{"COLOR_0":47,"NORMAL":44,"POSITION":42,"TANGENT":43,"TEXCOORD_0":45,"TEXCOORD_1":46},"indices":48,"material":0,"mode":4,"extras":{"ASOBO_primitive":{"PrimitiveCount":9904,"UV2Length":0.6542821526527405,"UVLength":0.6542821526527405,"VertexCount":7066,"VertexType":"VTX","VertexVersion":2}}}],"name":"Mesh_44.1011"},{"primitives":[{"attributes":{"COLOR_0":54,"NORMAL":51,"POSITION":49,"TANGENT":50,"TEXCOORD_0":52,"TEXCOORD_1":53},"indices":55,"material":0,"mode":4,"extras":{"ASOBO_primitive":{"PrimitiveCount":17952,"UV2Length":0.6713325381278992,"UVLength":0.6713325381278992,"VertexCount":10780,"VertexType":"VTX","VertexVersion":2}}}],"name":"Mesh_44.084"},{"primitives":[{"attributes":{"COLOR_0":61,"NORMAL":58,"POSITION":56,"TANGENT":57,"TEXCOORD_0":59,"TEXCOORD_1":60},"indices":62,"material":1,"mode":4,"extras":{"ASOBO_primitive":{"PrimitiveCount":1536,"UV2Length":0.4460001289844513,"UVLength":0.4460001289844513,"VertexCount":1632,"VertexType":"VTX","VertexVersion":2}}}],"name":"Mesh_44.1159"},{"primitives":[{"attributes":{"COLOR_0":68,"NORMAL":65,"POSITION":63,"TANGENT":64,"TEXCOORD_0":66,"TEXCOORD_1":67},"indices":69,"material":0,"mode":4,"extras":{"ASOBO_primitive":{"PrimitiveCount":20928,"UV2Length":0.36564019322395325,"UVLength":0.36564019322395325,"VertexCount":14702,"VertexType":"VTX","VertexVersion":2}}}],"name":"Mesh_44.1152"},{"primitives":[{"attributes":{"COLOR_0":75,"NORMAL":72,"POSITION":70,"TANGENT":71,"TEXCOORD_0":73,"TEXCOORD_1":74},"indices":76,"material":1,"mode":4,"extras":{"ASOBO_primitive":{"PrimitiveCount":836,"UV2Length":0.6988760828971863,"UVLength":0.6988760828971863,"VertexCount":814,"VertexType":"VTX","VertexVersion":2}}}],"name":"Mesh_44.083"},{"primitives":[{"attributes":{"COLOR_0":82,"NORMAL":79,"POSITION":77,"TANGENT":78,"TEXCOORD_0":80,"TEXCOORD_1":81},"indices":83,"material":2,"mode":4,"extras":{"ASOBO_primitive":{"PrimitiveCount":296,"UV2Length":11.358827590942383,"UVLength":11.358827590942383,"VertexCount":231,"VertexType":"VTX","VertexVersion":2}}}],"name":"Mesh_44.481"},{"primitives":[{"attributes":{"COLOR_0":89,"NORMAL":86,"POSITION":84,"TANGENT":85,"TEXCOORD_0":87,"TEXCOORD_1":88},"indices":90,"material":3,"mode":4,"extras":{"ASOBO_primitive":{"PrimitiveCount":5308,"UV2Length":0.4213252067565918,"UVLength":0.4213252067565918,"VertexCount":2997,"VertexType":"VTX","VertexVersion":2}}}],"name":"Mesh_44.535"},{"primitives":[{"attributes":{"COLOR_0":96,"NORMAL":93,"POSITION":91,"TANGENT":92,"TEXCOORD_0":94,"TEXCOORD_1":95},"indices":97,"material":1,"mode":4,"extras":{"ASOBO_primitive":{"PrimitiveCount":962,"UV2Length":0.6818050742149353,"UVLength":0.6818050742149353,"VertexCount":1010,"VertexType":"VTX","VertexVersion":2}}}],"name":"Mesh_44.636"},{"primitives":[{"attributes":{"COLOR_0":103,"NORMAL":100,"POSITION":98,"TANGENT":99,"TEXCOORD_0":101,"TEXCOORD_1":102},"indices":104,"material":3,"mode":4,"extras":{"ASOBO_primitive":{"PrimitiveCount":6010,"UV2Length":0.27708932757377625,"UVLength":0.27708932757377625,"VertexCount":3642,"VertexType":"VTX","VertexVersion":2}}}],"name":"Mesh_44.149"},{"primitives":[{"attributes":{"COLOR_0":110,"NORMAL":107,"POSITION":105,"TANGENT":106,"TEXCOORD_0":108,"TEXCOORD_1":109},"indices":111,"material":4,"mode":4,"extras":{"ASOBO_primitive":{"PrimitiveCount":576,"UV2Length":0.4548577070236206,"UVLength":0.4548577070236206,"VertexCount":372,"VertexType":"VTX","VertexVersion":2}}}],"name":"Mesh_44.480"},{"primitives":[{"attributes":{"COLOR_0":117,"NORMAL":114,"POSITION":112,"TANGENT":113,"TEXCOORD_0":115,"TEXCOORD_1":116},"indices":118,"material":5,"mode":4,"extras":{"ASOBO_primitive":{"PrimitiveCount":834,"UV2Length":0.7022919058799744,"UVLength":0.7022919058799744,"VertexCount":525,"VertexType":"VTX","VertexVersion":2}}}],"name":"Mesh_44.1177"},{"primitives":[{"attributes":{"COLOR_0":124,"NORMAL":121,"POSITION":119,"TANGENT":120,"TEXCOORD_0":122,"TEXCOORD_1":123},"indices":125,"material":6,"mode":4,"extras":{"ASOBO_primitive":{"PrimitiveCount":15092,"UV2Length":0.0757761225104332,"UVLength":0.0757761225104332,"VertexCount":8932,"VertexType":"VTX","VertexVersion":2}}}],"name":"Mesh_44.210"},{"primitives":[{"attributes":{"COLOR_0":131,"NORMAL":128,"POSITION":126,"TANGENT":127,"TEXCOORD_0":129,"TEXCOORD_1":130},"indices":132,"material":6,"mode":4,"extras":{"ASOBO_primitive":{"PrimitiveCount":15988,"UV2Length":0.0770644098520279,"UVLength":0.0770644098520279,"VertexCount":9408,"VertexType":"VTX","VertexVersion":2}}}],"name":"Mesh_44.211"},{"primitives":[{"attributes":{"COLOR_0":138,"NORMAL":135,"POSITION":133,"TANGENT":134,"TEXCOORD_0":136,"TEXCOORD_1":137},"indices":139,"material":6,"mode":4,"extras":{"ASOBO_primitive":{"PrimitiveCount":2284,"UV2Length":0.07299736142158508,"UVLength":0.07299736142158508,"VertexCount":1344,"VertexType":"VTX","VertexVersion":2}}}],"name":"Mesh_44.261"},{"primitives":[{"attributes":{"COLOR_0":145,"NORMAL":142,"POSITION":140,"TANGENT":141,"TEXCOORD_0":143,"TEXCOORD_1":144},"indices":146,"material":6,"mode":4,"extras":{"ASOBO_primitive":{"PrimitiveCount":1364,"UV2Length":0.09100481867790222,"UVLength":0.09100481867790222,"VertexCount":789,"VertexType":"VTX","VertexVersion":2}}}],"name":"Mesh_44.262"},{"primitives":[{"attributes":{"COLOR_0":152,"NORMAL":149,"POSITION":147,"TANGENT":148,"TEXCOORD_0":150,"TEXCOORD_1":151},"indices":153,"material":6,"mode":4,"extras":{"ASOBO_primitive":{"PrimitiveCount":744,"UV2Length":0.06105955317616463,"UVLength":0.06105955317616463,"VertexCount":432,"VertexType":"VTX","VertexVersion":2}}}],"name":"Mesh_44.324"},{"primitives":[{"attributes":{"COLOR_0":159,"NORMAL":156,"POSITION":154,"TANGENT":155,"TEXCOORD_0":157,"TEXCOORD_1":158},"indices":160,"material":6,"mode":4,"extras":{"ASOBO_primitive":{"PrimitiveCount":1488,"UV2Length":0.06275471299886703,"UVLength":0.06275471299886703,"VertexCount":874,"VertexType":"VTX","VertexVersion":2}}}],"name":"Mesh_44.327"},{"primitives":[{"attributes":{"COLOR_0":166,"NORMAL":163,"POSITION":161,"TANGENT":162,"TEXCOORD_0":164,"TEXCOORD_1":165},"indices":167,"material":6,"mode":4,"extras":{"ASOBO_primitive":{"PrimitiveCount":2156,"UV2Length":0.07577686756849289,"UVLength":0.07577686756849289,"VertexCount":1276,"VertexType":"VTX","VertexVersion":2}}}],"name":"Mesh_44.385"},{"primitives":[{"attributes":{"COLOR_0":173,"NORMAL":170,"POSITION":168,"TANGENT":169,"TEXCOORD_0":171,"TEXCOORD_1":172},"indices":174,"material":6,"mode":4,"extras":{"ASOBO_primitive":{"PrimitiveCount":2156,"UV2Length":0.07577332109212875,"UVLength":0.07577332109212875,"VertexCount":1276,"VertexType":"VTX","VertexVersion":2}}}],"name":"Mesh_44.386"},{"primitives":[{"attributes":{"COLOR_0":180,"NORMAL":177,"POSITION":175,"TANGENT":176,"TEXCOORD_0":178,"TEXCOORD_1":179},"indices":181,"material":6,"mode":4,"extras":{"ASOBO_primitive":{"PrimitiveCount":2156,"UV2Length":0.07577818632125854,"UVLength":0.07577818632125854,"VertexCount":1276,"VertexType":"VTX","VertexVersion":2}}}],"name":"Mesh_44.387"},{"primitives":[{"attributes":{"COLOR_0":187,"NORMAL":184,"POSITION":182,"TANGENT":183,"TEXCOORD_0":185,"TEXCOORD_1":186},"indices":188,"material":6,"mode":4,"extras":{"ASOBO_primitive":{"PrimitiveCount":2156,"UV2Length":0.07585964351892471,"UVLength":0.07585964351892471,"VertexCount":1276,"VertexType":"VTX","VertexVersion":2}}}],"name":"Mesh_44.388"},{"primitives":[{"attributes":{"COLOR_0":194,"NORMAL":191,"POSITION":189,"TANGENT":190,"TEXCOORD_0":192,"TEXCOORD_1":193},"indices":195,"material":6,"mode":4,"extras":{"ASOBO_primitive":{"PrimitiveCount":2156,"UV2Length":0.0761997252702713,"UVLength":0.0761997252702713,"VertexCount":1276,"VertexType":"VTX","VertexVersion":2}}}],"name":"Mesh_44.389"},{"primitives":[{"attributes":{"COLOR_0":201,"NORMAL":198,"POSITION":196,"TANGENT":197,"TEXCOORD_0":199,"TEXCOORD_1":200},"indices":202,"material":6,"mode":4,"extras":{"ASOBO_primitive":{"PrimitiveCount":29520,"UV2Length":0.33417248725891113,"UVLength":0.33417248725891113,"VertexCount":20992,"VertexType":"VTX","VertexVersion":2}}}],"name":"Mesh_44.657"},{"primitives":[{"attributes":{"COLOR_0":208,"NORMAL":205,"POSITION":203,"TANGENT":204,"TEXCOORD_0":206,"TEXCOORD_1":207},"indices":209,"material":1,"mode":4,"extras":{"ASOBO_primitive":{"PrimitiveCount":5576,"UV2Length":0.6229060292243958,"UVLength":0.6229060292243958,"VertexCount":5740,"VertexType":"VTX","VertexVersion":2}}}],"name":"Mesh_44.654"},{"primitives":[{"attributes":{"COLOR_0":215,"NORMAL":212,"POSITION":210,"TANGENT":211,"TEXCOORD_0":213,"TEXCOORD_1":214},"indices":216,"material":6,"mode":4,"extras":{"ASOBO_primitive":{"PrimitiveCount":720,"UV2Length":0.33417248725891113,"UVLength":0.33417248725891113,"VertexCount":512,"VertexType":"VTX","VertexVersion":2}}}],"name":"Mesh_44.960"},{"primitives":[{"attributes":{"COLOR_0":222,"NORMAL":219,"POSITION":217,"TANGENT":218,"TEXCOORD_0":220,"TEXCOORD_1":221},"indices":223,"material":7,"mode":4,"extras":{"ASOBO_primitive":{"PrimitiveCount":12,"UV2Length":0.625,"UVLength":0.625,"VertexCount":24,"VertexType":"VTX","VertexVersion":2}}}],"name":"Cube.091"}],"nodes":[{"translation":[0.0,0.0,-10.257633209228516],"mesh":0,"extensions":{"ASOBO_unique_id":{"id":"BC.040"}},"name":"BC.040"},{"translation":[0.0,0.0,-10.257633209228516],"mesh":1,"extensions":{"ASOBO_unique_id":{"id":"BC.098"}},"name":"BC.098"},{"translation":[0.0,0.0,-10.257633209228516],"mesh":2,"extensions":{"ASOBO_unique_id":{"id":"BC.110"}},"name":"BC.110"},{"translation":[0.0,0.0,-10.257633209228516],"mesh":3,"extensions":{"ASOBO_unique_id":{"id":"BC.111"}},"name":"BC.111"},{"translation":[0.0,0.0,-10.257633209228516],"mesh":4,"extensions":{"ASOBO_unique_id":{"id":"BC.117"}},"name":"BC.117"},{"mesh":5,"extensions":{"ASOBO_unique_id":{"id":"FC.004"}},"name":"FC.004"},{"mesh":6,"extensions":{"ASOBO_unique_id":{"id":"FC.028"}},"name":"FC.028"},{"mesh":7,"extensions":{"ASOBO_unique_id":{"id":"FC.034"}},"name":"FC.034"},{"translation":[0.0,0.0,-10.257633209228516],"mesh":8,"extensions":{"ASOBO_unique_id":{"id":"BC.039"}},"name":"BC.039"},{"translation":[0.0,0.0,-10.257633209228516],"mesh":9,"extensions":{"ASOBO_unique_id":{"id":"BC.036"}},"name":"BC.036"},{"mesh":10,"extensions":{"ASOBO_unique_id":{"id":"FC._WINDOWS"}},"name":"FC._WINDOWS"},{"mesh":11,"extensions":{"ASOBO_unique_id":{"id":"LOWER FLLOR "}},"name":"LOWER FLLOR "},{"mesh":12,"extensions":{"ASOBO_unique_id":{"id":"PEC.019"}},"name":"PEC.019"},{"mesh":13,"extensions":{"ASOBO_unique_id":{"id":"PEC.027"}},"name":"PEC.027"},{"mesh":14,"extensions":{"ASOBO_unique_id":{"id":"PEC.057"}},"name":"PEC.057"},{"mesh":15,"extensions":{"ASOBO_unique_id":{"id":"UPPER_FLOOR"}},"name":"UPPER_FLOOR"},{"mesh":16,"extensions":{"ASOBO_unique_id":{"id":"UPPER_FLOOR.001"}},"name":"UPPER_FLOOR.001"},{"mesh":17,"extensions":{"ASOBO_unique_id":{"id":"YC.025"}},"name":"YC.025"},{"translation":[0.0,0.0,0.6898307800292969],"mesh":18,"extensions":{"ASOBO_unique_id":{"id":"YC.032"}},"name":"YC.032"},{"translation":[0.0,0.0,2.024503231048584],"mesh":19,"extensions":{"ASOBO_unique_id":{"id":"YC.084"}},"name":"YC.084"},{"translation":[0.0,0.0,3.1816484928131104],"mesh":20,"extensions":{"ASOBO_unique_id":{"id":"YC.085"}},"name":"YC.085"},{"translation":[0.0,0.0,-10.361957550048828],"mesh":21,"extensions":{"ASOBO_unique_id":{"id":"YC.115"}},"name":"YC.115"},{"translation":[0.0,0.0,-11.612553596496582],"mesh":22,"extensions":{"ASOBO_unique_id":{"id":"YC.117"}},"name":"YC.117"},{"translation":[0.0,0.0,-11.467464447021484],"mesh":23,"extensions":{"ASOBO_unique_id":{"id":"YC.177"}},"name":"YC.177"},{"translation":[0.0,0.0,-12.738439559936523],"mesh":24,"extensions":{"ASOBO_unique_id":{"id":"YC.178"}},"name":"YC.178"},{"translation":[0.0,0.0,-14.014053344726562],"mesh":25,"extensions":{"ASOBO_unique_id":{"id":"YC.179"}},"name":"YC.179"},{"translation":[0.0,0.0,-15.275752067565918],"mesh":26,"extensions":{"ASOBO_unique_id":{"id":"YC.180"}},"name":"YC.180"},{"translation":[0.0,0.0,-16.541881561279297],"mesh":27,"extensions":{"ASOBO_unique_id":{"id":"YC.181"}},"name":"YC.181"},{"translation":[0.0,0.0,0.6898307800292969],"mesh":28,"extensions":{"ASOBO_unique_id":{"id":"YC.306"}},"name":"YC.306"},{"translation":[0.0,0.0,0.6898307800292969],"mesh":29,"extensions":{"ASOBO_unique_id":{"id":"YC.308"}},"name":"YC.308"},{"translation":[0.0,0.0,0.6898307800292969],"mesh":30,"extensions":{"ASOBO_unique_id":{"id":"YC.321"}},"name":"YC.321"},{"extensions":{"ASOBO_unique_id":{"id":"A380_CABIN"}},"name":"A380_CABIN","children":[0,1,2,3,4,5,6,7,8,9,10,11,12,13,14,15,16,17,18,19,20,21,22,23,24,25,26,27,28,29,30]},{"scale":[114.24598693847656,1.0,114.24598693847656],"mesh":31,"extensions":{"ASOBO_unique_id":{"id":"CABIN_BOUNDS"}},"name":"CABIN_BOUNDS"}],"scene":0,"scenes":[{"nodes":[31,32],"name":"Scene"}],"textures":[{"extensions":{"MSFT_texture_dds":{"source":0}}},{"extensions":{"MSFT_texture_dds":{"source":1}}},{"extensions":{"MSFT_texture_dds":{"source":2}}},{"extensions":{"MSFT_texture_dds":{"source":3}}},{"extensions":{"MSFT_texture_dds":{"source":4}}},{"extensions":{"MSFT_texture_dds":{"source":5}}},{"extensions":{"MSFT_texture_dds":{"source":6}}},{"extensions":{"MSFT_texture_dds":{"source":7}}},{"extensions":{"MSFT_texture_dds":{"source":8}}},{"extensions":{"MSFT_texture_dds":{"source":9}}},{"extensions":{"MSFT_texture_dds":{"source":10}}},{"extensions":{"MSFT_texture_dds":{"source":11}}},{"extensions":{"MSFT_texture_dds":{"source":12}}},{"extensions":{"MSFT_texture_dds":{"source":13}}},{"extensions":{"MSFT_texture_dds":{"source":14}}},{"extensions":{"MSFT_texture_dds":{"source":15}}},{"extensions":{"MSFT_texture_dds":{"source":16}}},{"extensions":{"MSFT_texture_dds":{"source":17}}},{"extensions":{"MSFT_texture_dds":{"source":18}}},{"extensions":{"MSFT_texture_dds":{"source":19}}},{"extensions":{"MSFT_texture_dds":{"source":20}}}],"samplers":[{"magFilter":9729,"minFilter":9987,"wrapS":10497,"wrapT":10497}],"extensionsUsed":["ASOBO_normal_map_convention","ASOBO_unique_id","ASOBO_material_glass_v2","ASOBO_material_detail_map","ASOBO_material_invisible","MSFT_texture_dds","ASOBO_asset_optimized"],"buffers":[{"byteLength":7046952,"uri":"A380_CABIN_LOD01.bin"}],"images":[{"uri":"..\\TEXTURE\\A380X_SUITE_CEILING_EMIS.PNG.KTX2","name":"A380X_SUITE_CEILING_EMIS","extras":"ASOBO_image_converted_meta"},{"uri":"..\\TEXTURE\\A380X_SUITE_CEILING_NORM.PNG.KTX2","name":"A380X_SUITE_CEILING_NORM","extras":"ASOBO_image_converted_meta"},{"uri":"..\\TEXTURE\\A380X_SUITE_CEILING_COMP.PNG.KTX2","name":"A380X_SUITE_CEILING_COMP","extras":"ASOBO_image_converted_meta"},{"uri":"..\\TEXTURE\\A380X_SUITE_CEILING_ALBD.PNG.KTX2","name":"A380X_SUITE_CEILING_ALBD","extras":"ASOBO_image_converted_meta"},{"uri":"..\\TEXTURE\\A380X_PAX_INNER_WINDOW_COMP.PNG.KTX2","name":"A380X_PAX_INNER_WINDOW_COMP","extras":"ASOBO_image_converted_meta"},{"uri":"..\\TEXTURE\\A380X_PAX_INNER_WINDOW_ALBD.PNG.KTX2","name":"A380X_PAX_INNER_WINDOW_ALBD","extras":"ASOBO_image_converted_meta"},{"uri":"..\\TEXTURE\\A380X_COCKPIT_FLOOR_PANELS_DETAIL_NORM.PNG.KTX2","name":"A380X_COCKPIT_FLOOR_PANELS_DETAIL_NORM","extras":"ASOBO_image_converted_meta"},{"uri":"..\\TEXTURE\\A380X_COCKPIT_FLOOR_PANELS_DETAIL_COMP.PNG.KTX2","name":"A380X_COCKPIT_FLOOR_PANELS_DETAIL_COMP","extras":"ASOBO_image_converted_meta"},{"uri":"..\\TEXTURE\\A380X_COCKPIT_FLOOR_PANELS_DETAIL_ALBD.PNG.KTX2","name":"A380X_COCKPIT_FLOOR_PANELS_DETAIL_ALBD","extras":"ASOBO_image_converted_meta"},{"uri":"..\\TEXTURE\\A380X_MAIN_DECK_PEC_SIDEWALLS_EMIS.PNG.KTX2","name":"A380X_MAIN_DECK_PEC_SIDEWALLS_EMIS","extras":"ASOBO_image_converted_meta"},{"uri":"..\\TEXTURE\\A380X_MAIN_DECK_PEC_SIDEWALLS_NORM.PNG.KTX2","name":"A380X_MAIN_DECK_PEC_SIDEWALLS_NORM","extras":"ASOBO_image_converted_meta"},{"uri":"..\\TEXTURE\\A380X_MAIN_DECK_PEC_SIDEWALLS_COMP.PNG.KTX2","name":"A380X_MAIN_DECK_PEC_SIDEWALLS_COMP","extras":"ASOBO_image_converted_meta"},{"uri":"..\\TEXTURE\\A380X_MAIN_DECK_PEC_SIDEWALLS_ALBD.PNG.KTX2","name":"A380X_MAIN_DECK_PEC_SIDEWALLS_ALBD","extras":"ASOBO_image_converted_meta"},{"uri":"..\\TEXTURE\\A380X_CABIN_CARPET_DETAIL_ALBD.PNG.KTX2","name":"A380X_CABIN_CARPET_DETAIL_ALBD","extras":"ASOBO_image_converted_meta"},{"uri":"..\\TEXTURE\\A380X_MAIN_DECK_FLOOR_NORM.PNG.KTX2","name":"A380X_MAIN_DECK_FLOOR_NORM","extras":"ASOBO_image_converted_meta"},{"uri":"..\\TEXTURE\\A380X_UPPER_DECK_FLOOR_COMP.PNG.KTX2","name":"A380X_UPPER_DECK_FLOOR_COMP","extras":"ASOBO_image_converted_meta"},{"uri":"..\\TEXTURE\\A380X_MAIN_DECK_FLOOR_ALBD.PNG.KTX2","name":"A380X_MAIN_DECK_FLOOR_ALBD","extras":"ASOBO_image_converted_meta"},{"uri":"..\\TEXTURE\\A380X_MAIN_DECK_YC_SIDEWALLS_EMIS.PNG.KTX2","name":"A380X_MAIN_DECK_YC_SIDEWALLS_EMIS","extras":"ASOBO_image_converted_meta"},{"uri":"..\\TEXTURE\\A380X_MAIN_DECK_YC_SIDEWALLS_NORM.PNG.KTX2","name":"A380X_MAIN_DECK_YC_SIDEWALLS_NORM","extras":"ASOBO_image_converted_meta"},{"uri":"..\\TEXTURE\\A380X_MAIN_DECK_YC_SIDEWALLS_COMP.PNG.KTX2","name":"A380X_MAIN_DECK_YC_SIDEWALLS_COMP","extras":"ASOBO_image_converted_meta"},{"uri":"..\\TEXTURE\\A380X_MAIN_DECK_YC_SIDEWALLS_ALBD.PNG.KTX2","name":"A380X_MAIN_DECK_YC_SIDEWALLS_ALBD","extras":"ASOBO_image_converted_meta"}]}