{"accessors":[{"bufferView":0,"componentType":5126,"count":1248,"min":[-3.5806472301483156,1.9364606142044068,-17.15359115600586],"max":[3.5806472301483156,5.026773929595947,27.3983211517334],"type":"VEC3","name":"Plane.416_vertices#0_POSITION"},{"bufferView":0,"byteOffset":12,"componentType":5120,"count":1248,"type":"VEC4","name":"Plane.416_vertices#0_TANGENT"},{"bufferView":0,"byteOffset":16,"componentType":5120,"count":1248,"type":"VEC4","name":"Plane.416_vertices#0_NORMAL"},{"bufferView":0,"byteOffset":20,"componentType":5122,"count":1248,"type":"VEC2","name":"Plane.416_vertices#0_TEXCOORD_0"},{"bufferView":0,"byteOffset":24,"componentType":5122,"count":1248,"type":"VEC2","name":"Plane.416_vertices#0_TEXCOORD_1"},{"bufferView":0,"byteOffset":28,"componentType":5123,"count":1248,"type":"VEC4","name":"Plane.416_vertices#0_COLOR_0"},{"bufferView":1,"componentType":5123,"count":2526,"type":"SCALAR","name":"Plane.416_indices#0"},{"bufferView":0,"byteOffset":44928,"componentType":5126,"count":1526,"min":[-3.5803983211517336,1.9363927841186524,-17.152624130249025],"max":[3.5803983211517336,5.024017810821533,27.398193359375],"type":"VEC3","name":"Plane.262_vertices#0_POSITION"},{"bufferView":0,"byteOffset":44940,"componentType":5120,"count":1526,"type":"VEC4","name":"Plane.262_vertices#0_TANGENT"},{"bufferView":0,"byteOffset":44944,"componentType":5120,"count":1526,"type":"VEC4","name":"Plane.262_vertices#0_NORMAL"},{"bufferView":0,"byteOffset":44948,"componentType":5122,"count":1526,"type":"VEC2","name":"Plane.262_vertices#0_TEXCOORD_0"},{"bufferView":0,"byteOffset":44952,"componentType":5122,"count":1526,"type":"VEC2","name":"Plane.262_vertices#0_TEXCOORD_1"},{"bufferView":0,"byteOffset":44956,"componentType":5123,"count":1526,"type":"VEC4","name":"Plane.262_vertices#0_COLOR_0"},{"bufferView":1,"byteOffset":5052,"componentType":5123,"count":3360,"type":"SCALAR","name":"Plane.262_indices#0"},{"bufferView":0,"byteOffset":99864,"componentType":5126,"count":1248,"min":[-3.5793981552124025,1.9364042282104493,-17.15152931213379],"max":[3.5793981552124025,5.023996353149414,27.3981990814209],"type":"VEC3","name":"Plane.111_vertices#0_POSITION"},{"bufferView":0,"byteOffset":99876,"componentType":5120,"count":1248,"type":"VEC4","name":"Plane.111_vertices#0_TANGENT"},{"bufferView":0,"byteOffset":99880,"componentType":5120,"count":1248,"type":"VEC4","name":"Plane.111_vertices#0_NORMAL"},{"bufferView":0,"byteOffset":99884,"componentType":5122,"count":1248,"type":"VEC2","name":"Plane.111_vertices#0_TEXCOORD_0"},{"bufferView":0,"byteOffset":99888,"componentType":5122,"count":1248,"type":"VEC2","name":"Plane.111_vertices#0_TEXCOORD_1"},{"bufferView":0,"byteOffset":99892,"componentType":5123,"count":1248,"type":"VEC4","name":"Plane.111_vertices#0_COLOR_0"},{"bufferView":1,"byteOffset":11772,"componentType":5123,"count":2526,"type":"SCALAR","name":"Plane.111_indices#0"},{"bufferView":0,"byteOffset":144792,"componentType":5126,"count":24,"min":[-1.4934637546539307,-0.013072351925075055,-1.4934637546539307],"max":[1.4934637546539307,0.013072351925075055,1.4934637546539307],"type":"VEC3","name":"Cube.091_vertices#0_POSITION"},{"bufferView":0,"byteOffset":144804,"componentType":5120,"count":24,"type":"VEC4","name":"Cube.091_vertices#0_TANGENT"},{"bufferView":0,"byteOffset":144808,"componentType":5120,"count":24,"type":"VEC4","name":"Cube.091_vertices#0_NORMAL"},{"bufferView":0,"byteOffset":144812,"componentType":5122,"count":24,"type":"VEC2","name":"Cube.091_vertices#0_TEXCOORD_0"},{"bufferView":0,"byteOffset":144816,"componentType":5122,"count":24,"type":"VEC2","name":"Cube.091_vertices#0_TEXCOORD_1"},{"bufferView":0,"byteOffset":144820,"componentType":5123,"count":24,"type":"VEC4","name":"Cube.091_vertices#0_COLOR_0"},{"bufferView":1,"byteOffset":16824,"componentType":5123,"count":36,"type":"SCALAR","name":"Cube.091_indices#0"},{"bufferView":0,"byteOffset":145656,"componentType":5126,"count":156,"min":[-3.5803983211517336,1.9363927841186524,20.08502769470215],"max":[3.5803983211517336,2.3409643173217775,27.398193359375],"type":"VEC3","name":"Plane.003_vertices#0_POSITION"},{"bufferView":0,"byteOffset":145668,"componentType":5120,"count":156,"type":"VEC4","name":"Plane.003_vertices#0_TANGENT"},{"bufferView":0,"byteOffset":145672,"componentType":5120,"count":156,"type":"VEC4","name":"Plane.003_vertices#0_NORMAL"},{"bufferView":0,"byteOffset":145676,"componentType":5122,"count":156,"type":"VEC2","name":"Plane.003_vertices#0_TEXCOORD_0"},{"bufferView":0,"byteOffset":145680,"componentType":5122,"count":156,"type":"VEC2","name":"Plane.003_vertices#0_TEXCOORD_1"},{"bufferView":0,"byteOffset":145684,"componentType":5123,"count":156,"type":"VEC4","name":"Plane.003_vertices#0_COLOR_0"},{"bufferView":1,"byteOffset":16896,"componentType":5123,"count":324,"type":"SCALAR","name":"Plane.003_indices#0"},{"bufferView":0,"byteOffset":151272,"componentType":5126,"count":152,"min":[-3.09838604927063,4.64420747756958,15.589487075805664],"max":[3.09838604927063,5.024017810821533,22.306184768676759],"type":"VEC3","name":"Plane.005_vertices#0_POSITION"},{"bufferView":0,"byteOffset":151284,"componentType":5120,"count":152,"type":"VEC4","name":"Plane.005_vertices#0_TANGENT"},{"bufferView":0,"byteOffset":151288,"componentType":5120,"count":152,"type":"VEC4","name":"Plane.005_vertices#0_NORMAL"},{"bufferView":0,"byteOffset":151292,"componentType":5122,"count":152,"type":"VEC2","name":"Plane.005_vertices#0_TEXCOORD_0"},{"bufferView":0,"byteOffset":151296,"componentType":5122,"count":152,"type":"VEC2","name":"Plane.005_vertices#0_TEXCOORD_1"},{"bufferView":0,"byteOffset":151300,"componentType":5123,"count":152,"type":"VEC4","name":"Plane.005_vertices#0_COLOR_0"},{"bufferView":1,"byteOffset":17544,"componentType":5123,"count":324,"type":"SCALAR","name":"Plane.005_indices#0"},{"bufferView":0,"byteOffset":156744,"componentType":5126,"count":288,"min":[-3.095228910446167,4.64006233215332,-15.887528419494629],"max":[3.095228910446167,5.021632194519043,12.055760383605957],"type":"VEC3","name":"Plane.178_vertices#0_POSITION"},{"bufferView":0,"byteOffset":156756,"componentType":5120,"count":288,"type":"VEC4","name":"Plane.178_vertices#0_TANGENT"},{"bufferView":0,"byteOffset":156760,"componentType":5120,"count":288,"type":"VEC4","name":"Plane.178_vertices#0_NORMAL"},{"bufferView":0,"byteOffset":156764,"componentType":5122,"count":288,"type":"VEC2","name":"Plane.178_vertices#0_TEXCOORD_0"},{"bufferView":0,"byteOffset":156768,"componentType":5122,"count":288,"type":"VEC2","name":"Plane.178_vertices#0_TEXCOORD_1"},{"bufferView":0,"byteOffset":156772,"componentType":5123,"count":288,"type":"VEC4","name":"Plane.178_vertices#0_COLOR_0"},{"bufferView":1,"byteOffset":18192,"componentType":5123,"count":432,"type":"SCALAR","name":"Plane.178_indices#0"},{"bufferView":0,"byteOffset":167112,"componentType":5126,"count":930,"min":[-3.577847957611084,1.937851905822754,-17.152624130249025],"max":[3.5768346786499025,2.3488879203796388,15.937081336975098],"type":"VEC3","name":"Plane.180_vertices#0_POSITION"},{"bufferView":0,"byteOffset":167124,"componentType":5120,"count":930,"type":"VEC4","name":"Plane.180_vertices#0_TANGENT"},{"bufferView":0,"byteOffset":167128,"componentType":5120,"count":930,"type":"VEC4","name":"Plane.180_vertices#0_NORMAL"},{"bufferView":0,"byteOffset":167132,"componentType":5122,"count":930,"type":"VEC2","name":"Plane.180_vertices#0_TEXCOORD_0"},{"bufferView":0,"byteOffset":167136,"componentType":5122,"count":930,"type":"VEC2","name":"Plane.180_vertices#0_TEXCOORD_1"},{"bufferView":0,"byteOffset":167140,"componentType":5123,"count":930,"type":"VEC4","name":"Plane.180_vertices#0_COLOR_0"},{"bufferView":1,"byteOffset":19056,"componentType":5123,"count":2280,"type":"SCALAR","name":"Plane.180_indices#0"},{"bufferView":0,"byteOffset":200592,"componentType":5126,"count":1526,"min":[-3.575017213821411,1.9361636638641358,-17.15205955505371],"max":[3.5733985900878908,5.021084785461426,27.397428512573243],"type":"VEC3","name":"Plane.2209_vertices#0_POSITION"},{"bufferView":0,"byteOffset":200604,"componentType":5120,"count":1526,"type":"VEC4","name":"Plane.2209_vertices#0_TANGENT"},{"bufferView":0,"byteOffset":200608,"componentType":5120,"count":1526,"type":"VEC4","name":"Plane.2209_vertices#0_NORMAL"},{"bufferView":0,"byteOffset":200612,"componentType":5122,"count":1526,"type":"VEC2","name":"Plane.2209_vertices#0_TEXCOORD_0"},{"bufferView":0,"byteOffset":200616,"componentType":5122,"count":1526,"type":"VEC2","name":"Plane.2209_vertices#0_TEXCOORD_1"},{"bufferView":0,"byteOffset":200620,"componentType":5123,"count":1526,"type":"VEC4","name":"Plane.2209_vertices#0_COLOR_0"},{"bufferView":1,"byteOffset":23616,"componentType":5123,"count":3360,"type":"SCALAR","name":"Plane.2209_indices#0"},{"bufferView":0,"byteOffset":255528,"componentType":5126,"count":16,"min":[2.7912070751190187,4.943542957305908,-14.60928726196289],"max":[2.941633701324463,5.211276054382324,-14.369095802307129],"type":"VEC3","name":"Plane.182_vertices#0_POSITION"},{"bufferView":0,"byteOffset":255540,"componentType":5120,"count":16,"type":"VEC4","name":"Plane.182_vertices#0_TANGENT"},{"bufferView":0,"byteOffset":255544,"componentType":5120,"count":16,"type":"VEC4","name":"Plane.182_vertices#0_NORMAL"},{"bufferView":0,"byteOffset":255548,"componentType":5122,"count":16,"type":"VEC2","name":"Plane.182_vertices#0_TEXCOORD_0"},{"bufferView":0,"byteOffset":255552,"componentType":5122,"count":16,"type":"VEC2","name":"Plane.182_vertices#0_TEXCOORD_1"},{"bufferView":0,"byteOffset":255556,"componentType":5123,"count":16,"type":"VEC4","name":"Plane.182_vertices#0_COLOR_0"},{"bufferView":1,"byteOffset":30336,"componentType":5123,"count":42,"type":"SCALAR","name":"Plane.182_indices#0"},{"bufferView":0,"byteOffset":256104,"componentType":5126,"count":16,"min":[2.7939817905426027,4.945066928863525,-5.68849515914917],"max":[2.9436044692993166,5.212695121765137,-5.44835090637207],"type":"VEC3","name":"Plane.282_vertices#0_POSITION"},{"bufferView":0,"byteOffset":256116,"componentType":5120,"count":16,"type":"VEC4","name":"Plane.282_vertices#0_TANGENT"},{"bufferView":0,"byteOffset":256120,"componentType":5120,"count":16,"type":"VEC4","name":"Plane.282_vertices#0_NORMAL"},{"bufferView":0,"byteOffset":256124,"componentType":5122,"count":16,"type":"VEC2","name":"Plane.282_vertices#0_TEXCOORD_0"},{"bufferView":0,"byteOffset":256128,"componentType":5122,"count":16,"type":"VEC2","name":"Plane.282_vertices#0_TEXCOORD_1"},{"bufferView":0,"byteOffset":256132,"componentType":5123,"count":16,"type":"VEC4","name":"Plane.282_vertices#0_COLOR_0"},{"bufferView":1,"byteOffset":30420,"componentType":5123,"count":42,"type":"SCALAR","name":"Plane.282_indices#0"},{"bufferView":0,"byteOffset":256680,"componentType":5126,"count":16,"min":[2.79953932762146,4.9490132331848148,13.748710632324219],"max":[2.9508891105651857,5.216633319854736,13.988856315612793],"type":"VEC3","name":"Plane.417_vertices#0_POSITION"},{"bufferView":0,"byteOffset":256692,"componentType":5120,"count":16,"type":"VEC4","name":"Plane.417_vertices#0_TANGENT"},{"bufferView":0,"byteOffset":256696,"componentType":5120,"count":16,"type":"VEC4","name":"Plane.417_vertices#0_NORMAL"},{"bufferView":0,"byteOffset":256700,"componentType":5122,"count":16,"type":"VEC2","name":"Plane.417_vertices#0_TEXCOORD_0"},{"bufferView":0,"byteOffset":256704,"componentType":5122,"count":16,"type":"VEC2","name":"Plane.417_vertices#0_TEXCOORD_1"},{"bufferView":0,"byteOffset":256708,"componentType":5123,"count":16,"type":"VEC4","name":"Plane.417_vertices#0_COLOR_0"},{"bufferView":1,"byteOffset":30504,"componentType":5123,"count":42,"type":"SCALAR","name":"Plane.417_indices#0"},{"bufferView":0,"byteOffset":257256,"componentType":5126,"count":16,"min":[-2.941633462905884,4.943542957305908,-14.60928726196289],"max":[-2.7912070751190187,5.211276054382324,-14.369096755981446],"type":"VEC3","name":"Plane.284_vertices#0_POSITION"},{"bufferView":0,"byteOffset":257268,"componentType":5120,"count":16,"type":"VEC4","name":"Plane.284_vertices#0_TANGENT"},{"bufferView":0,"byteOffset":257272,"componentType":5120,"count":16,"type":"VEC4","name":"Plane.284_vertices#0_NORMAL"},{"bufferView":0,"byteOffset":257276,"componentType":5122,"count":16,"type":"VEC2","name":"Plane.284_vertices#0_TEXCOORD_0"},{"bufferView":0,"byteOffset":257280,"componentType":5122,"count":16,"type":"VEC2","name":"Plane.284_vertices#0_TEXCOORD_1"},{"bufferView":0,"byteOffset":257284,"componentType":5123,"count":16,"type":"VEC4","name":"Plane.284_vertices#0_COLOR_0"},{"bufferView":1,"byteOffset":30588,"componentType":5123,"count":42,"type":"SCALAR","name":"Plane.284_indices#0"},{"bufferView":0,"byteOffset":257832,"componentType":5126,"count":16,"min":[-2.943603754043579,4.945066928863525,-5.68849515914917],"max":[-2.7939820289611818,5.212695121765137,-5.4483513832092289],"type":"VEC3","name":"Plane.311_vertices#0_POSITION"},{"bufferView":0,"byteOffset":257844,"componentType":5120,"count":16,"type":"VEC4","name":"Plane.311_vertices#0_TANGENT"},{"bufferView":0,"byteOffset":257848,"componentType":5120,"count":16,"type":"VEC4","name":"Plane.311_vertices#0_NORMAL"},{"bufferView":0,"byteOffset":257852,"componentType":5122,"count":16,"type":"VEC2","name":"Plane.311_vertices#0_TEXCOORD_0"},{"bufferView":0,"byteOffset":257856,"componentType":5122,"count":16,"type":"VEC2","name":"Plane.311_vertices#0_TEXCOORD_1"},{"bufferView":0,"byteOffset":257860,"componentType":5123,"count":16,"type":"VEC4","name":"Plane.311_vertices#0_COLOR_0"},{"bufferView":1,"byteOffset":30672,"componentType":5123,"count":42,"type":"SCALAR","name":"Plane.311_indices#0"},{"bufferView":0,"byteOffset":258408,"componentType":5126,"count":8,"min":[-2.9881770610809328,2.227879762649536,28.320951461791993],"max":[-2.895764112472534,2.527479887008667,28.55634307861328],"type":"VEC3","name":"Plane.313_vertices#0_POSITION"},{"bufferView":0,"byteOffset":258420,"componentType":5120,"count":8,"type":"VEC4","name":"Plane.313_vertices#0_TANGENT"},{"bufferView":0,"byteOffset":258424,"componentType":5120,"count":8,"type":"VEC4","name":"Plane.313_vertices#0_NORMAL"},{"bufferView":0,"byteOffset":258428,"componentType":5122,"count":8,"type":"VEC2","name":"Plane.313_vertices#0_TEXCOORD_0"},{"bufferView":0,"byteOffset":258432,"componentType":5122,"count":8,"type":"VEC2","name":"Plane.313_vertices#0_TEXCOORD_1"},{"bufferView":0,"byteOffset":258436,"componentType":5123,"count":8,"type":"VEC4","name":"Plane.313_vertices#0_COLOR_0"},{"bufferView":1,"byteOffset":30756,"componentType":5123,"count":18,"type":"SCALAR","name":"Plane.313_indices#0"},{"bufferView":0,"byteOffset":258696,"componentType":5126,"count":8,"min":[-3.251049757003784,2.182779550552368,-19.13383674621582],"max":[-3.2145419120788576,2.5044498443603517,-18.889524459838868],"type":"VEC3","name":"Plane.315_vertices#0_POSITION"},{"bufferView":0,"byteOffset":258708,"componentType":5120,"count":8,"type":"VEC4","name":"Plane.315_vertices#0_TANGENT"},{"bufferView":0,"byteOffset":258712,"componentType":5120,"count":8,"type":"VEC4","name":"Plane.315_vertices#0_NORMAL"},{"bufferView":0,"byteOffset":258716,"componentType":5122,"count":8,"type":"VEC2","name":"Plane.315_vertices#0_TEXCOORD_0"},{"bufferView":0,"byteOffset":258720,"componentType":5122,"count":8,"type":"VEC2","name":"Plane.315_vertices#0_TEXCOORD_1"},{"bufferView":0,"byteOffset":258724,"componentType":5123,"count":8,"type":"VEC4","name":"Plane.315_vertices#0_COLOR_0"},{"bufferView":1,"byteOffset":30792,"componentType":5123,"count":18,"type":"SCALAR","name":"Plane.315_indices#0"},{"bufferView":0,"byteOffset":258984,"componentType":5126,"count":8,"min":[-3.5652425289154054,2.205289840698242,-10.205347061157227],"max":[-3.558957815170288,2.5280911922454836,-9.95901870727539],"type":"VEC3","name":"Plane.316_vertices#0_POSITION"},{"bufferView":0,"byteOffset":258996,"componentType":5120,"count":8,"type":"VEC4","name":"Plane.316_vertices#0_TANGENT"},{"bufferView":0,"byteOffset":259000,"componentType":5120,"count":8,"type":"VEC4","name":"Plane.316_vertices#0_NORMAL"},{"bufferView":0,"byteOffset":259004,"componentType":5122,"count":8,"type":"VEC2","name":"Plane.316_vertices#0_TEXCOORD_0"},{"bufferView":0,"byteOffset":259008,"componentType":5122,"count":8,"type":"VEC2","name":"Plane.316_vertices#0_TEXCOORD_1"},{"bufferView":0,"byteOffset":259012,"componentType":5123,"count":8,"type":"VEC4","name":"Plane.316_vertices#0_COLOR_0"},{"bufferView":1,"byteOffset":30828,"componentType":5123,"count":18,"type":"SCALAR","name":"Plane.316_indices#0"},{"bufferView":0,"byteOffset":259272,"componentType":5126,"count":8,"min":[-3.5712904930114748,2.205362319946289,1.8926856517791749],"max":[-3.5678763389587404,2.5281357765197756,2.1390135288238527],"type":"VEC3","name":"Plane.326_vertices#0_POSITION"},{"bufferView":0,"byteOffset":259284,"componentType":5120,"count":8,"type":"VEC4","name":"Plane.326_vertices#0_TANGENT"},{"bufferView":0,"byteOffset":259288,"componentType":5120,"count":8,"type":"VEC4","name":"Plane.326_vertices#0_NORMAL"},{"bufferView":0,"byteOffset":259292,"componentType":5122,"count":8,"type":"VEC2","name":"Plane.326_vertices#0_TEXCOORD_0"},{"bufferView":0,"byteOffset":259296,"componentType":5122,"count":8,"type":"VEC2","name":"Plane.326_vertices#0_TEXCOORD_1"},{"bufferView":0,"byteOffset":259300,"componentType":5123,"count":8,"type":"VEC4","name":"Plane.326_vertices#0_COLOR_0"},{"bufferView":1,"byteOffset":30864,"componentType":5123,"count":18,"type":"SCALAR","name":"Plane.326_indices#0"},{"bufferView":0,"byteOffset":259560,"componentType":5126,"count":8,"min":[3.2145419120788576,2.182779550552368,-19.13383674621582],"max":[3.251049757003784,2.5044498443603517,-18.889524459838868],"type":"VEC3","name":"Plane.344_vertices#0_POSITION"},{"bufferView":0,"byteOffset":259572,"componentType":5120,"count":8,"type":"VEC4","name":"Plane.344_vertices#0_TANGENT"},{"bufferView":0,"byteOffset":259576,"componentType":5120,"count":8,"type":"VEC4","name":"Plane.344_vertices#0_NORMAL"},{"bufferView":0,"byteOffset":259580,"componentType":5122,"count":8,"type":"VEC2","name":"Plane.344_vertices#0_TEXCOORD_0"},{"bufferView":0,"byteOffset":259584,"componentType":5122,"count":8,"type":"VEC2","name":"Plane.344_vertices#0_TEXCOORD_1"},{"bufferView":0,"byteOffset":259588,"componentType":5123,"count":8,"type":"VEC4","name":"Plane.344_vertices#0_COLOR_0"},{"bufferView":1,"byteOffset":30900,"componentType":5123,"count":18,"type":"SCALAR","name":"Plane.344_indices#0"},{"bufferView":0,"byteOffset":259848,"componentType":5126,"count":8,"min":[3.5678763389587404,2.205362319946289,1.8926856517791749],"max":[3.5712904930114748,2.5281357765197756,2.1390135288238527],"type":"VEC3","name":"Plane.352_vertices#0_POSITION"},{"bufferView":0,"byteOffset":259860,"componentType":5120,"count":8,"type":"VEC4","name":"Plane.352_vertices#0_TANGENT"},{"bufferView":0,"byteOffset":259864,"componentType":5120,"count":8,"type":"VEC4","name":"Plane.352_vertices#0_NORMAL"},{"bufferView":0,"byteOffset":259868,"componentType":5122,"count":8,"type":"VEC2","name":"Plane.352_vertices#0_TEXCOORD_0"},{"bufferView":0,"byteOffset":259872,"componentType":5122,"count":8,"type":"VEC2","name":"Plane.352_vertices#0_TEXCOORD_1"},{"bufferView":0,"byteOffset":259876,"componentType":5123,"count":8,"type":"VEC4","name":"Plane.352_vertices#0_COLOR_0"},{"bufferView":1,"byteOffset":30936,"componentType":5123,"count":18,"type":"SCALAR","name":"Plane.352_indices#0"},{"bufferView":0,"byteOffset":260136,"componentType":5126,"count":8,"min":[-3.5825693607330324,2.2053275108337404,18.104755401611329],"max":[-3.581768035888672,2.5280230045318605,18.35108184814453],"type":"VEC3","name":"Plane.360_vertices#0_POSITION"},{"bufferView":0,"byteOffset":260148,"componentType":5120,"count":8,"type":"VEC4","name":"Plane.360_vertices#0_TANGENT"},{"bufferView":0,"byteOffset":260152,"componentType":5120,"count":8,"type":"VEC4","name":"Plane.360_vertices#0_NORMAL"},{"bufferView":0,"byteOffset":260156,"componentType":5122,"count":8,"type":"VEC2","name":"Plane.360_vertices#0_TEXCOORD_0"},{"bufferView":0,"byteOffset":260160,"componentType":5122,"count":8,"type":"VEC2","name":"Plane.360_vertices#0_TEXCOORD_1"},{"bufferView":0,"byteOffset":260164,"componentType":5123,"count":8,"type":"VEC4","name":"Plane.360_vertices#0_COLOR_0"},{"bufferView":1,"byteOffset":30972,"componentType":5123,"count":18,"type":"SCALAR","name":"Plane.360_indices#0"},{"bufferView":0,"byteOffset":260424,"componentType":5126,"count":16,"min":[-2.9508886337280275,4.9490132331848148,13.748710632324219],"max":[-2.799539089202881,5.216633319854736,13.988856315612793],"type":"VEC3","name":"Plane.395_vertices#0_POSITION"},{"bufferView":0,"byteOffset":260436,"componentType":5120,"count":16,"type":"VEC4","name":"Plane.395_vertices#0_TANGENT"},{"bufferView":0,"byteOffset":260440,"componentType":5120,"count":16,"type":"VEC4","name":"Plane.395_vertices#0_NORMAL"},{"bufferView":0,"byteOffset":260444,"componentType":5122,"count":16,"type":"VEC2","name":"Plane.395_vertices#0_TEXCOORD_0"},{"bufferView":0,"byteOffset":260448,"componentType":5122,"count":16,"type":"VEC2","name":"Plane.395_vertices#0_TEXCOORD_1"},{"bufferView":0,"byteOffset":260452,"componentType":5123,"count":16,"type":"VEC4","name":"Plane.395_vertices#0_COLOR_0"},{"bufferView":1,"byteOffset":31008,"componentType":5123,"count":42,"type":"SCALAR","name":"Plane.395_indices#0"},{"bufferView":0,"byteOffset":261000,"componentType":5126,"count":8,"min":[3.581768035888672,2.2053275108337404,18.104755401611329],"max":[3.5825693607330324,2.5280230045318605,18.35108184814453],"type":"VEC3","name":"Plane.2212_vertices#0_POSITION"},{"bufferView":0,"byteOffset":261012,"componentType":5120,"count":8,"type":"VEC4","name":"Plane.2212_vertices#0_TANGENT"},{"bufferView":0,"byteOffset":261016,"componentType":5120,"count":8,"type":"VEC4","name":"Plane.2212_vertices#0_NORMAL"},{"bufferView":0,"byteOffset":261020,"componentType":5122,"count":8,"type":"VEC2","name":"Plane.2212_vertices#0_TEXCOORD_0"},{"bufferView":0,"byteOffset":261024,"componentType":5122,"count":8,"type":"VEC2","name":"Plane.2212_vertices#0_TEXCOORD_1"},{"bufferView":0,"byteOffset":261028,"componentType":5123,"count":8,"type":"VEC4","name":"Plane.2212_vertices#0_COLOR_0"},{"bufferView":1,"byteOffset":31092,"componentType":5123,"count":18,"type":"SCALAR","name":"Plane.2212_indices#0"},{"bufferView":0,"byteOffset":261288,"componentType":5126,"count":8,"min":[2.895764112472534,2.227879762649536,28.320951461791993],"max":[2.9881770610809328,2.527479887008667,28.55634307861328],"type":"VEC3","name":"Plane.2213_vertices#0_POSITION"},{"bufferView":0,"byteOffset":261300,"componentType":5120,"count":8,"type":"VEC4","name":"Plane.2213_vertices#0_TANGENT"},{"bufferView":0,"byteOffset":261304,"componentType":5120,"count":8,"type":"VEC4","name":"Plane.2213_vertices#0_NORMAL"},{"bufferView":0,"byteOffset":261308,"componentType":5122,"count":8,"type":"VEC2","name":"Plane.2213_vertices#0_TEXCOORD_0"},{"bufferView":0,"byteOffset":261312,"componentType":5122,"count":8,"type":"VEC2","name":"Plane.2213_vertices#0_TEXCOORD_1"},{"bufferView":0,"byteOffset":261316,"componentType":5123,"count":8,"type":"VEC4","name":"Plane.2213_vertices#0_COLOR_0"},{"bufferView":1,"byteOffset":31128,"componentType":5123,"count":18,"type":"SCALAR","name":"Plane.2213_indices#0"},{"bufferView":0,"byteOffset":261576,"componentType":5126,"count":8,"min":[3.558957815170288,2.205289840698242,-10.205347061157227],"max":[3.5652425289154054,2.5280911922454836,-9.95901870727539],"type":"VEC3","name":"Plane.2211_vertices#0_POSITION"},{"bufferView":0,"byteOffset":261588,"componentType":5120,"count":8,"type":"VEC4","name":"Plane.2211_vertices#0_TANGENT"},{"bufferView":0,"byteOffset":261592,"componentType":5120,"count":8,"type":"VEC4","name":"Plane.2211_vertices#0_NORMAL"},{"bufferView":0,"byteOffset":261596,"componentType":5122,"count":8,"type":"VEC2","name":"Plane.2211_vertices#0_TEXCOORD_0"},{"bufferView":0,"byteOffset":261600,"componentType":5122,"count":8,"type":"VEC2","name":"Plane.2211_vertices#0_TEXCOORD_1"},{"bufferView":0,"byteOffset":261604,"componentType":5123,"count":8,"type":"VEC4","name":"Plane.2211_vertices#0_COLOR_0"},{"bufferView":1,"byteOffset":31164,"componentType":5123,"count":18,"type":"SCALAR","name":"Plane.2211_indices#0"},{"bufferView":0,"byteOffset":261864,"componentType":5126,"count":16,"min":[2.773453712463379,4.959264755249023,-14.65574836730957],"max":[2.9229235649108888,5.22784948348999,-14.414793014526368],"type":"VEC3","name":"Plane.2214_vertices#0_POSITION"},{"bufferView":0,"byteOffset":261876,"componentType":5120,"count":16,"type":"VEC4","name":"Plane.2214_vertices#0_TANGENT"},{"bufferView":0,"byteOffset":261880,"componentType":5120,"count":16,"type":"VEC4","name":"Plane.2214_vertices#0_NORMAL"},{"bufferView":0,"byteOffset":261884,"componentType":5122,"count":16,"type":"VEC2","name":"Plane.2214_vertices#0_TEXCOORD_0"},{"bufferView":0,"byteOffset":261888,"componentType":5122,"count":16,"type":"VEC2","name":"Plane.2214_vertices#0_TEXCOORD_1"},{"bufferView":0,"byteOffset":261892,"componentType":5123,"count":16,"type":"VEC4","name":"Plane.2214_vertices#0_COLOR_0"},{"bufferView":1,"byteOffset":31200,"componentType":5123,"count":42,"type":"SCALAR","name":"Plane.2214_indices#0"},{"bufferView":0,"byteOffset":262440,"componentType":5126,"count":16,"min":[2.7762107849121095,4.960793495178223,-5.706585884094238],"max":[2.92488169670105,5.229272842407227,-5.4656782150268559],"type":"VEC3","name":"Plane.2215_vertices#0_POSITION"},{"bufferView":0,"byteOffset":262452,"componentType":5120,"count":16,"type":"VEC4","name":"Plane.2215_vertices#0_TANGENT"},{"bufferView":0,"byteOffset":262456,"componentType":5120,"count":16,"type":"VEC4","name":"Plane.2215_vertices#0_NORMAL"},{"bufferView":0,"byteOffset":262460,"componentType":5122,"count":16,"type":"VEC2","name":"Plane.2215_vertices#0_TEXCOORD_0"},{"bufferView":0,"byteOffset":262464,"componentType":5122,"count":16,"type":"VEC2","name":"Plane.2215_vertices#0_TEXCOORD_1"},{"bufferView":0,"byteOffset":262468,"componentType":5123,"count":16,"type":"VEC4","name":"Plane.2215_vertices#0_COLOR_0"},{"bufferView":1,"byteOffset":31284,"componentType":5123,"count":42,"type":"SCALAR","name":"Plane.2215_indices#0"},{"bufferView":0,"byteOffset":263016,"componentType":5126,"count":16,"min":[2.7874033451080324,4.967682361602783,13.792433738708496],"max":[2.937802791595459,5.237017631530762,14.033340454101563],"type":"VEC3","name":"Plane.2216_vertices#0_POSITION"},{"bufferView":0,"byteOffset":263028,"componentType":5120,"count":16,"type":"VEC4","name":"Plane.2216_vertices#0_TANGENT"},{"bufferView":0,"byteOffset":263032,"componentType":5120,"count":16,"type":"VEC4","name":"Plane.2216_vertices#0_NORMAL"},{"bufferView":0,"byteOffset":263036,"componentType":5122,"count":16,"type":"VEC2","name":"Plane.2216_vertices#0_TEXCOORD_0"},{"bufferView":0,"byteOffset":263040,"componentType":5122,"count":16,"type":"VEC2","name":"Plane.2216_vertices#0_TEXCOORD_1"},{"bufferView":0,"byteOffset":263044,"componentType":5123,"count":16,"type":"VEC4","name":"Plane.2216_vertices#0_COLOR_0"},{"bufferView":1,"byteOffset":31368,"componentType":5123,"count":42,"type":"SCALAR","name":"Plane.2216_indices#0"},{"bufferView":0,"byteOffset":263592,"componentType":5126,"count":16,"min":[-2.9229233264923097,4.959264755249023,-14.65574836730957],"max":[-2.773453712463379,5.22784948348999,-14.414793968200684],"type":"VEC3","name":"Plane.2217_vertices#0_POSITION"},{"bufferView":0,"byteOffset":263604,"componentType":5120,"count":16,"type":"VEC4","name":"Plane.2217_vertices#0_TANGENT"},{"bufferView":0,"byteOffset":263608,"componentType":5120,"count":16,"type":"VEC4","name":"Plane.2217_vertices#0_NORMAL"},{"bufferView":0,"byteOffset":263612,"componentType":5122,"count":16,"type":"VEC2","name":"Plane.2217_vertices#0_TEXCOORD_0"},{"bufferView":0,"byteOffset":263616,"componentType":5122,"count":16,"type":"VEC2","name":"Plane.2217_vertices#0_TEXCOORD_1"},{"bufferView":0,"byteOffset":263620,"componentType":5123,"count":16,"type":"VEC4","name":"Plane.2217_vertices#0_COLOR_0"},{"bufferView":1,"byteOffset":31452,"componentType":5123,"count":42,"type":"SCALAR","name":"Plane.2217_indices#0"},{"bufferView":0,"byteOffset":264168,"componentType":5126,"count":16,"min":[-2.9248809814453127,4.960793495178223,-5.706585884094238],"max":[-2.7762110233306886,5.229272842407227,-5.465678691864014],"type":"VEC3","name":"Plane.2218_vertices#0_POSITION"},{"bufferView":0,"byteOffset":264180,"componentType":5120,"count":16,"type":"VEC4","name":"Plane.2218_vertices#0_TANGENT"},{"bufferView":0,"byteOffset":264184,"componentType":5120,"count":16,"type":"VEC4","name":"Plane.2218_vertices#0_NORMAL"},{"bufferView":0,"byteOffset":264188,"componentType":5122,"count":16,"type":"VEC2","name":"Plane.2218_vertices#0_TEXCOORD_0"},{"bufferView":0,"byteOffset":264192,"componentType":5122,"count":16,"type":"VEC2","name":"Plane.2218_vertices#0_TEXCOORD_1"},{"bufferView":0,"byteOffset":264196,"componentType":5123,"count":16,"type":"VEC4","name":"Plane.2218_vertices#0_COLOR_0"},{"bufferView":1,"byteOffset":31536,"componentType":5123,"count":42,"type":"SCALAR","name":"Plane.2218_indices#0"},{"bufferView":0,"byteOffset":264744,"componentType":5126,"count":8,"min":[-2.9691708087921144,2.2349650859832765,28.411020278930665],"max":[-2.8773458003997804,2.535517930984497,28.647159576416017],"type":"VEC3","name":"Plane.2219_vertices#0_POSITION"},{"bufferView":0,"byteOffset":264756,"componentType":5120,"count":8,"type":"VEC4","name":"Plane.2219_vertices#0_TANGENT"},{"bufferView":0,"byteOffset":264760,"componentType":5120,"count":8,"type":"VEC4","name":"Plane.2219_vertices#0_NORMAL"},{"bufferView":0,"byteOffset":264764,"componentType":5122,"count":8,"type":"VEC2","name":"Plane.2219_vertices#0_TEXCOORD_0"},{"bufferView":0,"byteOffset":264768,"componentType":5122,"count":8,"type":"VEC2","name":"Plane.2219_vertices#0_TEXCOORD_1"},{"bufferView":0,"byteOffset":264772,"componentType":5123,"count":8,"type":"VEC4","name":"Plane.2219_vertices#0_COLOR_0"},{"bufferView":1,"byteOffset":31620,"componentType":5123,"count":18,"type":"SCALAR","name":"Plane.2219_indices#0"},{"bufferView":0,"byteOffset":265032,"componentType":5126,"count":8,"min":[-3.2303714752197267,2.1897213459014894,-19.194686889648439],"max":[-3.1940958499908449,2.5124146938323976,-18.94959831237793],"type":"VEC3","name":"Plane.2220_vertices#0_POSITION"},{"bufferView":0,"byteOffset":265044,"componentType":5120,"count":8,"type":"VEC4","name":"Plane.2220_vertices#0_TANGENT"},{"bufferView":0,"byteOffset":265048,"componentType":5120,"count":8,"type":"VEC4","name":"Plane.2220_vertices#0_NORMAL"},{"bufferView":0,"byteOffset":265052,"componentType":5122,"count":8,"type":"VEC2","name":"Plane.2220_vertices#0_TEXCOORD_0"},{"bufferView":0,"byteOffset":265056,"componentType":5122,"count":8,"type":"VEC2","name":"Plane.2220_vertices#0_TEXCOORD_1"},{"bufferView":0,"byteOffset":265060,"componentType":5123,"count":8,"type":"VEC4","name":"Plane.2220_vertices#0_COLOR_0"},{"bufferView":1,"byteOffset":31656,"componentType":5123,"count":18,"type":"SCALAR","name":"Plane.2220_indices#0"},{"bufferView":0,"byteOffset":265320,"componentType":5126,"count":8,"min":[-3.5425662994384767,2.2123031616210939,-10.237802505493164],"max":[-3.5363216400146486,2.5361311435699465,-9.990691184997559],"type":"VEC3","name":"Plane.2221_vertices#0_POSITION"},{"bufferView":0,"byteOffset":265332,"componentType":5120,"count":8,"type":"VEC4","name":"Plane.2221_vertices#0_TANGENT"},{"bufferView":0,"byteOffset":265336,"componentType":5120,"count":8,"type":"VEC4","name":"Plane.2221_vertices#0_NORMAL"},{"bufferView":0,"byteOffset":265340,"componentType":5122,"count":8,"type":"VEC2","name":"Plane.2221_vertices#0_TEXCOORD_0"},{"bufferView":0,"byteOffset":265344,"componentType":5122,"count":8,"type":"VEC2","name":"Plane.2221_vertices#0_TEXCOORD_1"},{"bufferView":0,"byteOffset":265348,"componentType":5123,"count":8,"type":"VEC4","name":"Plane.2221_vertices#0_COLOR_0"},{"bufferView":1,"byteOffset":31692,"componentType":5123,"count":18,"type":"SCALAR","name":"Plane.2221_indices#0"},{"bufferView":0,"byteOffset":265608,"componentType":5126,"count":8,"min":[-3.5485758781433107,2.2123758792877199,1.8987048864364625],"max":[-3.5451834201812746,2.5361759662628176,2.1458160877227785],"type":"VEC3","name":"Plane.2222_vertices#0_POSITION"},{"bufferView":0,"byteOffset":265620,"componentType":5120,"count":8,"type":"VEC4","name":"Plane.2222_vertices#0_TANGENT"},{"bufferView":0,"byteOffset":265624,"componentType":5120,"count":8,"type":"VEC4","name":"Plane.2222_vertices#0_NORMAL"},{"bufferView":0,"byteOffset":265628,"componentType":5122,"count":8,"type":"VEC2","name":"Plane.2222_vertices#0_TEXCOORD_0"},{"bufferView":0,"byteOffset":265632,"componentType":5122,"count":8,"type":"VEC2","name":"Plane.2222_vertices#0_TEXCOORD_1"},{"bufferView":0,"byteOffset":265636,"componentType":5123,"count":8,"type":"VEC4","name":"Plane.2222_vertices#0_COLOR_0"},{"bufferView":1,"byteOffset":31728,"componentType":5123,"count":18,"type":"SCALAR","name":"Plane.2222_indices#0"},{"bufferView":0,"byteOffset":265896,"componentType":5126,"count":8,"min":[3.1940958499908449,2.1897213459014894,-19.194686889648439],"max":[3.2303714752197267,2.5124146938323976,-18.94959831237793],"type":"VEC3","name":"Plane.2223_vertices#0_POSITION"},{"bufferView":0,"byteOffset":265908,"componentType":5120,"count":8,"type":"VEC4","name":"Plane.2223_vertices#0_TANGENT"},{"bufferView":0,"byteOffset":265912,"componentType":5120,"count":8,"type":"VEC4","name":"Plane.2223_vertices#0_NORMAL"},{"bufferView":0,"byteOffset":265916,"componentType":5122,"count":8,"type":"VEC2","name":"Plane.2223_vertices#0_TEXCOORD_0"},{"bufferView":0,"byteOffset":265920,"componentType":5122,"count":8,"type":"VEC2","name":"Plane.2223_vertices#0_TEXCOORD_1"},{"bufferView":0,"byteOffset":265924,"componentType":5123,"count":8,"type":"VEC4","name":"Plane.2223_vertices#0_COLOR_0"},{"bufferView":1,"byteOffset":31764,"componentType":5123,"count":18,"type":"SCALAR","name":"Plane.2223_indices#0"},{"bufferView":0,"byteOffset":266184,"componentType":5126,"count":8,"min":[3.5451834201812746,2.2123758792877199,1.8987048864364625],"max":[3.5485758781433107,2.5361759662628176,2.1458160877227785],"type":"VEC3","name":"Plane.2224_vertices#0_POSITION"},{"bufferView":0,"byteOffset":266196,"componentType":5120,"count":8,"type":"VEC4","name":"Plane.2224_vertices#0_TANGENT"},{"bufferView":0,"byteOffset":266200,"componentType":5120,"count":8,"type":"VEC4","name":"Plane.2224_vertices#0_NORMAL"},{"bufferView":0,"byteOffset":266204,"componentType":5122,"count":8,"type":"VEC2","name":"Plane.2224_vertices#0_TEXCOORD_0"},{"bufferView":0,"byteOffset":266208,"componentType":5122,"count":8,"type":"VEC2","name":"Plane.2224_vertices#0_TEXCOORD_1"},{"bufferView":0,"byteOffset":266212,"componentType":5123,"count":8,"type":"VEC4","name":"Plane.2224_vertices#0_COLOR_0"},{"bufferView":1,"byteOffset":31800,"componentType":5123,"count":18,"type":"SCALAR","name":"Plane.2224_indices#0"},{"bufferView":0,"byteOffset":266472,"componentType":5126,"count":8,"min":[-3.5597829818725588,2.212341070175171,18.16233253479004],"max":[-3.5589866638183595,2.536062717437744,18.409442901611329],"type":"VEC3","name":"Plane.2225_vertices#0_POSITION"},{"bufferView":0,"byteOffset":266484,"componentType":5120,"count":8,"type":"VEC4","name":"Plane.2225_vertices#0_TANGENT"},{"bufferView":0,"byteOffset":266488,"componentType":5120,"count":8,"type":"VEC4","name":"Plane.2225_vertices#0_NORMAL"},{"bufferView":0,"byteOffset":266492,"componentType":5122,"count":8,"type":"VEC2","name":"Plane.2225_vertices#0_TEXCOORD_0"},{"bufferView":0,"byteOffset":266496,"componentType":5122,"count":8,"type":"VEC2","name":"Plane.2225_vertices#0_TEXCOORD_1"},{"bufferView":0,"byteOffset":266500,"componentType":5123,"count":8,"type":"VEC4","name":"Plane.2225_vertices#0_COLOR_0"},{"bufferView":1,"byteOffset":31836,"componentType":5123,"count":18,"type":"SCALAR","name":"Plane.2225_indices#0"},{"bufferView":0,"byteOffset":266760,"componentType":5126,"count":16,"min":[-2.932119607925415,4.964752197265625,13.792435646057129],"max":[-2.7817327976226808,5.2332234382629398,14.033344268798829],"type":"VEC3","name":"Plane.2226_vertices#0_POSITION"},{"bufferView":0,"byteOffset":266772,"componentType":5120,"count":16,"type":"VEC4","name":"Plane.2226_vertices#0_TANGENT"},{"bufferView":0,"byteOffset":266776,"componentType":5120,"count":16,"type":"VEC4","name":"Plane.2226_vertices#0_NORMAL"},{"bufferView":0,"byteOffset":266780,"componentType":5122,"count":16,"type":"VEC2","name":"Plane.2226_vertices#0_TEXCOORD_0"},{"bufferView":0,"byteOffset":266784,"componentType":5122,"count":16,"type":"VEC2","name":"Plane.2226_vertices#0_TEXCOORD_1"},{"bufferView":0,"byteOffset":266788,"componentType":5123,"count":16,"type":"VEC4","name":"Plane.2226_vertices#0_COLOR_0"},{"bufferView":1,"byteOffset":31872,"componentType":5123,"count":42,"type":"SCALAR","name":"Plane.2226_indices#0"},{"bufferView":0,"byteOffset":267336,"componentType":5126,"count":8,"min":[3.5589866638183595,2.212341070175171,18.16233253479004],"max":[3.5597829818725588,2.536062717437744,18.409442901611329],"type":"VEC3","name":"Plane.2227_vertices#0_POSITION"},{"bufferView":0,"byteOffset":267348,"componentType":5120,"count":8,"type":"VEC4","name":"Plane.2227_vertices#0_TANGENT"},{"bufferView":0,"byteOffset":267352,"componentType":5120,"count":8,"type":"VEC4","name":"Plane.2227_vertices#0_NORMAL"},{"bufferView":0,"byteOffset":267356,"componentType":5122,"count":8,"type":"VEC2","name":"Plane.2227_vertices#0_TEXCOORD_0"},{"bufferView":0,"byteOffset":267360,"componentType":5122,"count":8,"type":"VEC2","name":"Plane.2227_vertices#0_TEXCOORD_1"},{"bufferView":0,"byteOffset":267364,"componentType":5123,"count":8,"type":"VEC4","name":"Plane.2227_vertices#0_COLOR_0"},{"bufferView":1,"byteOffset":31956,"componentType":5123,"count":18,"type":"SCALAR","name":"Plane.2227_indices#0"},{"bufferView":0,"byteOffset":267624,"componentType":5126,"count":8,"min":[2.8773458003997804,2.2349650859832765,28.411020278930665],"max":[2.9691708087921144,2.535517930984497,28.647159576416017],"type":"VEC3","name":"Plane.2228_vertices#0_POSITION"},{"bufferView":0,"byteOffset":267636,"componentType":5120,"count":8,"type":"VEC4","name":"Plane.2228_vertices#0_TANGENT"},{"bufferView":0,"byteOffset":267640,"componentType":5120,"count":8,"type":"VEC4","name":"Plane.2228_vertices#0_NORMAL"},{"bufferView":0,"byteOffset":267644,"componentType":5122,"count":8,"type":"VEC2","name":"Plane.2228_vertices#0_TEXCOORD_0"},{"bufferView":0,"byteOffset":267648,"componentType":5122,"count":8,"type":"VEC2","name":"Plane.2228_vertices#0_TEXCOORD_1"},{"bufferView":0,"byteOffset":267652,"componentType":5123,"count":8,"type":"VEC4","name":"Plane.2228_vertices#0_COLOR_0"},{"bufferView":1,"byteOffset":31992,"componentType":5123,"count":18,"type":"SCALAR","name":"Plane.2228_indices#0"},{"bufferView":0,"byteOffset":267912,"componentType":5126,"count":8,"min":[3.5363216400146486,2.2123031616210939,-10.237802505493164],"max":[3.5425662994384767,2.5361311435699465,-9.990691184997559],"type":"VEC3","name":"Plane.2229_vertices#0_POSITION"},{"bufferView":0,"byteOffset":267924,"componentType":5120,"count":8,"type":"VEC4","name":"Plane.2229_vertices#0_TANGENT"},{"bufferView":0,"byteOffset":267928,"componentType":5120,"count":8,"type":"VEC4","name":"Plane.2229_vertices#0_NORMAL"},{"bufferView":0,"byteOffset":267932,"componentType":5122,"count":8,"type":"VEC2","name":"Plane.2229_vertices#0_TEXCOORD_0"},{"bufferView":0,"byteOffset":267936,"componentType":5122,"count":8,"type":"VEC2","name":"Plane.2229_vertices#0_TEXCOORD_1"},{"bufferView":0,"byteOffset":267940,"componentType":5123,"count":8,"type":"VEC4","name":"Plane.2229_vertices#0_COLOR_0"},{"bufferView":1,"byteOffset":32028,"componentType":5123,"count":18,"type":"SCALAR","name":"Plane.2229_indices#0"}],"asset":{"generator":"Khronos glTF Blender I/O v4.5.51 and Asobo Studio MSFS2024 Blender I/O v6.4.4 with Blender v4.5.10","version":"2.0","extensions":{"ASOBO_asset_optimized":{"BoundingBoxMax":[114.24598693847656,5.2204155921936039,114.24598693847656],"BoundingBoxMin":[-114.24598693847656,-1.0,-114.24598693847656],"MajorVersion":4,"MinorVersion":7,"UseCheckerboardMaterialForMissingTextures":true,"UseOnlyFilenameForImageURI":true},"ASOBO_normal_map_convention":{"tangent_space_convention":"DirectX"}}},"bufferViews":[{"buffer":0,"byteLength":268200,"byteStride":36,"target":34962,"name":"BufferViewVertexND"},{"buffer":0,"byteLength":32064,"byteOffset":268200,"target":34963,"name":"BufferViewIndexU16"}],"extensionsRequired":["MSFT_texture_dds"],"materials":[{"name":"A380X_EXTERIOR_WINDOW_RAIN","alphaMode":"BLEND","pbrMetallicRoughness":{"baseColorFactor":[0.800000011920929,0.800000011920929,0.800000011920929,0.009999999776482582],"metallicFactor":0.0,"roughnessFactor":0.0},"extensions":{"ASOBO_material_draw_order":{"drawOrderOffset":-20},"ASOBO_material_rain_options":{},"ASOBO_material_windshield_v3":{}}},{"name":"A380X_WINDOW_FRAME","alphaMode":"MASK","normalTexture":{"index":0},"pbrMetallicRoughness":{"baseColorTexture":{"index":2},"metallicRoughnessTexture":{"index":1}},"extensions":{"ASOBO_material_draw_order":{"drawOrderOffset":20},"ASOBO_material_shadow_options":{"noCastShadow":true}}},{"name":"A380X_EXTERIOR_PAX_GLASS","alphaMode":"BLEND","normalTexture":{"index":3},"pbrMetallicRoughness":{"baseColorTexture":{"index":5},"metallicRoughnessTexture":{"index":4}},"extensions":{"ASOBO_material_draw_order":{"drawOrderOffset":-20}}},{"name":"INVISIBLE","extensions":{"ASOBO_material_invisible":{}}},{"name":"A380_PARALLAX_PEC","emissiveTexture":{"index":6},"emissiveFactor":[400.0,341.2950744628906,321.37493896484377],"pbrMetallicRoughness":{"baseColorTexture":{"index":8},"metallicRoughnessTexture":{"index":7}},"extensions":{"ASOBO_material_draw_order":{"drawOrderOffset":50}},"extras":{"ASOBO_material_code":"Porthole"}},{"name":"A380_PARALLAX_FC","emissiveTexture":{"index":9},"emissiveFactor":[400.0,341.2950744628906,321.37493896484377],"pbrMetallicRoughness":{"baseColorTexture":{"index":11},"metallicRoughnessTexture":{"index":10}},"extensions":{"ASOBO_material_draw_order":{"drawOrderOffset":50}},"extras":{"ASOBO_material_code":"Porthole"}},{"name":"A380_PARALLAX_BC","emissiveTexture":{"index":12},"emissiveFactor":[400.0,341.2950744628906,321.37493896484377],"pbrMetallicRoughness":{"baseColorTexture":{"index":14},"metallicRoughnessTexture":{"index":13}},"extensions":{"ASOBO_material_draw_order":{"drawOrderOffset":50}},"extras":{"ASOBO_material_code":"Porthole"}},{"name":"A380_PARALLAX_YC","emissiveTexture":{"index":15},"emissiveFactor":[400.0,341.2950744628906,321.37493896484377],"pbrMetallicRoughness":{"baseColorTexture":{"index":17},"metallicRoughnessTexture":{"index":16}},"extensions":{"ASOBO_material_draw_order":{"drawOrderOffset":50}},"extras":{"ASOBO_material_code":"Porthole"}},{"name":"A380_PORTHOLE_BLOCKER","extensions":{"ASOBO_material_draw_order":{"drawOrderOffset":-50}}},{"name":"A380X_PARALLAX_DOOR","emissiveTexture":{"index":18},"emissiveFactor":[400.0,341.2950744628906,321.37493896484377],"pbrMetallicRoughness":{"baseColorTexture":{"index":20},"metallicRoughnessTexture":{"index":19}},"extensions":{"ASOBO_material_draw_order":{"drawOrderOffset":50}},"extras":{"ASOBO_material_code":"Porthole"}}],"meshes":[{"primitives":[{"attributes":{"COLOR_0":5,"NORMAL":2,"POSITION":0,"TANGENT":1,"TEXCOORD_0":3,"TEXCOORD_1":4},"indices":6,"material":0,"mode":4,"extras":{"ASOBO_primitive":{"PrimitiveCount":842,"UV2Length":2.6889448165893556,"UVLength":2.6889448165893556,"VertexCount":1248,"VertexType":"VTX","VertexVersion":2}}}],"name":"Plane.416"},{"primitives":[{"attributes":{"COLOR_0":12,"NORMAL":9,"POSITION":7,"TANGENT":8,"TEXCOORD_0":10,"TEXCOORD_1":11},"indices":13,"material":1,"mode":4,"extras":{"ASOBO_primitive":{"PrimitiveCount":1120,"UV2Length":0.19312626123428346,"UVLength":0.19312626123428346,"VertexCount":1526,"VertexType":"VTX","VertexVersion":2}}}],"name":"Plane.262"},{"primitives":[{"attributes":{"COLOR_0":19,"NORMAL":16,"POSITION":14,"TANGENT":15,"TEXCOORD_0":17,"TEXCOORD_1":18},"indices":20,"material":2,"mode":4,"extras":{"ASOBO_primitive":{"PrimitiveCount":842,"UV2Length":0.3322703242301941,"UVLength":0.3322703242301941,"VertexCount":1248,"VertexType":"VTX","VertexVersion":2}}}],"name":"Plane.111"},{"primitives":[{"attributes":{"COLOR_0":26,"NORMAL":23,"POSITION":21,"TANGENT":22,"TEXCOORD_0":24,"TEXCOORD_1":25},"indices":27,"material":3,"mode":4,"extras":{"ASOBO_primitive":{"PrimitiveCount":12,"UV2Length":0.625,"UVLength":0.625,"VertexCount":24,"VertexType":"VTX","VertexVersion":2}}}],"name":"Cube.091"},{"primitives":[{"attributes":{"COLOR_0":33,"NORMAL":30,"POSITION":28,"TANGENT":29,"TEXCOORD_0":31,"TEXCOORD_1":32},"indices":34,"material":4,"mode":4,"extras":{"ASOBO_primitive":{"PrimitiveCount":108,"UV2Length":0.5831546783447266,"UVLength":0.5831546783447266,"VertexCount":156,"VertexType":"VTX","VertexVersion":2}}}],"name":"Plane.003"},{"primitives":[{"attributes":{"COLOR_0":40,"NORMAL":37,"POSITION":35,"TANGENT":36,"TEXCOORD_0":38,"TEXCOORD_1":39},"indices":41,"material":5,"mode":4,"extras":{"ASOBO_primitive":{"PrimitiveCount":108,"UV2Length":0.5831548571586609,"UVLength":0.5831548571586609,"VertexCount":152,"VertexType":"VTX","VertexVersion":2}}}],"name":"Plane.005"},{"primitives":[{"attributes":{"COLOR_0":47,"NORMAL":44,"POSITION":42,"TANGENT":43,"TEXCOORD_0":45,"TEXCOORD_1":46},"indices":48,"material":6,"mode":4,"extras":{"ASOBO_primitive":{"PrimitiveCount":144,"UV2Length":0.5831525921821594,"UVLength":0.5831525921821594,"VertexCount":288,"VertexType":"VTX","VertexVersion":2}}}],"name":"Plane.178"},{"primitives":[{"attributes":{"COLOR_0":54,"NORMAL":51,"POSITION":49,"TANGENT":50,"TEXCOORD_0":52,"TEXCOORD_1":53},"indices":55,"material":7,"mode":4,"extras":{"ASOBO_primitive":{"PrimitiveCount":760,"UV2Length":0.5831575989723206,"UVLength":0.5831575989723206,"VertexCount":930,"VertexType":"VTX","VertexVersion":2}}}],"name":"Plane.180"},{"primitives":[{"attributes":{"COLOR_0":61,"NORMAL":58,"POSITION":56,"TANGENT":57,"TEXCOORD_0":59,"TEXCOORD_1":60},"indices":62,"material":8,"mode":4,"extras":{"ASOBO_primitive":{"PrimitiveCount":1120,"UV2Length":0.5831575989723206,"UVLength":0.5831575989723206,"VertexCount":1526,"VertexType":"VTX","VertexVersion":2}}}],"name":"Plane.2209"},{"primitives":[{"attributes":{"COLOR_0":68,"NORMAL":65,"POSITION":63,"TANGENT":64,"TEXCOORD_0":66,"TEXCOORD_1":67},"indices":69,"material":9,"mode":4,"extras":{"ASOBO_primitive":{"PrimitiveCount":14,"UV2Length":0.5877818465232849,"UVLength":0.5877818465232849,"VertexCount":16,"VertexType":"VTX","VertexVersion":2}}}],"name":"Plane.182"},{"primitives":[{"attributes":{"COLOR_0":75,"NORMAL":72,"POSITION":70,"TANGENT":71,"TEXCOORD_0":73,"TEXCOORD_1":74},"indices":76,"material":9,"mode":4,"extras":{"ASOBO_primitive":{"PrimitiveCount":14,"UV2Length":0.5877818465232849,"UVLength":0.5877818465232849,"VertexCount":16,"VertexType":"VTX","VertexVersion":2}}}],"name":"Plane.282"},{"primitives":[{"attributes":{"COLOR_0":82,"NORMAL":79,"POSITION":77,"TANGENT":78,"TEXCOORD_0":80,"TEXCOORD_1":81},"indices":83,"material":9,"mode":4,"extras":{"ASOBO_primitive":{"PrimitiveCount":14,"UV2Length":0.5877818465232849,"UVLength":0.5877818465232849,"VertexCount":16,"VertexType":"VTX","VertexVersion":2}}}],"name":"Plane.417"},{"primitives":[{"attributes":{"COLOR_0":89,"NORMAL":86,"POSITION":84,"TANGENT":85,"TEXCOORD_0":87,"TEXCOORD_1":88},"indices":90,"material":9,"mode":4,"extras":{"ASOBO_primitive":{"PrimitiveCount":14,"UV2Length":0.5877818465232849,"UVLength":0.5877818465232849,"VertexCount":16,"VertexType":"VTX","VertexVersion":2}}}],"name":"Plane.284"},{"primitives":[{"attributes":{"COLOR_0":96,"NORMAL":93,"POSITION":91,"TANGENT":92,"TEXCOORD_0":94,"TEXCOORD_1":95},"indices":97,"material":9,"mode":4,"extras":{"ASOBO_primitive":{"PrimitiveCount":14,"UV2Length":0.5877818465232849,"UVLength":0.5877818465232849,"VertexCount":16,"VertexType":"VTX","VertexVersion":2}}}],"name":"Plane.311"},{"primitives":[{"attributes":{"COLOR_0":103,"NORMAL":100,"POSITION":98,"TANGENT":99,"TEXCOORD_0":101,"TEXCOORD_1":102},"indices":104,"material":9,"mode":4,"extras":{"ASOBO_primitive":{"PrimitiveCount":6,"UV2Length":0.5877818465232849,"UVLength":0.5877818465232849,"VertexCount":8,"VertexType":"VTX","VertexVersion":2}}}],"name":"Plane.313"},{"primitives":[{"attributes":{"COLOR_0":110,"NORMAL":107,"POSITION":105,"TANGENT":106,"TEXCOORD_0":108,"TEXCOORD_1":109},"indices":111,"material":9,"mode":4,"extras":{"ASOBO_primitive":{"PrimitiveCount":6,"UV2Length":0.5877818465232849,"UVLength":0.5877818465232849,"VertexCount":8,"VertexType":"VTX","VertexVersion":2}}}],"name":"Plane.315"},{"primitives":[{"attributes":{"COLOR_0":117,"NORMAL":114,"POSITION":112,"TANGENT":113,"TEXCOORD_0":115,"TEXCOORD_1":116},"indices":118,"material":9,"mode":4,"extras":{"ASOBO_primitive":{"PrimitiveCount":6,"UV2Length":0.5877818465232849,"UVLength":0.5877818465232849,"VertexCount":8,"VertexType":"VTX","VertexVersion":2}}}],"name":"Plane.316"},{"primitives":[{"attributes":{"COLOR_0":124,"NORMAL":121,"POSITION":119,"TANGENT":120,"TEXCOORD_0":122,"TEXCOORD_1":123},"indices":125,"material":9,"mode":4,"extras":{"ASOBO_primitive":{"PrimitiveCount":6,"UV2Length":0.5877818465232849,"UVLength":0.5877818465232849,"VertexCount":8,"VertexType":"VTX","VertexVersion":2}}}],"name":"Plane.326"},{"primitives":[{"attributes":{"COLOR_0":131,"NORMAL":128,"POSITION":126,"TANGENT":127,"TEXCOORD_0":129,"TEXCOORD_1":130},"indices":132,"material":9,"mode":4,"extras":{"ASOBO_primitive":{"PrimitiveCount":6,"UV2Length":0.5877818465232849,"UVLength":0.5877818465232849,"VertexCount":8,"VertexType":"VTX","VertexVersion":2}}}],"name":"Plane.344"},{"primitives":[{"attributes":{"COLOR_0":138,"NORMAL":135,"POSITION":133,"TANGENT":134,"TEXCOORD_0":136,"TEXCOORD_1":137},"indices":139,"material":9,"mode":4,"extras":{"ASOBO_primitive":{"PrimitiveCount":6,"UV2Length":0.5877818465232849,"UVLength":0.5877818465232849,"VertexCount":8,"VertexType":"VTX","VertexVersion":2}}}],"name":"Plane.352"},{"primitives":[{"attributes":{"COLOR_0":145,"NORMAL":142,"POSITION":140,"TANGENT":141,"TEXCOORD_0":143,"TEXCOORD_1":144},"indices":146,"material":9,"mode":4,"extras":{"ASOBO_primitive":{"PrimitiveCount":6,"UV2Length":0.5877818465232849,"UVLength":0.5877818465232849,"VertexCount":8,"VertexType":"VTX","VertexVersion":2}}}],"name":"Plane.360"},{"primitives":[{"attributes":{"COLOR_0":152,"NORMAL":149,"POSITION":147,"TANGENT":148,"TEXCOORD_0":150,"TEXCOORD_1":151},"indices":153,"material":9,"mode":4,"extras":{"ASOBO_primitive":{"PrimitiveCount":14,"UV2Length":0.5877818465232849,"UVLength":0.5877818465232849,"VertexCount":16,"VertexType":"VTX","VertexVersion":2}}}],"name":"Plane.395"},{"primitives":[{"attributes":{"COLOR_0":159,"NORMAL":156,"POSITION":154,"TANGENT":155,"TEXCOORD_0":157,"TEXCOORD_1":158},"indices":160,"material":9,"mode":4,"extras":{"ASOBO_primitive":{"PrimitiveCount":6,"UV2Length":0.5877818465232849,"UVLength":0.5877818465232849,"VertexCount":8,"VertexType":"VTX","VertexVersion":2}}}],"name":"Plane.2212"},{"primitives":[{"attributes":{"COLOR_0":166,"NORMAL":163,"POSITION":161,"TANGENT":162,"TEXCOORD_0":164,"TEXCOORD_1":165},"indices":167,"material":9,"mode":4,"extras":{"ASOBO_primitive":{"PrimitiveCount":6,"UV2Length":0.5877818465232849,"UVLength":0.5877818465232849,"VertexCount":8,"VertexType":"VTX","VertexVersion":2}}}],"name":"Plane.2213"},{"primitives":[{"attributes":{"COLOR_0":173,"NORMAL":170,"POSITION":168,"TANGENT":169,"TEXCOORD_0":171,"TEXCOORD_1":172},"indices":174,"material":9,"mode":4,"extras":{"ASOBO_primitive":{"PrimitiveCount":6,"UV2Length":0.5877818465232849,"UVLength":0.5877818465232849,"VertexCount":8,"VertexType":"VTX","VertexVersion":2}}}],"name":"Plane.2211"},{"primitives":[{"attributes":{"COLOR_0":180,"NORMAL":177,"POSITION":175,"TANGENT":176,"TEXCOORD_0":178,"TEXCOORD_1":179},"indices":181,"material":8,"mode":4,"extras":{"ASOBO_primitive":{"PrimitiveCount":14,"UV2Length":0.5877818465232849,"UVLength":0.5877818465232849,"VertexCount":16,"VertexType":"VTX","VertexVersion":2}}}],"name":"Plane.2214"},{"primitives":[{"attributes":{"COLOR_0":187,"NORMAL":184,"POSITION":182,"TANGENT":183,"TEXCOORD_0":185,"TEXCOORD_1":186},"indices":188,"material":8,"mode":4,"extras":{"ASOBO_primitive":{"PrimitiveCount":14,"UV2Length":0.5877818465232849,"UVLength":0.5877818465232849,"VertexCount":16,"VertexType":"VTX","VertexVersion":2}}}],"name":"Plane.2215"},{"primitives":[{"attributes":{"COLOR_0":194,"NORMAL":191,"POSITION":189,"TANGENT":190,"TEXCOORD_0":192,"TEXCOORD_1":193},"indices":195,"material":8,"mode":4,"extras":{"ASOBO_primitive":{"PrimitiveCount":14,"UV2Length":0.5877818465232849,"UVLength":0.5877818465232849,"VertexCount":16,"VertexType":"VTX","VertexVersion":2}}}],"name":"Plane.2216"},{"primitives":[{"attributes":{"COLOR_0":201,"NORMAL":198,"POSITION":196,"TANGENT":197,"TEXCOORD_0":199,"TEXCOORD_1":200},"indices":202,"material":8,"mode":4,"extras":{"ASOBO_primitive":{"PrimitiveCount":14,"UV2Length":0.5877818465232849,"UVLength":0.5877818465232849,"VertexCount":16,"VertexType":"VTX","VertexVersion":2}}}],"name":"Plane.2217"},{"primitives":[{"attributes":{"COLOR_0":208,"NORMAL":205,"POSITION":203,"TANGENT":204,"TEXCOORD_0":206,"TEXCOORD_1":207},"indices":209,"material":8,"mode":4,"extras":{"ASOBO_primitive":{"PrimitiveCount":14,"UV2Length":0.5877818465232849,"UVLength":0.5877818465232849,"VertexCount":16,"VertexType":"VTX","VertexVersion":2}}}],"name":"Plane.2218"},{"primitives":[{"attributes":{"COLOR_0":215,"NORMAL":212,"POSITION":210,"TANGENT":211,"TEXCOORD_0":213,"TEXCOORD_1":214},"indices":216,"material":8,"mode":4,"extras":{"ASOBO_primitive":{"PrimitiveCount":6,"UV2Length":0.5877818465232849,"UVLength":0.5877818465232849,"VertexCount":8,"VertexType":"VTX","VertexVersion":2}}}],"name":"Plane.2219"},{"primitives":[{"attributes":{"COLOR_0":222,"NORMAL":219,"POSITION":217,"TANGENT":218,"TEXCOORD_0":220,"TEXCOORD_1":221},"indices":223,"material":8,"mode":4,"extras":{"ASOBO_primitive":{"PrimitiveCount":6,"UV2Length":0.5877818465232849,"UVLength":0.5877818465232849,"VertexCount":8,"VertexType":"VTX","VertexVersion":2}}}],"name":"Plane.2220"},{"primitives":[{"attributes":{"COLOR_0":229,"NORMAL":226,"POSITION":224,"TANGENT":225,"TEXCOORD_0":227,"TEXCOORD_1":228},"indices":230,"material":8,"mode":4,"extras":{"ASOBO_primitive":{"PrimitiveCount":6,"UV2Length":0.5877818465232849,"UVLength":0.5877818465232849,"VertexCount":8,"VertexType":"VTX","VertexVersion":2}}}],"name":"Plane.2221"},{"primitives":[{"attributes":{"COLOR_0":236,"NORMAL":233,"POSITION":231,"TANGENT":232,"TEXCOORD_0":234,"TEXCOORD_1":235},"indices":237,"material":8,"mode":4,"extras":{"ASOBO_primitive":{"PrimitiveCount":6,"UV2Length":0.5877818465232849,"UVLength":0.5877818465232849,"VertexCount":8,"VertexType":"VTX","VertexVersion":2}}}],"name":"Plane.2222"},{"primitives":[{"attributes":{"COLOR_0":243,"NORMAL":240,"POSITION":238,"TANGENT":239,"TEXCOORD_0":241,"TEXCOORD_1":242},"indices":244,"material":8,"mode":4,"extras":{"ASOBO_primitive":{"PrimitiveCount":6,"UV2Length":0.5877818465232849,"UVLength":0.5877818465232849,"VertexCount":8,"VertexType":"VTX","VertexVersion":2}}}],"name":"Plane.2223"},{"primitives":[{"attributes":{"COLOR_0":250,"NORMAL":247,"POSITION":245,"TANGENT":246,"TEXCOORD_0":248,"TEXCOORD_1":249},"indices":251,"material":8,"mode":4,"extras":{"ASOBO_primitive":{"PrimitiveCount":6,"UV2Length":0.5877818465232849,"UVLength":0.5877818465232849,"VertexCount":8,"VertexType":"VTX","VertexVersion":2}}}],"name":"Plane.2224"},{"primitives":[{"attributes":{"COLOR_0":257,"NORMAL":254,"POSITION":252,"TANGENT":253,"TEXCOORD_0":255,"TEXCOORD_1":256},"indices":258,"material":8,"mode":4,"extras":{"ASOBO_primitive":{"PrimitiveCount":6,"UV2Length":0.5877818465232849,"UVLength":0.5877818465232849,"VertexCount":8,"VertexType":"VTX","VertexVersion":2}}}],"name":"Plane.2225"},{"primitives":[{"attributes":{"COLOR_0":264,"NORMAL":261,"POSITION":259,"TANGENT":260,"TEXCOORD_0":262,"TEXCOORD_1":263},"indices":265,"material":8,"mode":4,"extras":{"ASOBO_primitive":{"PrimitiveCount":14,"UV2Length":0.5877818465232849,"UVLength":0.5877818465232849,"VertexCount":16,"VertexType":"VTX","VertexVersion":2}}}],"name":"Plane.2226"},{"primitives":[{"attributes":{"COLOR_0":271,"NORMAL":268,"POSITION":266,"TANGENT":267,"TEXCOORD_0":269,"TEXCOORD_1":270},"indices":272,"material":8,"mode":4,"extras":{"ASOBO_primitive":{"PrimitiveCount":6,"UV2Length":0.5877818465232849,"UVLength":0.5877818465232849,"VertexCount":8,"VertexType":"VTX","VertexVersion":2}}}],"name":"Plane.2227"},{"primitives":[{"attributes":{"COLOR_0":278,"NORMAL":275,"POSITION":273,"TANGENT":274,"TEXCOORD_0":276,"TEXCOORD_1":277},"indices":279,"material":8,"mode":4,"extras":{"ASOBO_primitive":{"PrimitiveCount":6,"UV2Length":0.5877818465232849,"UVLength":0.5877818465232849,"VertexCount":8,"VertexType":"VTX","VertexVersion":2}}}],"name":"Plane.2228"},{"primitives":[{"attributes":{"COLOR_0":285,"NORMAL":282,"POSITION":280,"TANGENT":281,"TEXCOORD_0":283,"TEXCOORD_1":284},"indices":286,"material":8,"mode":4,"extras":{"ASOBO_primitive":{"PrimitiveCount":6,"UV2Length":0.5877818465232849,"UVLength":0.5877818465232849,"VertexCount":8,"VertexType":"VTX","VertexVersion":2}}}],"name":"Plane.2229"}],"nodes":[{"mesh":0,"extensions":{"ASOBO_unique_id":{"id":"A380X_WINDOW_RAIN"}},"name":"A380X_WINDOW_RAIN"},{"mesh":1,"extensions":{"ASOBO_unique_id":{"id":"A380X_WINDOW_FRAME"}},"name":"A380X_WINDOW_FRAME"},{"mesh":2,"extensions":{"ASOBO_unique_id":{"id":"A380X_WINDOW_GLASS"}},"name":"A380X_WINDOW_GLASS"},{"scale":[114.24598693847656,1.0,114.24598693847656],"mesh":3,"extensions":{"ASOBO_unique_id":{"id":"CABIN_BOUNDS"}},"name":"CABIN_BOUNDS"},{"translation":[9.239801406860352,0.0,0.0],"extensions":{"ASOBO_unique_id":{"id":"HELPER_PARALLAX"}},"name":"HELPER_PARALLAX"},{"mesh":4,"extensions":{"ASOBO_unique_id":{"id":"A380X_WINDOW_PARALLAX_PEC"}},"name":"A380X_WINDOW_PARALLAX_PEC"},{"mesh":5,"extensions":{"ASOBO_unique_id":{"id":"A380X_WINDOW_PARALLAX_FC"}},"name":"A380X_WINDOW_PARALLAX_FC"},{"mesh":6,"extensions":{"ASOBO_unique_id":{"id":"A380X_WINDOW_PARALLAX_BC"}},"name":"A380X_WINDOW_PARALLAX_BC"},{"mesh":7,"extensions":{"ASOBO_unique_id":{"id":"A380X_WINDOW_PARALLAX_YC"}},"name":"A380X_WINDOW_PARALLAX_YC"},{"mesh":8,"extensions":{"ASOBO_unique_id":{"id":"A380X_WINDOW_BLOCKER"}},"name":"A380X_WINDOW_BLOCKER"},{"mesh":9,"extensions":{"ASOBO_unique_id":{"id":"A380X_WINDOW_PARALLAX_DOOR_U3L"}},"name":"A380X_WINDOW_PARALLAX_DOOR_U3L"},{"mesh":10,"extensions":{"ASOBO_unique_id":{"id":"A380X_WINDOW_PARALLAX_DOOR_U2L"}},"name":"A380X_WINDOW_PARALLAX_DOOR_U2L"},{"mesh":11,"extensions":{"ASOBO_unique_id":{"id":"A380X_WINDOW_PARALLAX_DOOR_U1L"}},"name":"A380X_WINDOW_PARALLAX_DOOR_U1L"},{"mesh":12,"extensions":{"ASOBO_unique_id":{"id":"A380X_WINDOW_PARALLAX_DOOR_U3R"}},"name":"A380X_WINDOW_PARALLAX_DOOR_U3R"},{"mesh":13,"extensions":{"ASOBO_unique_id":{"id":"A380X_WINDOW_PARALLAX_DOOR_U2R"}},"name":"A380X_WINDOW_PARALLAX_DOOR_U2R"},{"mesh":14,"extensions":{"ASOBO_unique_id":{"id":"A380X_WINDOW_PARALLAX_DOOR_M1R"}},"name":"A380X_WINDOW_PARALLAX_DOOR_M1R"},{"mesh":15,"extensions":{"ASOBO_unique_id":{"id":"A380X_WINDOW_PARALLAX_DOOR_M5R"}},"name":"A380X_WINDOW_PARALLAX_DOOR_M5R"},{"mesh":16,"extensions":{"ASOBO_unique_id":{"id":"A380X_WINDOW_PARALLAX_DOOR_M4R"}},"name":"A380X_WINDOW_PARALLAX_DOOR_M4R"},{"mesh":17,"extensions":{"ASOBO_unique_id":{"id":"A380X_WINDOW_PARALLAX_DOOR_M3R"}},"name":"A380X_WINDOW_PARALLAX_DOOR_M3R"},{"mesh":18,"extensions":{"ASOBO_unique_id":{"id":"A380X_WINDOW_PARALLAX_DOOR_M5L"}},"name":"A380X_WINDOW_PARALLAX_DOOR_M5L"},{"mesh":19,"extensions":{"ASOBO_unique_id":{"id":"A380X_WINDOW_PARALLAX_DOOR_M3L"}},"name":"A380X_WINDOW_PARALLAX_DOOR_M3L"},{"mesh":20,"extensions":{"ASOBO_unique_id":{"id":"A380X_WINDOW_PARALLAX_DOOR_M2R"}},"name":"A380X_WINDOW_PARALLAX_DOOR_M2R"},{"mesh":21,"extensions":{"ASOBO_unique_id":{"id":"A380X_WINDOW_PARALLAX_DOOR_U1R"}},"name":"A380X_WINDOW_PARALLAX_DOOR_U1R"},{"mesh":22,"extensions":{"ASOBO_unique_id":{"id":"A380X_WINDOW_PARALLAX_DOOR_M2L"}},"name":"A380X_WINDOW_PARALLAX_DOOR_M2L"},{"mesh":23,"extensions":{"ASOBO_unique_id":{"id":"A380X_WINDOW_PARALLAX_DOOR_M1L"}},"name":"A380X_WINDOW_PARALLAX_DOOR_M1L"},{"mesh":24,"extensions":{"ASOBO_unique_id":{"id":"A380X_WINDOW_PARALLAX_DOOR_M4L"}},"name":"A380X_WINDOW_PARALLAX_DOOR_M4L"},{"scale":[0.9904894828796388,1.0,1.0],"mesh":25,"extensions":{"ASOBO_unique_id":{"id":"A380X_WINDOW_PARALLAX_DOOR_U3L.001"}},"name":"A380X_WINDOW_PARALLAX_DOOR_U3L.001"},{"scale":[0.9904894828796388,1.0,1.0],"mesh":26,"extensions":{"ASOBO_unique_id":{"id":"A380X_WINDOW_PARALLAX_DOOR_U2L.001"}},"name":"A380X_WINDOW_PARALLAX_DOOR_U2L.001"},{"scale":[0.9904894828796388,1.0,1.0],"mesh":27,"extensions":{"ASOBO_unique_id":{"id":"A380X_WINDOW_PARALLAX_DOOR_U1L.001"}},"name":"A380X_WINDOW_PARALLAX_DOOR_U1L.001"},{"scale":[0.9904894828796388,1.0,1.0],"mesh":28,"extensions":{"ASOBO_unique_id":{"id":"A380X_WINDOW_PARALLAX_DOOR_U3R.001"}},"name":"A380X_WINDOW_PARALLAX_DOOR_U3R.001"},{"scale":[0.9904894828796388,1.0,1.0],"mesh":29,"extensions":{"ASOBO_unique_id":{"id":"A380X_WINDOW_PARALLAX_DOOR_U2R.001"}},"name":"A380X_WINDOW_PARALLAX_DOOR_U2R.001"},{"scale":[0.9904894828796388,1.0,1.0],"mesh":30,"extensions":{"ASOBO_unique_id":{"id":"A380X_WINDOW_PARALLAX_DOOR_M1R.001"}},"name":"A380X_WINDOW_PARALLAX_DOOR_M1R.001"},{"scale":[0.9904894828796388,1.0,1.0],"mesh":31,"extensions":{"ASOBO_unique_id":{"id":"A380X_WINDOW_PARALLAX_DOOR_M5R.001"}},"name":"A380X_WINDOW_PARALLAX_DOOR_M5R.001"},{"scale":[0.9904896020889282,1.0,1.0],"mesh":32,"extensions":{"ASOBO_unique_id":{"id":"A380X_WINDOW_PARALLAX_DOOR_M4R.001"}},"name":"A380X_WINDOW_PARALLAX_DOOR_M4R.001"},{"scale":[0.9904896020889282,1.0,1.0],"mesh":33,"extensions":{"ASOBO_unique_id":{"id":"A380X_WINDOW_PARALLAX_DOOR_M3R.001"}},"name":"A380X_WINDOW_PARALLAX_DOOR_M3R.001"},{"scale":[0.9904894828796388,1.0,1.0],"mesh":34,"extensions":{"ASOBO_unique_id":{"id":"A380X_WINDOW_PARALLAX_DOOR_M5L.001"}},"name":"A380X_WINDOW_PARALLAX_DOOR_M5L.001"},{"scale":[0.9904896020889282,1.0,1.0],"mesh":35,"extensions":{"ASOBO_unique_id":{"id":"A380X_WINDOW_PARALLAX_DOOR_M3L.001"}},"name":"A380X_WINDOW_PARALLAX_DOOR_M3L.001"},{"scale":[0.9904896020889282,1.0,1.0],"mesh":36,"extensions":{"ASOBO_unique_id":{"id":"A380X_WINDOW_PARALLAX_DOOR_M2R.001"}},"name":"A380X_WINDOW_PARALLAX_DOOR_M2R.001"},{"scale":[0.9904894828796388,1.0,1.0],"mesh":37,"extensions":{"ASOBO_unique_id":{"id":"A380X_WINDOW_PARALLAX_DOOR_U1R.001"}},"name":"A380X_WINDOW_PARALLAX_DOOR_U1R.001"},{"scale":[0.9904896020889282,1.0,1.0],"mesh":38,"extensions":{"ASOBO_unique_id":{"id":"A380X_WINDOW_PARALLAX_DOOR_M2L.001"}},"name":"A380X_WINDOW_PARALLAX_DOOR_M2L.001"},{"scale":[0.9904894828796388,1.0,1.0],"mesh":39,"extensions":{"ASOBO_unique_id":{"id":"A380X_WINDOW_PARALLAX_DOOR_M1L.001"}},"name":"A380X_WINDOW_PARALLAX_DOOR_M1L.001"},{"scale":[0.9904896020889282,1.0,1.0],"mesh":40,"extensions":{"ASOBO_unique_id":{"id":"A380X_WINDOW_PARALLAX_DOOR_M4L.001"}},"name":"A380X_WINDOW_PARALLAX_DOOR_M4L.001"}],"scene":0,"scenes":[{"nodes":[0,1,2,3,4,5,6,7,8,9,10,11,12,13,14,15,16,17,18,19,20,21,22,23,24,25,26,27,28,29,30,31,32,33,34,35,36,37,38,39,40,41],"name":"Scene"}],"textures":[{"extensions":{"MSFT_texture_dds":{"source":0}}},{"extensions":{"MSFT_texture_dds":{"source":1}}},{"extensions":{"MSFT_texture_dds":{"source":2}}},{"extensions":{"MSFT_texture_dds":{"source":0}}},{"extensions":{"MSFT_texture_dds":{"source":1}}},{"extensions":{"MSFT_texture_dds":{"source":2}}},{"extensions":{"MSFT_texture_dds":{"source":3}}},{"extensions":{"MSFT_texture_dds":{"source":4}}},{"extensions":{"MSFT_texture_dds":{"source":5}}},{"extensions":{"MSFT_texture_dds":{"source":6}}},{"extensions":{"MSFT_texture_dds":{"source":4}}},{"extensions":{"MSFT_texture_dds":{"source":5}}},{"extensions":{"MSFT_texture_dds":{"source":7}}},{"extensions":{"MSFT_texture_dds":{"source":4}}},{"extensions":{"MSFT_texture_dds":{"source":5}}},{"extensions":{"MSFT_texture_dds":{"source":8}}},{"extensions":{"MSFT_texture_dds":{"source":4}}},{"extensions":{"MSFT_texture_dds":{"source":5}}},{"extensions":{"MSFT_texture_dds":{"source":9}}},{"extensions":{"MSFT_texture_dds":{"source":4}}},{"extensions":{"MSFT_texture_dds":{"source":5}}}],"samplers":[{"magFilter":9729,"minFilter":9987,"wrapS":10497,"wrapT":10497}],"extensionsUsed":["ASOBO_normal_map_convention","ASOBO_unique_id","ASOBO_material_draw_order","ASOBO_material_windshield_v3","ASOBO_material_rain_options","ASOBO_material_shadow_options","ASOBO_material_invisible","MSFT_texture_dds","ASOBO_asset_optimized"],"buffers":[{"byteLength":300264,"uri":"A380_CABIN_LOD02.bin"}],"images":[{"uri":"..\\TEXTURE\\A380X_LIGHT_GLASS_NORMAL.PNG.KTX2","name":"A380X_LIGHT_GLASS_NORMAL","extras":"ASOBO_image_converted_meta"},{"uri":"..\\TEXTURE\\A380X_LIGHT_GLASS_METAL.PNG.KTX2","name":"A380X_LIGHT_GLASS_METAL","extras":"ASOBO_image_converted_meta"},{"uri":"..\\TEXTURE\\A380X_LIGHT_GLASS_ALBEDO.PNG.KTX2","name":"A380X_LIGHT_GLASS_ALBEDO","extras":"ASOBO_image_converted_meta"},{"uri":"..\\TEXTURE\\A380X_PARALLAX_PEC_EMIS.PNG.KTX2","name":"A380X_PARALLAX_PEC_EMIS","extras":"ASOBO_image_converted_meta"},{"uri":"..\\TEXTURE\\A380X_PARALLAX_PAX_COMP.PNG.KTX2","name":"A380X_PARALLAX_PAX_COMP","extras":"ASOBO_image_converted_meta"},{"uri":"..\\TEXTURE\\A380X_PARALLAX_PAX_ALBD.PNG.KTX2","name":"A380X_PARALLAX_PAX_ALBD","extras":"ASOBO_image_converted_meta"},{"uri":"..\\TEXTURE\\A380X_PARALLAX_FC_EMIS.PNG.KTX2","name":"A380X_PARALLAX_FC_EMIS","extras":"ASOBO_image_converted_meta"},{"uri":"..\\TEXTURE\\A380X_PARALLAX_BC_EMIS.PNG.KTX2","name":"A380X_PARALLAX_BC_EMIS","extras":"ASOBO_image_converted_meta"},{"uri":"..\\TEXTURE\\A380X_PARALLAX_YC_EMIS.PNG.KTX2","name":"A380X_PARALLAX_YC_EMIS","extras":"ASOBO_image_converted_meta"},{"uri":"..\\TEXTURE\\A380X_PARALLAX_DOOR_EMIS.PNG.KTX2","name":"A380X_PARALLAX_DOOR_EMIS","extras":"ASOBO_image_converted_meta"}]}
